<svg id="Layer_1" data-name="Layer 1" xmlns="http://www.w3.org/2000/svg" xmlns:xlink="http://www.w3.org/1999/xlink" viewBox="0 0 555.72 441.22"><defs><style>.cls-1{fill:#747474;}.cls-2{fill:url(#linear-gradient);}.cls-3{fill:url(#linear-gradient-2);}.cls-4{fill:url(#linear-gradient-3);}.cls-5{fill:url(#linear-gradient-4);}.cls-6{fill:url(#linear-gradient-5);}.cls-7{fill:url(#linear-gradient-6);}.cls-8{fill:#c68930;}.cls-9{fill:none;stroke:#0b1e2f;stroke-miterlimit:10;stroke-width:3px;}.cls-10{fill:#0b1e2f;}.cls-11{fill:url(#linear-gradient-7);}.cls-12{fill:url(#linear-gradient-8);}.cls-13{fill:url(#linear-gradient-9);}.cls-14{fill:url(#linear-gradient-11);}.cls-15{fill:#dba565;}.cls-16{fill:url(#linear-gradient-12);}.cls-17{fill:url(#linear-gradient-13);}.cls-18{fill:url(#linear-gradient-14);}.cls-19{fill:url(#linear-gradient-15);}.cls-20{fill:url(#linear-gradient-16);}.cls-21{fill:url(#linear-gradient-17);}</style><linearGradient id="linear-gradient" x1="351.86" y1="384.35" x2="495.54" y2="240.67" gradientUnits="userSpaceOnUse"><stop offset="0" stop-color="#619acc"/><stop offset="1" stop-color="#fff" stop-opacity="0"/></linearGradient><linearGradient id="linear-gradient-2" x1="405" y1="438.02" x2="434.02" y2="408.99" xlink:href="#linear-gradient"/><linearGradient id="linear-gradient-3" x1="387" y1="468.17" x2="403.59" y2="451.58" xlink:href="#linear-gradient"/><linearGradient id="linear-gradient-4" x1="-1.66" y1="395.06" x2="52.53" y2="340.88" gradientTransform="matrix(-1, 0, 0, 1, 110.11, 0)" xlink:href="#linear-gradient"/><linearGradient id="linear-gradient-5" x1="18.38" y1="415.3" x2="29.33" y2="404.35" gradientTransform="matrix(-1, 0, 0, 1, 110.11, 0)" xlink:href="#linear-gradient"/><linearGradient id="linear-gradient-6" x1="11.6" y1="426.67" x2="17.86" y2="420.41" gradientTransform="matrix(-1, 0, 0, 1, 110.11, 0)" xlink:href="#linear-gradient"/><linearGradient id="linear-gradient-7" x1="69.81" y1="570.42" x2="274.59" y2="570.42" gradientTransform="translate(-145.98 -242.42) rotate(-15.1)" xlink:href="#linear-gradient"/><linearGradient id="linear-gradient-8" x1="112.8" y1="542.11" x2="224.11" y2="430.8" gradientTransform="translate(-145.98 -242.42) rotate(-15.1)" gradientUnits="userSpaceOnUse"><stop offset="0" stop-color="#619acc"/><stop offset="0.32" stop-color="#639bcd" stop-opacity="0.99"/><stop offset="0.47" stop-color="#689fce" stop-opacity="0.95"/><stop offset="0.58" stop-color="#72a5d2" stop-opacity="0.89"/><stop offset="0.67" stop-color="#80aed6" stop-opacity="0.8"/><stop offset="0.75" stop-color="#92b9dc" stop-opacity="0.69"/><stop offset="0.82" stop-color="#a9c8e3" stop-opacity="0.55"/><stop offset="0.89" stop-color="#c3d9ec" stop-opacity="0.38"/><stop offset="0.95" stop-color="#e1ecf5" stop-opacity="0.19"/><stop offset="1" stop-color="#fff" stop-opacity="0"/></linearGradient><linearGradient id="linear-gradient-9" x1="-175.09" y1="37.59" x2="-39.13" y2="-98.36" gradientTransform="translate(363.13 349.66) rotate(10.46)" xlink:href="#linear-gradient"/><linearGradient id="linear-gradient-11" x1="-109.5" y1="-7.75" x2="-7.82" y2="-109.43" gradientTransform="translate(363.13 349.66) rotate(10.46)" xlink:href="#linear-gradient-8"/><linearGradient id="linear-gradient-12" x1="2831" y1="-216.15" x2="2858.5" y2="-216.15" gradientTransform="translate(-2404.37 -46) rotate(9.87)" xlink:href="#linear-gradient"/><linearGradient id="linear-gradient-13" x1="2833.06" y1="-197.66" x2="2858.5" y2="-197.66" gradientTransform="translate(-2404.37 -46) rotate(9.87)" xlink:href="#linear-gradient"/><linearGradient id="linear-gradient-14" x1="2167.63" y1="-1255.19" x2="2195.14" y2="-1255.19" gradientTransform="matrix(0.58, 0.82, -0.82, 0.58, -1798.59, -821.4)" xlink:href="#linear-gradient"/><linearGradient id="linear-gradient-15" x1="2169.69" y1="-1236.7" x2="2195.14" y2="-1236.7" gradientTransform="matrix(0.58, 0.82, -0.82, 0.58, -1798.59, -821.4)" xlink:href="#linear-gradient"/><linearGradient id="linear-gradient-16" x1="1067.14" y1="-1476.96" x2="1094.64" y2="-1476.96" gradientTransform="matrix(-0.17, 0.99, -0.99, -0.17, -758.18, -1041.95)" xlink:href="#linear-gradient"/><linearGradient id="linear-gradient-17" x1="1069.2" y1="-1458.47" x2="1094.64" y2="-1458.47" gradientTransform="matrix(-0.17, 0.99, -0.99, -0.17, -758.18, -1041.95)" xlink:href="#linear-gradient"/></defs><title>erro500</title><path class="cls-1" d="M555.74,327.31a12.94,12.94,0,0,0,.47-3.43V306.73a13.11,13.11,0,0,0-13.08-13.08H472.21V274.41a13.11,13.11,0,0,0-13.08-13.08H298.87a13.11,13.11,0,0,0-13.08,13.08V312.9A13.11,13.11,0,0,0,298.87,326h46.37v12.68a13.11,13.11,0,0,0,13.08,13.08h95.08a13,13,0,0,0,1.47,3.84h-46.5a13.11,13.11,0,0,0-13.08,13.08v0.75a13.11,13.11,0,0,0,13.08,13.08h12.9a11.33,11.33,0,0,0-1.76,6.05A11.47,11.47,0,0,0,430.94,400H456.7a11.47,11.47,0,0,0,11.43-11.43,11.33,11.33,0,0,0-1.76-6.05h45.11a13.11,13.11,0,0,0,13.08-13.08v-0.75a13,13,0,0,0-1.74-6.47H550a13.11,13.11,0,0,0,13.08-13.08V339.05A13.1,13.1,0,0,0,555.74,327.31Z" transform="translate(-14.23 -261.34)"/><path class="cls-1" d="M432.39,412.07H406.63a11.43,11.43,0,0,0,0,22.87h25.76A11.43,11.43,0,0,0,432.39,412.07Z" transform="translate(-14.23 -261.34)"/><path class="cls-1" d="M399.89,449.38l-1.36-.49a11.43,11.43,0,0,0-7.83,21.49l1.36,0.49A11.43,11.43,0,0,0,399.89,449.38Z" transform="translate(-14.23 -261.34)"/><path class="cls-2" d="M555.74,327.31a12.94,12.94,0,0,0,.47-3.43V306.73a13.11,13.11,0,0,0-13.08-13.08H472.21V274.41a13.11,13.11,0,0,0-13.08-13.08H298.87a13.11,13.11,0,0,0-13.08,13.08V312.9A13.11,13.11,0,0,0,298.87,326h46.37v12.68a13.11,13.11,0,0,0,13.08,13.08h95.08a13,13,0,0,0,1.47,3.84h-46.5a13.11,13.11,0,0,0-13.08,13.08v0.75a13.11,13.11,0,0,0,13.08,13.08h12.9a11.33,11.33,0,0,0-1.76,6.05A11.47,11.47,0,0,0,430.94,400H456.7a11.47,11.47,0,0,0,11.43-11.43,11.33,11.33,0,0,0-1.76-6.05h45.11a13.11,13.11,0,0,0,13.08-13.08v-0.75a13,13,0,0,0-1.74-6.47H550a13.11,13.11,0,0,0,13.08-13.08V339.05A13.1,13.1,0,0,0,555.74,327.31Z" transform="translate(-14.23 -261.34)"/><path class="cls-3" d="M432.39,412.07H406.63a11.43,11.43,0,0,0,0,22.87h25.76A11.43,11.43,0,0,0,432.39,412.07Z" transform="translate(-14.23 -261.34)"/><path class="cls-4" d="M399.89,449.38l-1.36-.49a11.43,11.43,0,1,0-7.83,21.49l1.36,0.49A11.43,11.43,0,0,0,399.89,449.38Z" transform="translate(-14.23 -261.34)"/><path class="cls-1" d="M34.88,373.55a4.88,4.88,0,0,1-.18-1.29v-6.47a5,5,0,0,1,4.93-4.93H66.38V353.6a5,5,0,0,1,4.93-4.93h60.44a5,5,0,0,1,4.93,4.93v14.52a5,5,0,0,1-4.93,4.93H114.26v4.78a5,5,0,0,1-4.93,4.93H73.47a4.89,4.89,0,0,1-.55,1.45H90.46a5,5,0,0,1,4.93,4.93v0.28a5,5,0,0,1-4.93,4.93H85.59a4.27,4.27,0,0,1,.66,2.28,4.32,4.32,0,0,1-4.31,4.31H72.23a4.32,4.32,0,0,1-4.31-4.31,4.27,4.27,0,0,1,.66-2.28h-17a5,5,0,0,1-4.93-4.93v-0.28a4.88,4.88,0,0,1,.65-2.44H37a5,5,0,0,1-4.93-4.93V378A4.94,4.94,0,0,1,34.88,373.55Z" transform="translate(-14.23 -261.34)"/><path class="cls-1" d="M81.4,405.52h9.71a4.31,4.31,0,0,1,0,8.62H81.4A4.31,4.31,0,0,1,81.4,405.52Z" transform="translate(-14.23 -261.34)"/><path class="cls-1" d="M93.65,419.59l0.51-.19a4.31,4.31,0,0,1,3,8.1l-0.51.19A4.31,4.31,0,0,1,93.65,419.59Z" transform="translate(-14.23 -261.34)"/><path class="cls-5" d="M34.88,373.55a4.88,4.88,0,0,1-.18-1.29v-6.47a5,5,0,0,1,4.93-4.93H66.38V353.6a5,5,0,0,1,4.93-4.93h60.44a5,5,0,0,1,4.93,4.93v14.52a5,5,0,0,1-4.93,4.93H114.26v4.78a5,5,0,0,1-4.93,4.93H73.47a4.89,4.89,0,0,1-.55,1.45H90.46a5,5,0,0,1,4.93,4.93v0.28a5,5,0,0,1-4.93,4.93H85.59a4.27,4.27,0,0,1,.66,2.28,4.32,4.32,0,0,1-4.31,4.31H72.23a4.32,4.32,0,0,1-4.31-4.31,4.27,4.27,0,0,1,.66-2.28h-17a5,5,0,0,1-4.93-4.93v-0.28a4.88,4.88,0,0,1,.65-2.44H37a5,5,0,0,1-4.93-4.93V378A4.94,4.94,0,0,1,34.88,373.55Z" transform="translate(-14.23 -261.34)"/><path class="cls-6" d="M81.4,405.52h9.71a4.31,4.31,0,0,1,0,8.62H81.4A4.31,4.31,0,0,1,81.4,405.52Z" transform="translate(-14.23 -261.34)"/><path class="cls-7" d="M93.65,419.59l0.51-.19a4.31,4.31,0,0,1,3,8.1l-0.51.19A4.31,4.31,0,0,1,93.65,419.59Z" transform="translate(-14.23 -261.34)"/><rect class="cls-8" y="326.25" width="555.72" height="114.97" rx="57.49" ry="57.49"/><path class="cls-9" d="M218.85,582.1c87.29,4.22,116.09-11.28,123.79-28.93,4.37-10,2.48-22,10.85-26.27,13.77-7,44.35,12.29,44.5,30.28s-30.55,24.48-28.49,36c2.9,16.14,68.43,29.82,86.6,3.87,3.78-5.39,4.9-11.63,5-17.25" transform="translate(-14.23 -261.34)"/><rect class="cls-1" x="460.82" y="551.08" width="1.95" height="13.83" rx="0.44" ry="0.44" transform="translate(99.24 -338.39) rotate(10.87)"/><rect class="cls-1" x="467.21" y="552.3" width="1.95" height="13.83" rx="0.44" ry="0.44" transform="translate(99.58 -339.57) rotate(10.87)"/><path class="cls-10" d="M452,563.21h20.39a0,0,0,0,1,0,0V583.6a0,0,0,0,1,0,0h0A20.39,20.39,0,0,1,452,563.21v0a0,0,0,0,1,0,0Z" transform="translate(102.15 -338.18) rotate(10.87)"/><path class="cls-10" d="M472.35,563.21h0a0,0,0,0,1,0,0V583.6a0,0,0,0,1,0,0H452a0,0,0,0,1,0,0v0A20.39,20.39,0,0,1,472.35,563.21Z" transform="translate(793.7 962.32) rotate(-169.13)"/><rect class="cls-1" x="458.56" y="568.25" width="7.69" height="7.69" rx="3.85" ry="3.85" transform="matrix(0.98, 0.19, -0.19, 0.98, 101.91, -338.25)"/><polygon class="cls-10" points="230.16 262.94 258 186.85 223.53 200.11 240.19 160.82 244.49 150.67 53.73 202.15 40.83 215.16 87.29 387.33 239.98 346.13 252.88 333.12 263.1 302.33 263.95 299.76 284.47 237.94 230.16 262.94"/><polygon class="cls-1" points="271.57 250.95 217.26 275.94 245.1 199.85 210.64 213.11 227.29 173.82 51.46 221.27 88.61 358.94 250.2 315.34 251.05 312.76 271.57 250.95"/><polygon class="cls-11" points="271.57 250.95 217.26 275.94 245.1 199.85 210.64 213.11 227.29 173.82 51.46 221.27 88.61 358.94 250.2 315.34 251.05 312.76 271.57 250.95"/><polygon class="cls-12" points="40.83 215.16 240.32 161.32 244.49 150.67 53.73 202.15 40.83 215.16"/><rect class="cls-1" x="105.35" y="619.25" width="57.82" height="12.96" rx="1.92" ry="1.92" transform="translate(-172.62 -204.74) rotate(-15.1)"/><polygon class="cls-10" points="364.23 224.54 249.73 203.4 232.48 209.57 224.23 216.86 192.25 245.12 229.06 248.03 171.12 304.66 230.9 305.55 185.72 352.46 183.83 354.42 161.33 377.78 314.62 406.07 331.86 399.91 364.23 224.54"/><polygon class="cls-13" points="224.23 216.86 192.25 245.12 229.06 248.03 171.12 304.66 230.9 305.55 185.72 352.46 183.83 354.42 311 377.89 336.88 237.66 224.23 216.86"/><polygon class="cls-13" points="224.23 216.86 192.25 245.12 229.06 248.03 171.12 304.66 230.9 305.55 185.72 352.46 183.83 354.42 311 377.89 336.88 237.66 224.23 216.86"/><rect class="cls-1" x="265.44" y="640.72" width="57.82" height="12.96" rx="1.92" ry="1.92" transform="translate(108.13 -304.01) rotate(10.46)"/><polygon class="cls-14" points="249.73 203.4 232.48 209.57 347.07 230.72 314.62 406.07 331.86 399.91 364.23 224.54 249.73 203.4"/><polygon class="cls-8" points="423.96 213.65 433.44 240.9 446.73 243.21 423.96 213.65"/><polygon class="cls-15" points="442.42 280 432.94 252.74 419.65 250.43 442.42 280"/><polygon class="cls-15" points="419.65 250.43 433.44 240.9 446.73 243.21 419.65 250.43"/><polygon class="cls-8" points="446.73 243.21 432.94 252.74 419.65 250.43 446.73 243.21"/><polygon class="cls-16" points="423.96 213.65 433.44 240.9 446.73 243.21 423.96 213.65"/><polygon class="cls-17" points="446.73 243.21 432.94 252.74 419.65 250.43 446.73 243.21"/><polygon class="cls-8" points="485.7 221.66 473.13 247.64 480.89 258.67 485.7 221.66"/><polygon class="cls-15" points="451.84 281.63 464.41 255.65 456.65 244.62 451.84 281.63"/><polygon class="cls-15" points="456.65 244.62 473.13 247.64 480.89 258.67 456.65 244.62"/><polygon class="cls-8" points="480.89 258.67 464.41 255.65 456.65 244.62 480.89 258.67"/><polygon class="cls-18" points="485.7 221.66 473.13 247.64 480.89 258.67 485.7 221.66"/><polygon class="cls-19" points="480.89 258.67 464.41 255.65 456.65 244.62 480.89 258.67"/><polygon class="cls-8" points="526.54 264.62 499.28 274.1 496.97 287.39 526.54 264.62"/><polygon class="cls-15" points="460.19 283.08 487.44 273.6 489.75 260.31 460.19 283.08"/><polygon class="cls-15" points="489.75 260.31 499.28 274.1 496.97 287.39 489.75 260.31"/><polygon class="cls-8" points="496.97 287.39 487.44 273.6 489.75 260.31 496.97 287.39"/><polygon class="cls-20" points="526.54 264.62 499.28 274.1 496.97 287.39 526.54 264.62"/><polygon class="cls-21" points="496.97 287.39 487.44 273.6 489.75 260.31 496.97 287.39"/><path class="cls-10" d="M113.43,269.26q9.79,5.48,19.27,11.05T152,291.37q-2.63,1.69-5.58,3.32T140.6,298q-6.63-4-13.42-7.9t-13.42-7.9L100,290.11,86.27,298v31.27q-2.63,1.69-5.58,3.32t-5.79,3.32V291.37q9.79-5.47,19.27-11.06T113.43,269.26Zm38.85,67v44.54q-9.79,5.69-19.43,11.16t-19.43,10.95L94.32,391.92q-9.53-5.48-19.11-11.16,2.63-1.47,5.58-3.16t5.79-3.16q6.63,3.79,13.42,7.63t13.42,7.84l13.74-7.9,13.74-7.9V342.86L127.17,335l-13.74-7.9-13.58,7.84q-6.63,3.84-13.27,7.63-2.84-1.68-5.79-3.21a44.5,44.5,0,0,1-5.58-3.42q9.79-5.47,19.27-11.06t19.27-11.05L133,325Z" transform="translate(-14.23 -261.34)"/><path class="cls-10" d="M239,291.69v89.08q-9.58,5.69-19.16,11.21t-19.37,11.21q-8.53-5.05-17.06-9.95t-17.06-9.63l-4.74-2.84q0-16.21.11-32.32t-0.11-32.11V291.69a2,2,0,0,1,1-.95,8,8,0,0,1,1.53-.63q4.32-2.42,8.53-4.9t8.21-4.58l19-11.37a2,2,0,0,1,1.58.26,17.77,17.77,0,0,1,1.58,1q8.84,5.27,18,10.58T239,291.69Zm-52.43-1.58-4.95,3q-2.53,1.53-5.16,3l-0.74.37-1.11.58a8,8,0,0,0-1.05.68,2.17,2.17,0,0,0-.58.58,6.53,6.53,0,0,0-.11,2.16q0.1,1.42.11,2.58v71.07l13.74,7.9,13.74,7.9q6-3.37,12-6.84T224.2,376l0.74-.32,1.11-.47a7.48,7.48,0,0,0,1.05-.58,1.74,1.74,0,0,0,.58-0.53,7.2,7.2,0,0,0,.11-2.26q-0.11-1.52-.11-2.47V298q-6.63-4-13.42-7.9l-13.74-7.9q-3.58,2.11-6.84,4.05T186.61,290.11Z" transform="translate(-14.23 -261.34)"/><path class="cls-10" d="M325.49,291.69v89.08q-9.58,5.69-19.16,11.21T287,403.19q-8.53-5.05-17.06-9.95t-17.06-9.63l-4.74-2.84q0-16.21.11-32.32t-0.11-32.11V291.69a2,2,0,0,1,1-.95,8,8,0,0,1,1.53-.63q4.32-2.42,8.53-4.9t8.21-4.58l19-11.37a2,2,0,0,1,1.58.26,17.77,17.77,0,0,1,1.58,1q8.84,5.27,18,10.58T325.49,291.69Zm-52.43-1.58-4.95,3q-2.53,1.53-5.16,3l-0.74.37-1.11.58a8,8,0,0,0-1.05.68,2.17,2.17,0,0,0-.58.58,6.53,6.53,0,0,0-.11,2.16q0.1,1.42.11,2.58v71.07l13.74,7.9,13.74,7.9q6-3.37,12-6.84T310.64,376l0.74-.32,1.11-.47a7.48,7.48,0,0,0,1.05-.58,1.74,1.74,0,0,0,.58-0.53,7.2,7.2,0,0,0,.11-2.26q-0.11-1.52-.11-2.47V298q-6.63-4-13.42-7.9L287,282.21q-3.58,2.11-6.84,4.05T273.05,290.11Z" transform="translate(-14.23 -261.34)"/></svg>