<svg id="Layer_1" data-name="Layer 1" xmlns="http://www.w3.org/2000/svg" viewBox="0 0 449.75 126.3"><defs><style>.cls-1{fill:#e74c3c;}.cls-2{fill:none;stroke:#ecf0f1;stroke-miterlimit:10;stroke-width:0.25px;}.cls-3{fill:#ecf0f1;}</style></defs><title>logoteste</title><path class="cls-1" d="M63.15,0H386.6a63.15,63.15,0,0,1,63.15,63.15h0A63.15,63.15,0,0,1,386.6,126.3H63.15A63.15,63.15,0,0,1,0,63.15H0A63.15,63.15,0,0,1,63.15,0Z"/><path class="cls-2" d="M45.6,41.79V56.93A1,1,0,0,0,46.47,58h17c7.73,0,14.14,4.91,14.14,13.47V83.66c0,8.32-6.4,13.47-14.14,13.47h-25V91.05A1.1,1.1,0,0,1,39.56,90h24a6.32,6.32,0,0,0,6.32-6.32h0V71.56a6.39,6.39,0,0,0-6.32-6.4H43.23a4.83,4.83,0,0,1-4.82-4.82V35.72a1,1,0,0,1,.91-1.08H74.75v6.07a1.1,1.1,0,0,1-1.08,1.08H45.6Z"/><path class="cls-2" d="M88.38,48.78a14.12,14.12,0,0,1,14.1-14.14H130v6.07a1.1,1.1,0,0,1-1.08,1.08H102.52a6.32,6.32,0,0,0-6.32,6.32h0V83.62a6.32,6.32,0,0,0,6.32,6.32h26.36A1.1,1.1,0,0,1,130,91v6H102.52A14.18,14.18,0,0,1,88.38,82.91V48.78Z"/><path class="cls-2" d="M146.85,67.15v28.9a1.1,1.1,0,0,1-1.08,1.08H139V39.46a4.83,4.83,0,0,1,4.82-4.82H170c7.82,0,14.14,4.91,14.14,13.39v8c0,7.32-5.24,11.31-11.31,12.89L186.1,97.05h-7.23a1.91,1.91,0,0,1-1.5-1L164.73,69.36H151.67c-2.33,0-4.07-.67-4.66-2.25h-0.17v0ZM170,62.24a6.32,6.32,0,0,0,6.32-6.32h0V48.1A6.32,6.32,0,0,0,170,41.78H148.43a1.58,1.58,0,0,0-1.58,1.58v17.3a1.58,1.58,0,0,0,1.58,1.58H170Z"/><path class="cls-2" d="M200.6,48.11v15.8a5.29,5.29,0,0,1,4-1.66H232v6.07a1.1,1.1,0,0,1-1.08,1.08H200.6V83.62a6.32,6.32,0,0,0,6.32,6.32h26.94A1.1,1.1,0,0,1,234.94,91v6h-28A14.12,14.12,0,0,1,192.8,83s0,0,0,0V48.78a14.12,14.12,0,0,1,14.1-14.14h28v6.07a1.1,1.1,0,0,1-1.08,1.08h-27A6.32,6.32,0,0,0,200.6,48.11Z"/><path class="cls-2" d="M311.17,34.64V92.27a4.83,4.83,0,0,1-4.82,4.82H256.87a13.87,13.87,0,0,1-14.26-13.46q0-.17,0-0.34V34.64h6.74a1.1,1.1,0,0,1,1.08,1.08V83.95a6.07,6.07,0,0,0,6.13,6h18.06a5.37,5.37,0,0,1-1.66-4V34.64h6.74a1.1,1.1,0,0,1,1.08,1.08V88.36a1.58,1.58,0,0,0,1.58,1.58h19.38a1.64,1.64,0,0,0,1.58-1.58V35.72a1.1,1.1,0,0,1,1.08-1.08h6.78Z"/><path class="cls-2" d="M329,48.11v15.8a5.29,5.29,0,0,1,4.08-1.66H360.4v6.07a1.1,1.1,0,0,1-1.08,1.08H329V83.62a6.32,6.32,0,0,0,6.32,6.32h26.94A1.1,1.1,0,0,1,363.31,91v6h-28a14.13,14.13,0,0,1-14.14-14.12V48.78a14.13,14.13,0,0,1,14.12-14.14h28v6.07a1.1,1.1,0,0,1-1.08,1.08H335.29A6.32,6.32,0,0,0,329,48.11h0Z"/><path class="cls-2" d="M371.13,92.27V39.46A4.83,4.83,0,0,1,376,34.64H402.6a14.12,14.12,0,0,1,14.14,14.1V82.95a14.18,14.18,0,0,1-14.14,14.1H375.95A4.83,4.83,0,0,1,371.13,92.27Zm31.47-2.33a6.32,6.32,0,0,0,6.32-6.32h0V48.11a6.32,6.32,0,0,0-6.32-6.32H380.53a1.53,1.53,0,0,0-1.58,1.48s0,0.07,0,.1v45a1.58,1.58,0,0,0,1.58,1.58H402.6Z"/><path class="cls-2" d="M45,41.19V56.33a1,1,0,0,0,.91,1.08h17c7.73,0,14.14,4.91,14.14,13.47V83.05c0,8.32-6.4,13.47-14.14,13.47h-25V90.45A1.1,1.1,0,0,1,39,89.37h24a6.32,6.32,0,0,0,6.32-6.32h0V71a6.39,6.39,0,0,0-6.32-6.4H42.6a4.83,4.83,0,0,1-4.82-4.82V35.12A1,1,0,0,1,38.69,34H74.12v6.07A1.1,1.1,0,0,1,73,41.19H45Z"/><path class="cls-2" d="M87.78,48.17A14.12,14.12,0,0,1,101.9,34h27.46v6.07a1.1,1.1,0,0,1-1.08,1.08H101.92a6.32,6.32,0,0,0-6.32,6.32h0V83.05a6.32,6.32,0,0,0,6.32,6.32h26.36a1.1,1.1,0,0,1,1.08,1.08v6.07H101.92A14.18,14.18,0,0,1,87.78,82.38V48.17Z"/><path class="cls-2" d="M146.24,66.55V95.41a1.1,1.1,0,0,1-1.08,1.08h-6.74V38.86A4.83,4.83,0,0,1,143.24,34h26.11c7.82,0,14.14,4.91,14.14,13.39V55.5c0,7.32-5.24,11.31-11.31,12.89L185.49,96.5h-7.23a1.91,1.91,0,0,1-1.5-1L164.12,68.81H151.07c-2.33,0-4.07-.67-4.66-2.25h-0.17Zm23.12-4.91a6.32,6.32,0,0,0,6.32-6.32h0V47.5a6.32,6.32,0,0,0-6.32-6.32H147.82a1.58,1.58,0,0,0-1.58,1.58V60.05a1.58,1.58,0,0,0,1.58,1.58h21.54Z"/><path class="cls-2" d="M200,47.51v15.8A5.29,5.29,0,0,1,204,61.65H231.4v6.07a1.1,1.1,0,0,1-1.08,1.08H200V83.05a6.32,6.32,0,0,0,6.32,6.32h26.94a1.1,1.1,0,0,1,1.08,1.08v6.07h-28a14.12,14.12,0,0,1-14.14-14.1s0,0,0,0V48.17a14.12,14.12,0,0,1,14.12-14.12h28v6.07a1.1,1.1,0,0,1-1.08,1.08H206.28A6.32,6.32,0,0,0,200,47.51Z"/><path class="cls-2" d="M310.6,34.05V91.68a4.83,4.83,0,0,1-4.82,4.82H256.26A13.87,13.87,0,0,1,242,83q0-.14,0-0.28V34.05h6.74a1.1,1.1,0,0,1,1.08,1.08V83.35a6.07,6.07,0,0,0,6.13,6H274a5.37,5.37,0,0,1-1.66-4V34.05h6.74a1.1,1.1,0,0,1,1.08,1.08V87.77a1.58,1.58,0,0,0,1.58,1.58h19.38a1.64,1.64,0,0,0,1.58-1.58V35.12A1.1,1.1,0,0,1,303.83,34h6.77Z"/><path class="cls-2" d="M328.36,47.51v15.8a5.29,5.29,0,0,1,4.08-1.66H359.8v6.07a1.1,1.1,0,0,1-1.08,1.08H328.36V83.05a6.32,6.32,0,0,0,6.32,6.32H361.6a1.1,1.1,0,0,1,1.08,1.08v6.07h-28A14.13,14.13,0,0,1,320.54,82.4V48.17a14.13,14.13,0,0,1,14.14-14.12h28v6.07a1.1,1.1,0,0,1-1.08,1.08H334.68A6.32,6.32,0,0,0,328.36,47.51Z"/><path class="cls-2" d="M370.53,91.66V38.86A4.83,4.83,0,0,1,375.35,34H402a14.12,14.12,0,0,1,14.14,14.1V82.35A14.18,14.18,0,0,1,402,96.49H375.35A4.83,4.83,0,0,1,370.53,91.66Zm31.52-2.33A6.32,6.32,0,0,0,408.37,83h0V47.51a6.32,6.32,0,0,0-6.32-6.32H379.92a1.53,1.53,0,0,0-1.58,1.48s0,0.07,0,.1v45a1.58,1.58,0,0,0,1.58,1.58H402v0Z"/><path class="cls-2" d="M44.35,40.58V55.72a1,1,0,0,0,.91,1.08h17c7.73,0,14.14,4.91,14.14,13.47V82.41c0,8.32-6.4,13.47-14.14,13.47h-25V89.81a1.1,1.1,0,0,1,1.08-1.08h24a6.32,6.32,0,0,0,6.32-6.32h0V70.35a6.39,6.39,0,0,0-6.32-6.4H42a4.83,4.83,0,0,1-4.82-4.82V34.51a1,1,0,0,1,.91-1.08H73.54V39.5a1.1,1.1,0,0,1-1.08,1.08H44.35Z"/><path class="cls-2" d="M87.18,47.57a14.12,14.12,0,0,1,14.1-14.14h27.48V39.5a1.1,1.1,0,0,1-1.08,1.08H101.31A6.32,6.32,0,0,0,95,46.9h0V82.41a6.32,6.32,0,0,0,6.32,6.32h26.36a1.1,1.1,0,0,1,1.08,1.08v6.07H101.31A14.18,14.18,0,0,1,87.17,81.74V47.57h0Z"/><path class="cls-2" d="M145.6,65.95V94.81a1.1,1.1,0,0,1-1.08,1.08h-6.74V38.26a4.83,4.83,0,0,1,4.82-4.82h26.11c7.82,0,14.14,4.91,14.14,13.39V54.9c0,7.32-5.24,11.31-11.31,12.89L184.85,95.9h-7.23a1.91,1.91,0,0,1-1.5-1L163.48,68.21h-13c-2.33,0-4.07-.67-4.66-2.25h-0.2Zm23.16-4.9a6.32,6.32,0,0,0,6.32-6.32h0V46.91a6.32,6.32,0,0,0-6.32-6.32H147.22a1.58,1.58,0,0,0-1.58,1.58v17.3A1.58,1.58,0,0,0,147.22,61h21.54Z"/><path class="cls-2" d="M199.36,46.9V62.7A5.29,5.29,0,0,1,203.43,61h27.36v6.07a1.1,1.1,0,0,1-1.08,1.08H199.36V82.41a6.32,6.32,0,0,0,6.32,6.32H232.6a1.1,1.1,0,0,1,1.08,1.08v6.07h-28a14.12,14.12,0,0,1-14.14-14.1s0,0,0,0V47.57a14.12,14.12,0,0,1,14.1-14.14h28V39.5a1.1,1.1,0,0,1-1.08,1.08H205.68a6.32,6.32,0,0,0-6.32,6.32h0Z"/><path class="cls-2" d="M310,33.43V91.05a4.83,4.83,0,0,1-4.82,4.82H255.66a13.87,13.87,0,0,1-14.22-13.52q0-.15,0-0.3V33.43h6.74a1.1,1.1,0,0,1,1.08,1.08V82.74a6.07,6.07,0,0,0,6.13,6h18.06a5.37,5.37,0,0,1-1.66-4V33.43h6.74a1.1,1.1,0,0,1,1.08,1.08V87.15a1.58,1.58,0,0,0,1.58,1.58H300.6a1.64,1.64,0,0,0,1.58-1.58V34.51a1.1,1.1,0,0,1,1.08-1.08H310Z"/><path class="cls-2" d="M327.76,46.9V62.7A5.29,5.29,0,0,1,331.84,61H359.2v6.07a1.1,1.1,0,0,1-1.08,1.08H327.76V82.41a6.32,6.32,0,0,0,6.32,6.32H361a1.1,1.1,0,0,1,1.08,1.08v6.07h-28A14.13,14.13,0,0,1,320,81.76V47.57a14.13,14.13,0,0,1,14.12-14.14h28V39.5A1.1,1.1,0,0,1,361,40.58H334.08a6.32,6.32,0,0,0-6.32,6.32h0Z"/><path class="cls-2" d="M369.92,91.05V38.26a4.83,4.83,0,0,1,4.82-4.82h26.69A14.12,14.12,0,0,1,415.6,47.51V81.75a14.18,14.18,0,0,1-14.14,14.14H374.75a4.83,4.83,0,0,1-4.83-4.83h0Zm31.52-2.33a6.32,6.32,0,0,0,6.32-6.32h0V46.9a6.32,6.32,0,0,0-6.32-6.32H379.32a1.53,1.53,0,0,0-1.58,1.48s0,0.07,0,.1v45a1.58,1.58,0,0,0,1.58,1.58h22.12v0Z"/><path class="cls-2" d="M43.75,40V55.12a1,1,0,0,0,.91,1.08h17c7.73,0,14.14,4.91,14.14,13.47V81.81c0,8.32-6.4,13.47-14.14,13.47h-25V89.21a1.1,1.1,0,0,1,1.08-1.08h24a6.32,6.32,0,0,0,6.32-6.32h0V69.75a6.39,6.39,0,0,0-6.32-6.4H41.42a4.83,4.83,0,0,1-4.82-4.82V33.91a1,1,0,0,1,.91-1.08H72.94V38.9A1.1,1.1,0,0,1,71.86,40H43.75Z"/><path class="cls-2" d="M86.6,47a14.12,14.12,0,0,1,14.1-14.14h27.48V38.9A1.1,1.1,0,0,1,127.1,40H100.71a6.32,6.32,0,0,0-6.32,6.32h0V81.81a6.32,6.32,0,0,0,6.32,6.32h26.36a1.1,1.1,0,0,1,1.08,1.08v6.07H100.71A14.18,14.18,0,0,1,86.6,81.14V47Z"/><path class="cls-2" d="M145,65.34V94.2A1.1,1.1,0,0,1,144,95.28h-6.74V37.65A4.83,4.83,0,0,1,142,32.83h26.11c7.82,0,14.14,4.91,14.14,13.39v8.07c0,7.32-5.24,11.31-11.31,12.89l13.31,28.11h-7.23a1.91,1.91,0,0,1-1.5-1L162.92,67.6H149.86c-2.33,0-4.07-.67-4.66-2.25H145Zm23.12-4.91a6.32,6.32,0,0,0,6.32-6.32h0V46.29A6.32,6.32,0,0,0,168.16,40H146.6A1.58,1.58,0,0,0,145,41.55v17.3a1.58,1.58,0,0,0,1.58,1.58h21.56Z"/><path class="cls-2" d="M198.76,46.3V62.1a5.29,5.29,0,0,1,4.07-1.66h27.36v6.07a1.1,1.1,0,0,1-1.08,1.08H198.76V81.81a6.32,6.32,0,0,0,6.32,6.32H232a1.1,1.1,0,0,1,1.08,1.08v6.07h-28A14.12,14.12,0,0,1,191,81.18s0,0,0,0V47a14.12,14.12,0,0,1,14.1-14.14h28V38.9A1.1,1.1,0,0,1,232,40H205.08a6.32,6.32,0,0,0-6.32,6.32h0Z"/><path class="cls-2" d="M309.36,32.83V90.46a4.83,4.83,0,0,1-4.82,4.82H255.06a13.87,13.87,0,0,1-14.22-13.52q0-.14,0-0.28V32.83h6.76a1.1,1.1,0,0,1,1.08,1.08V82.14a6.07,6.07,0,0,0,6.13,6h18.06a5.37,5.37,0,0,1-1.66-4V32.83h6.74A1.1,1.1,0,0,1,279,33.91V86.55a1.58,1.58,0,0,0,1.58,1.58H300a1.64,1.64,0,0,0,1.58-1.58V33.91a1.1,1.1,0,0,1,1.08-1.08h6.71Z"/><path class="cls-2" d="M327.16,46.3V62.1a5.29,5.29,0,0,1,4.08-1.66H358.6v6.07a1.1,1.1,0,0,1-1.08,1.08H327.16V81.81a6.32,6.32,0,0,0,6.32,6.32h26.94a1.1,1.1,0,0,1,1.08,1.08v6.07h-28a14.13,14.13,0,0,1-14.14-14.12V47a14.13,14.13,0,0,1,14.12-14.14h28V38.9A1.1,1.1,0,0,1,360.42,40H333.48a6.32,6.32,0,0,0-6.32,6.32h0Z"/><path class="cls-2" d="M369.32,90.46V37.65a4.83,4.83,0,0,1,4.82-4.82h26.69A14.12,14.12,0,0,1,415,46.93V81.15a14.18,14.18,0,0,1-14.14,14.14H374.14A4.83,4.83,0,0,1,369.32,90.46Zm31.52-2.33a6.32,6.32,0,0,0,6.32-6.32h0V46.3A6.32,6.32,0,0,0,400.84,40H378.72a1.53,1.53,0,0,0-1.58,1.48s0,0.07,0,.1v45a1.58,1.58,0,0,0,1.58,1.58h22.12Z"/><path class="cls-2" d="M43.14,39.38V54.52a1,1,0,0,0,.91,1.08h17c7.73,0,14.14,4.91,14.14,13.47V81.21c0,8.32-6.4,13.47-14.14,13.47h-25V88.61a1.1,1.1,0,0,1,1.08-1.08h24a6.32,6.32,0,0,0,6.32-6.32h0V69.15a6.39,6.39,0,0,0-6.32-6.4H40.82A4.83,4.83,0,0,1,36,57.93V33.31a1,1,0,0,1,.91-1.08H72.34V38.3a1.1,1.1,0,0,1-1.08,1.08H43.14Z"/><path class="cls-2" d="M86,46.36a14.12,14.12,0,0,1,14.1-14.14h27.48v6.07a1.1,1.1,0,0,1-1.08,1.08H100.11a6.32,6.32,0,0,0-6.32,6.32h0V81.2a6.32,6.32,0,0,0,6.32,6.32h26.36a1.1,1.1,0,0,1,1.08,1.08v6.07H100.11A14.18,14.18,0,0,1,86,80.53V46.36Z"/><path class="cls-2" d="M144.43,64.74V93.6a1.1,1.1,0,0,1-1.08,1.08H136.6V37.05a4.83,4.83,0,0,1,4.82-4.82h26.11c7.82,0,14.14,4.91,14.14,13.39v8.07c0,7.32-5.24,11.31-11.31,12.89l13.31,28.11h-7.23a1.91,1.91,0,0,1-1.5-1L162.3,67h-13c-2.33,0-4.07-.67-4.66-2.25h-0.16Zm23.12-4.91a6.32,6.32,0,0,0,6.32-6.32h0V45.69a6.32,6.32,0,0,0-6.32-6.32H146a1.58,1.58,0,0,0-1.58,1.58v17.3A1.58,1.58,0,0,0,146,59.83h21.54Z"/><path class="cls-2" d="M198.15,45.7V61.5a5.29,5.29,0,0,1,4.07-1.66H229.6v6.07A1.1,1.1,0,0,1,228.52,67H198.15V81.21a6.32,6.32,0,0,0,6.32,6.32h26.94a1.1,1.1,0,0,1,1.08,1.08v6.07h-28a14.12,14.12,0,0,1-14.14-14.1s0,0,0,0V46.36a14.12,14.12,0,0,1,14.1-14.14h28v6.07a1.1,1.1,0,0,1-1.08,1.08H204.47a6.32,6.32,0,0,0-6.32,6.32h0Z"/><path class="cls-2" d="M308.75,32.23V89.85a4.83,4.83,0,0,1-4.82,4.82H254.45a13.87,13.87,0,0,1-14.22-13.52q0-.14,0-0.28V32.23H247A1.1,1.1,0,0,1,248,33.31V81.54a6.07,6.07,0,0,0,6.13,6h18.06a5.37,5.37,0,0,1-1.66-4V32.23h6.74a1.1,1.1,0,0,1,1.08,1.08V85.95A1.58,1.58,0,0,0,280,87.53h19.38a1.64,1.64,0,0,0,1.58-1.58V33.31A1.1,1.1,0,0,1,302,32.23h6.73Z"/><path class="cls-2" d="M326.6,45.7V61.5a5.29,5.29,0,0,1,4.08-1.66H358v6.07A1.1,1.1,0,0,1,357,67H326.6V81.21a6.32,6.32,0,0,0,6.32,6.32h26.94a1.1,1.1,0,0,1,1.08,1.08v6.07h-28A14.13,14.13,0,0,1,318.8,80.56V46.36a14.13,14.13,0,0,1,14.12-14.14h28v6.07a1.1,1.1,0,0,1-1.08,1.08h-27A6.32,6.32,0,0,0,326.6,45.7Z"/><path class="cls-2" d="M368.72,89.85V37.05a4.83,4.83,0,0,1,4.82-4.82h26.69a14.12,14.12,0,0,1,14.14,14.1V80.55a14.18,14.18,0,0,1-14.14,14.14H373.54a4.83,4.83,0,0,1-4.82-4.84h0Zm31.52-2.33a6.32,6.32,0,0,0,6.32-6.32h0V45.7a6.32,6.32,0,0,0-6.32-6.32H378.11a1.53,1.53,0,0,0-1.58,1.48s0,0.07,0,.1V86a1.58,1.58,0,0,0,1.58,1.58h22.12v0Z"/><path class="cls-2" d="M42.54,38.77V53.91A1,1,0,0,0,43.45,55h17c7.73,0,14.14,4.91,14.14,13.47V80.6c0,8.32-6.4,13.47-14.14,13.47h-25v-6A1.1,1.1,0,0,1,36.58,87H60.5a6.32,6.32,0,0,0,6.32-6.32h0V68.54a6.39,6.39,0,0,0-6.32-6.4H40.21a4.83,4.83,0,0,1-4.82-4.82V32.7a1,1,0,0,1,.91-1.08H71.73v6.07a1.1,1.1,0,0,1-1.08,1.08H42.54Z"/><path class="cls-2" d="M85.37,45.76a14.12,14.12,0,0,1,14.1-14.14H127v6.07a1.1,1.1,0,0,1-1.08,1.08H99.5a6.32,6.32,0,0,0-6.32,6.32h0V80.6a6.32,6.32,0,0,0,6.32,6.32h26.36A1.1,1.1,0,0,1,126.94,88v6H99.5A14.18,14.18,0,0,1,85.36,79.91V45.76h0Z"/><path class="cls-2" d="M143.83,64.14V93a1.1,1.1,0,0,1-1.08,1.08H136V36.44a4.83,4.83,0,0,1,4.82-4.82h26.11c7.82,0,14.14,4.91,14.14,13.39v8c0,7.32-5.24,11.31-11.31,12.89l13.31,28.11h-7.23a1.91,1.91,0,0,1-1.5-1L161.71,66.36H148.65c-2.33,0-4.07-.67-4.66-2.25h-0.17v0ZM167,59.23a6.32,6.32,0,0,0,6.32-6.32h0V45.05A6.32,6.32,0,0,0,167,38.73H145.41a1.58,1.58,0,0,0-1.58,1.58v17.3a1.58,1.58,0,0,0,1.58,1.58H167v0Z"/><path class="cls-2" d="M197.6,45.05v15.8a5.29,5.29,0,0,1,4.07-1.66H229v6.07A1.1,1.1,0,0,1,228,66.34H197.6V80.56a6.32,6.32,0,0,0,6.32,6.32h26.94A1.1,1.1,0,0,1,231.94,88v6.09h-28A14.12,14.12,0,0,1,189.8,80s0,0,0,0V45.76a14.12,14.12,0,0,1,14.1-14.14h28v6.07a1.1,1.1,0,0,1-1.08,1.08h-27A6.32,6.32,0,0,0,197.6,45.05Z"/><path class="cls-2" d="M308.15,31.62V89.25a4.83,4.83,0,0,1-4.82,4.82H253.85a13.87,13.87,0,0,1-14.24-13.48q0-.16,0-0.32V31.62h6.74a1.1,1.1,0,0,1,1.08,1.08V80.93a6.07,6.07,0,0,0,6.13,6h18a5.37,5.37,0,0,1-1.66-4V31.62h6.74a1.1,1.1,0,0,1,1.08,1.08V85.34a1.58,1.58,0,0,0,1.58,1.58h19.38a1.64,1.64,0,0,0,1.58-1.58V32.7a1.1,1.1,0,0,1,1.08-1.08h6.77Z"/><path class="cls-2" d="M325.95,45.05v15.8A5.29,5.29,0,0,1,330,59.19h27.36v6.07a1.1,1.1,0,0,1-1.08,1.08H325.95V80.56a6.32,6.32,0,0,0,6.32,6.32h26.94A1.1,1.1,0,0,1,360.29,88v6.09h-28a14.13,14.13,0,0,1-14.14-14.12V45.76a14.13,14.13,0,0,1,14.12-14.14h28v6.07a1.1,1.1,0,0,1-1.08,1.08H332.27A6.32,6.32,0,0,0,325.95,45.05Z"/><path class="cls-2" d="M368.11,89.25V36.44a4.83,4.83,0,0,1,4.82-4.82H399.6a14.12,14.12,0,0,1,14.14,14.1V79.94A14.18,14.18,0,0,1,399.6,94.05H372.94A4.83,4.83,0,0,1,368.11,89.25Zm31.49-2.33a6.32,6.32,0,0,0,6.32-6.32h0V45.05a6.32,6.32,0,0,0-6.32-6.32H377.51a1.53,1.53,0,0,0-1.58,1.48s0,0.07,0,.1v45a1.58,1.58,0,0,0,1.58,1.58H399.6v0Z"/><path class="cls-2" d="M41.94,38.17V53.31a1,1,0,0,0,.91,1.08h17C67.63,54.39,74,59.3,74,67.86V80c0,8.32-6.4,13.47-14.14,13.47h-25V87.4A1.1,1.1,0,0,1,36,86.32H59.9A6.32,6.32,0,0,0,66.22,80h0V67.94a6.39,6.39,0,0,0-6.32-6.4H39.6a4.83,4.83,0,0,1-4.82-4.82V32.05A1,1,0,0,1,35.69,31H71.12v6.08A1.1,1.1,0,0,1,70,38.13H41.94v0Z"/><path class="cls-2" d="M84.76,45.15A14.12,14.12,0,0,1,98.9,31.05h27.44v6a1.1,1.1,0,0,1-1.08,1.08H98.9a6.32,6.32,0,0,0-6.32,6.32h0V80a6.32,6.32,0,0,0,6.32,6.32h26.36a1.1,1.1,0,0,1,1.08,1.08v6.07H98.9A14.18,14.18,0,0,1,84.76,79.29V45.15h0Z"/><path class="cls-2" d="M143.23,63.53V92.39a1.1,1.1,0,0,1-1.08,1.08h-6.74V35.84A4.83,4.83,0,0,1,140.23,31h26.11c7.82,0,14.14,4.91,14.14,13.39v8.07c0,7.32-5.24,11.31-11.31,12.89l13.31,28.11h-7.23a1.91,1.91,0,0,1-1.5-1L161.1,65.78h-13c-2.33,0-4.07-.67-4.66-2.25h-0.16Zm23.12-4.91a6.32,6.32,0,0,0,6.32-6.32h0V44.48a6.32,6.32,0,0,0-6.32-6.32H144.8a1.58,1.58,0,0,0-1.58,1.58V57.05a1.58,1.58,0,0,0,1.58,1.58h21.55Z"/><path class="cls-2" d="M197,44.49v15.8A5.29,5.29,0,0,1,201,58.63h27.36V64.7a1.1,1.1,0,0,1-1.08,1.08H197V80a6.32,6.32,0,0,0,6.32,6.32h26.94a1.1,1.1,0,0,1,1.08,1.08v6.07h-28a14.12,14.12,0,0,1-14.14-14.1s0,0,0,0V45.15a14.12,14.12,0,0,1,14.12-14.1h28v6a1.1,1.1,0,0,1-1.08,1.08H203.27a6.32,6.32,0,0,0-6.32,6.32v0Z"/><path class="cls-2" d="M307.55,31.05v57.6a4.83,4.83,0,0,1-4.82,4.82H253.25A13.87,13.87,0,0,1,239,80q0-.14,0-0.28V31.05h6.74a1.1,1.1,0,0,1,1.08,1.08V80.36a6.07,6.07,0,0,0,6.13,6H271a5.37,5.37,0,0,1-1.66-4V31.05h6.74a1.1,1.1,0,0,1,1.08,1V84.69a1.58,1.58,0,0,0,1.58,1.58h19.38a1.64,1.64,0,0,0,1.58-1.58V32.05A1.1,1.1,0,0,1,300.82,31h6.74v0.08Z"/><path class="cls-2" d="M325.35,44.49v15.8a5.29,5.29,0,0,1,4.08-1.66h27.36V64.7a1.1,1.1,0,0,1-1.08,1.08H325.35V80a6.32,6.32,0,0,0,6.32,6.32H358.6a1.1,1.1,0,0,1,1.08,1.08v6.07h-28a14.13,14.13,0,0,1-14.14-14.12V45.15a14.13,14.13,0,0,1,14.13-14.1h28v6a1.1,1.1,0,0,1-1.08,1.08H331.67a6.32,6.32,0,0,0-6.32,6.32v0Z"/><path class="cls-2" d="M367.51,88.65V35.84A4.83,4.83,0,0,1,372.33,31H399a14.12,14.12,0,0,1,14.14,14.1V79.34A14.18,14.18,0,0,1,399,93.48H372.33A4.83,4.83,0,0,1,367.51,88.65ZM399,86.32A6.32,6.32,0,0,0,405.35,80h0V44.49A6.32,6.32,0,0,0,399,38.17H376.91a1.53,1.53,0,0,0-1.58,1.48s0,0.07,0,.1v45a1.58,1.58,0,0,0,1.58,1.58H399Z"/><path class="cls-2" d="M41.33,37.57V52.71a1,1,0,0,0,.91,1.08h17c7.73,0,14.14,4.91,14.14,13.47V79.4c0,8.32-6.4,13.47-14.14,13.47h-25V86.8a1.1,1.1,0,0,1,1.08-1.08h24a6.32,6.32,0,0,0,6.32-6.32h0V67.34a6.39,6.39,0,0,0-6.32-6.4H39a4.83,4.83,0,0,1-4.82-4.82V31.5a1,1,0,0,1,.91-1.08H70.52v6.07a1.1,1.1,0,0,1-1.08,1.08H41.33Z"/><path class="cls-2" d="M84.16,44.55a14.12,14.12,0,0,1,14.1-14.14h27.48v6.07a1.1,1.1,0,0,1-1.08,1.08H98.3A6.32,6.32,0,0,0,92,43.88h0V79.39a6.32,6.32,0,0,0,6.32,6.32h26.36a1.1,1.1,0,0,1,1.08,1.08v6.07H98.3A14.18,14.18,0,0,1,84.16,78.72V44.55Z"/><path class="cls-2" d="M142.6,62.93V91.79a1.1,1.1,0,0,1-1.08,1.08H134.8V35.24a4.83,4.83,0,0,1,4.82-4.82h26.11c7.82,0,14.14,4.91,14.14,13.39v8.07c0,7.32-5.24,11.31-11.31,12.89l13.31,28.11H174.6a1.91,1.91,0,0,1-1.5-1l-12.6-26.7H147.44c-2.33,0-4.07-.67-4.66-2.25H142.6Zm23.14-4.88a6.32,6.32,0,0,0,6.32-6.32h0V43.91a6.32,6.32,0,0,0-6.32-6.32H144.2a1.58,1.58,0,0,0-1.6,1.56h0v17.3a1.58,1.58,0,0,0,1.56,1.6h21.58Z"/><path class="cls-2" d="M196.34,43.89v15.8A5.29,5.29,0,0,1,200.41,58h27.36v6a1.1,1.1,0,0,1-1.08,1.08H196.34V79.35a6.32,6.32,0,0,0,6.32,6.32H229.6a1.1,1.1,0,0,1,1.08,1.08v6.07h-28a14.12,14.12,0,0,1-14.14-14.1s0,0,0,0V44.55a14.12,14.12,0,0,1,14.1-14.14h28v6.07a1.1,1.1,0,0,1-1.08,1.08H202.66a6.32,6.32,0,0,0-6.32,6.32h0Z"/><path class="cls-2" d="M306.94,30.41V88.05a4.83,4.83,0,0,1-4.82,4.82H252.6a13.87,13.87,0,0,1-14.18-13.56q0-.13,0-0.26V30.41h6.74a1.1,1.1,0,0,1,1.08,1.08V79.72a6.07,6.07,0,0,0,6.13,6h18.06a5.37,5.37,0,0,1-1.66-4V30.41h6.74a1.1,1.1,0,0,1,1.08,1.08V84.13a1.58,1.58,0,0,0,1.58,1.58h19.38a1.64,1.64,0,0,0,1.58-1.58V31.5a1.1,1.1,0,0,1,1.08-1.08h6.73Z"/><path class="cls-2" d="M324.74,43.89v15.8A5.29,5.29,0,0,1,328.82,58h27.36v6a1.1,1.1,0,0,1-1.08,1.08H324.74V79.35a6.32,6.32,0,0,0,6.32,6.32H358a1.1,1.1,0,0,1,1.08,1.08v6.07h-28A14.13,14.13,0,0,1,316.94,78.7V44.55a14.13,14.13,0,0,1,14.12-14.14h28v6.07A1.1,1.1,0,0,1,358,37.56H331.06a6.32,6.32,0,0,0-6.32,6.32h0Z"/><path class="cls-2" d="M366.91,88.05V35.24a4.83,4.83,0,0,1,4.82-4.82h26.69A14.12,14.12,0,0,1,412.6,44.48V78.73a14.18,14.18,0,0,1-14.14,14.14H371.73A4.83,4.83,0,0,1,366.91,88.05Zm31.52-2.33a6.32,6.32,0,0,0,6.32-6.32h0V43.89a6.32,6.32,0,0,0-6.32-6.32H376.3A1.53,1.53,0,0,0,374.72,39s0,0.07,0,.1v45a1.58,1.58,0,0,0,1.58,1.58h22.13Z"/><path class="cls-2" d="M40.73,37V52.05a1,1,0,0,0,.91,1.08h17c7.73,0,14.14,4.91,14.14,13.47V78.74c0,8.32-6.4,13.47-14.14,13.47h-25V86.14a1.1,1.1,0,0,1,1.08-1.08h24A6.32,6.32,0,0,0,65,78.74h0v-12a6.39,6.39,0,0,0-6.32-6.4H38.4a4.83,4.83,0,0,1-4.82-4.82V30.89a1,1,0,0,1,.91-1.08H69.92v6.07A1.1,1.1,0,0,1,68.84,37H40.73Z"/><path class="cls-2" d="M83.6,43.95A14.12,14.12,0,0,1,97.7,29.81h27.48v6.07A1.1,1.1,0,0,1,124.1,37H97.69a6.32,6.32,0,0,0-6.32,6.32h0V78.79a6.32,6.32,0,0,0,6.32,6.32h26.36a1.1,1.1,0,0,1,1.08,1.08v6.07H97.69A14.18,14.18,0,0,1,83.6,78.13V43.95Z"/><path class="cls-2" d="M142,62.33V91.19a1.1,1.1,0,0,1-1.08,1.08H134.2V34.63A4.83,4.83,0,0,1,139,29.81h26.11c7.82,0,14.14,4.91,14.14,13.39v8.07c0,7.32-5.24,11.31-11.31,12.89l13.31,28.11H174a1.91,1.91,0,0,1-1.5-1L159.9,64.57H146.84c-2.33,0-4.07-.67-4.66-2.25H142Zm23.12-4.91a6.32,6.32,0,0,0,6.32-6.32h0V43.28A6.32,6.32,0,0,0,165.14,37H143.6A1.58,1.58,0,0,0,142,38.54v17.3a1.58,1.58,0,0,0,1.58,1.58h21.54Z"/><path class="cls-2" d="M195.74,43.28V59.05a5.29,5.29,0,0,1,4.07-1.66h27.36v6.07a1.1,1.1,0,0,1-1.08,1.08H195.74V78.76a6.32,6.32,0,0,0,6.32,6.32H229a1.1,1.1,0,0,1,1.08,1.08v6.07h-28a14.12,14.12,0,0,1-14.14-14.1s0,0,0,0V43.95A14.12,14.12,0,0,1,202,29.81h28v6.07A1.1,1.1,0,0,1,229,37H202.06A6.32,6.32,0,0,0,195.74,43.28Z"/><path class="cls-2" d="M306.34,29.81V87.44a4.83,4.83,0,0,1-4.82,4.82H252a13.87,13.87,0,0,1-14.22-13.52q0-.14,0-0.28V29.81h6.78a1.1,1.1,0,0,1,1.08,1.08V79.12a6.07,6.07,0,0,0,6.13,6h18.06a5.37,5.37,0,0,1-1.66-4V29.81h6.74A1.1,1.1,0,0,1,276,30.89V83.53a1.58,1.58,0,0,0,1.58,1.58H297a1.64,1.64,0,0,0,1.58-1.58V30.89a1.1,1.1,0,0,1,1.08-1.08h6.69Z"/><path class="cls-2" d="M324.14,43.28V59.05a5.29,5.29,0,0,1,4.08-1.66H355.6v6.07a1.1,1.1,0,0,1-1.08,1.08H324.14V78.76a6.32,6.32,0,0,0,6.32,6.32H357.4a1.1,1.1,0,0,1,1.08,1.08v6.07h-28a14.13,14.13,0,0,1-14.14-14.12V43.95a14.13,14.13,0,0,1,14.12-14.14h28v6.07A1.1,1.1,0,0,1,357.4,37H330.46a6.32,6.32,0,0,0-6.32,6.32h0Z"/><path class="cls-2" d="M366.3,87.44V34.63a4.83,4.83,0,0,1,4.82-4.82h26.69A14.12,14.12,0,0,1,412,43.91V78.13a14.18,14.18,0,0,1-14.14,14.14H371.13a4.83,4.83,0,0,1-4.83-4.83h0Zm31.52-2.33a6.32,6.32,0,0,0,6.32-6.32h0V43.28A6.32,6.32,0,0,0,397.82,37H375.7a1.53,1.53,0,0,0-1.58,1.48s0,0.07,0,.1v45a1.58,1.58,0,0,0,1.58,1.58h22.12Z"/><path class="cls-2" d="M40.13,36.36V51.5A1,1,0,0,0,41,52.58h17c7.73,0,14.14,4.91,14.14,13.47V78.19c0,8.32-6.4,13.47-14.14,13.47h-25V85.59a1.1,1.1,0,0,1,1.08-1.08h24a6.32,6.32,0,0,0,6.32-6.32h0V66.13a6.39,6.39,0,0,0-6.32-6.4H37.8A4.83,4.83,0,0,1,33,54.91V30.29a1,1,0,0,1,.91-1.08H69.32v6.07a1.1,1.1,0,0,1-1.08,1.08H40.13Z"/><path class="cls-2" d="M83,43.34A14.12,14.12,0,0,1,97,29.2h27.48v6.07a1.1,1.1,0,0,1-1.08,1.08H97.09a6.32,6.32,0,0,0-6.32,6.32h0V78.18a6.32,6.32,0,0,0,6.32,6.32h26.36a1.1,1.1,0,0,1,1.08,1.08v6.07H97.09A14.18,14.18,0,0,1,82.95,77.51V43.34h0Z"/><path class="cls-2" d="M141.41,61.72V90.58a1.1,1.1,0,0,1-1.08,1.08H133.6V34.05a4.83,4.83,0,0,1,4.82-4.82h26.11c7.82,0,14.14,4.91,14.14,13.39v8.07c0,7.32-5.24,11.31-11.31,12.89l13.31,28.11h-7.23a1.91,1.91,0,0,1-1.5-1L159.3,64H146.24c-2.33,0-4.07-.67-4.66-2.25h-0.17v0Zm23.12-4.91a6.32,6.32,0,0,0,6.32-6.32h0V42.67a6.32,6.32,0,0,0-6.32-6.32H143a1.58,1.58,0,0,0-1.58,1.58v17.3A1.58,1.58,0,0,0,143,56.81h21.54Z"/><path class="cls-2" d="M195.14,42.68v15.8a5.29,5.29,0,0,1,4.07-1.66H226.6v6.07A1.1,1.1,0,0,1,225.52,64H195.14V78.19a6.32,6.32,0,0,0,6.32,6.32H228.4a1.1,1.1,0,0,1,1.08,1.08v6.07h-28a14.12,14.12,0,0,1-14.14-14.1s0,0,0,0V43.34a14.12,14.12,0,0,1,14.1-14.14h28v6.07a1.1,1.1,0,0,1-1.08,1.08H201.46a6.32,6.32,0,0,0-6.32,6.32h0Z"/><path class="cls-2" d="M305.74,29.21V86.84a4.83,4.83,0,0,1-4.82,4.82H251.44a13.87,13.87,0,0,1-14.22-13.52q0-.14,0-0.28V29.21H244A1.1,1.1,0,0,1,245,30.29V78.52a6.07,6.07,0,0,0,6.13,6h18.06a5.37,5.37,0,0,1-1.66-4V29.21h6.74a1.1,1.1,0,0,1,1.08,1.08V82.93A1.58,1.58,0,0,0,277,84.51h19.38a1.64,1.64,0,0,0,1.58-1.58V30.29A1.1,1.1,0,0,1,299,29.21h6.73Z"/><path class="cls-2" d="M323.53,42.68v15.8a5.29,5.29,0,0,1,4.08-1.66H355v6.07A1.1,1.1,0,0,1,353.89,64H323.53V78.19a6.32,6.32,0,0,0,6.32,6.32h27a1.1,1.1,0,0,1,1.08,1.08v6.07h-28a14.13,14.13,0,0,1-14.14-14.12V43.34A14.13,14.13,0,0,1,329.86,29.2h28v6.07a1.1,1.1,0,0,1-1.08,1.08H329.86a6.32,6.32,0,0,0-6.33,6.31v0Z"/><path class="cls-2" d="M365.7,86.84V34.05a4.83,4.83,0,0,1,4.82-4.82h26.69a14.12,14.12,0,0,1,14.14,14.1V77.55a14.18,14.18,0,0,1-14.14,14.14H370.52a4.83,4.83,0,0,1-4.82-4.84h0Zm31.52-2.33a6.32,6.32,0,0,0,6.32-6.32h0V42.68a6.32,6.32,0,0,0-6.32-6.32H375.1a1.53,1.53,0,0,0-1.58,1.48s0,0.07,0,.1v45a1.58,1.58,0,0,0,1.58,1.58h22.12Z"/><path class="cls-2" d="M39.52,35.76V50.9A1,1,0,0,0,40.43,52h17c7.73,0,14.14,4.91,14.14,13.47V77.59c0,8.32-6.4,13.47-14.14,13.47h-25V85a1.1,1.1,0,0,1,1.08-1.08h24a6.32,6.32,0,0,0,6.32-6.32h0V65.53a6.39,6.39,0,0,0-6.32-6.4H37.19a4.83,4.83,0,0,1-4.82-4.82V29.68a1,1,0,0,1,.91-1.08H68.71v6.07a1.1,1.1,0,0,1-1.08,1.08H39.52Z"/><path class="cls-2" d="M82.35,42.74A14.12,14.12,0,0,1,96.45,28.6h27.48v6.07a1.1,1.1,0,0,1-1.08,1.08H96.49a6.32,6.32,0,0,0-6.32,6.32h0V77.58a6.32,6.32,0,0,0,6.32,6.32h26.36A1.1,1.1,0,0,1,123.93,85v6.07H96.49A14.18,14.18,0,0,1,82.35,76.91V42.74Z"/><path class="cls-2" d="M140.81,61.12V90a1.1,1.1,0,0,1-1.08,1.08H133V33.43a4.83,4.83,0,0,1,4.82-4.82h26.11c7.82,0,14.14,4.91,14.14,13.39v8c0,7.32-5.24,11.31-11.31,12.89l13.31,28.11h-7.23a1.91,1.91,0,0,1-1.5-1L158.69,63.36H145.6c-2.33,0-4.07-.67-4.66-2.25h-0.13Zm23.12-4.91a6.32,6.32,0,0,0,6.32-6.32h0V42.05a6.32,6.32,0,0,0-6.32-6.32H142.39a1.58,1.58,0,0,0-1.58,1.58v17.3a1.58,1.58,0,0,0,1.58,1.58h21.54v0Z"/><path class="cls-2" d="M194.53,42.05v15.8a5.29,5.29,0,0,1,4.07-1.66H226v6.07a1.1,1.1,0,0,1-1.08,1.08H194.53V77.56a6.32,6.32,0,0,0,6.32,6.32h27A1.1,1.1,0,0,1,228.88,85v6.09h-28A14.12,14.12,0,0,1,186.74,77s0,0,0,0V42.74a14.12,14.12,0,0,1,14.1-14.14h28v6.07a1.1,1.1,0,0,1-1.08,1.08h-27A6.32,6.32,0,0,0,194.53,42.05Z"/><path class="cls-2" d="M305.13,28.6V86.23a4.83,4.83,0,0,1-4.82,4.82H250.83A13.87,13.87,0,0,1,236.6,77.54q0-.15,0-0.29V28.6h6.74a1.1,1.1,0,0,1,1.08,1.08V77.91a6.07,6.07,0,0,0,6.13,6h18a5.37,5.37,0,0,1-1.66-4V28.6h6.74a1.1,1.1,0,0,1,1.08,1.08V82.32a1.58,1.58,0,0,0,1.58,1.58h19.38a1.64,1.64,0,0,0,1.58-1.58V29.68a1.1,1.1,0,0,1,1.08-1.08h6.75Z"/><path class="cls-2" d="M322.93,42.05v15.8A5.29,5.29,0,0,1,327,56.19h27.36v6.07a1.1,1.1,0,0,1-1.08,1.08H322.93V77.56a6.32,6.32,0,0,0,6.32,6.32h26.94A1.1,1.1,0,0,1,357.27,85v6.09h-28a14.13,14.13,0,0,1-14.14-14.12V42.74A14.13,14.13,0,0,1,329.25,28.6h28v6.07a1.1,1.1,0,0,1-1.08,1.08H329.25A6.32,6.32,0,0,0,322.93,42.05Z"/><path class="cls-2" d="M365.09,86.23V33.43a4.83,4.83,0,0,1,4.82-4.82H396.6a14.12,14.12,0,0,1,14.14,14.1V76.93A14.18,14.18,0,0,1,396.6,91.05H369.92A4.83,4.83,0,0,1,365.09,86.23ZM396.6,83.9a6.32,6.32,0,0,0,6.32-6.32h0V42.05a6.32,6.32,0,0,0-6.32-6.32H374.49a1.53,1.53,0,0,0-1.58,1.48s0,0.07,0,.1v45a1.58,1.58,0,0,0,1.58,1.58H396.6Z"/><path class="cls-3" d="M46.16,42.39V57.52a1,1,0,0,0,.91,1.08h17c7.73,0,14.14,4.91,14.14,13.47V84.21c0,8.32-6.4,13.47-14.14,13.47h-25V91.61a1.1,1.1,0,0,1,1.08-1.08h24a6.32,6.32,0,0,0,6.32-6.32h0V72.16a6.39,6.39,0,0,0-6.32-6.4H43.83A4.83,4.83,0,0,1,39,60.94V36.32a1,1,0,0,1,.91-1.08H75.35v6.07a1.1,1.1,0,0,1-1.08,1.08H46.16Z"/><path class="cls-3" d="M89,49.38a14.13,14.13,0,0,1,14.12-14.14H130.6v6.07a1.1,1.1,0,0,1-1.08,1.08H103.13a6.32,6.32,0,0,0-6.32,6.32h0V84.22a6.32,6.32,0,0,0,6.32,6.32h26.36a1.1,1.1,0,0,1,1.08,1.08v6.07H103.13A14.18,14.18,0,0,1,89,83.55V49.38h0Z"/><path class="cls-3" d="M147.45,67.76V96.62a1.1,1.1,0,0,1-1.08,1.08H139.6V40.05a4.83,4.83,0,0,1,4.82-4.82H170.6c7.82,0,14.14,4.91,14.14,13.39v8.07c0,7.32-5.24,11.31-11.31,12.89l13.31,28.11h-7.23a1.91,1.91,0,0,1-1.5-1L165.33,70.05H152.27c-2.33,0-4.07-.66-4.66-2.25h-0.17v0Zm23.15-4.91a6.32,6.32,0,0,0,6.32-6.32h0V48.71a6.32,6.32,0,0,0-6.32-6.32H149A1.58,1.58,0,0,0,147.45,44v17.3A1.58,1.58,0,0,0,149,62.85H170.6Z"/><path class="cls-3" d="M201.17,48.71v15.8a5.29,5.29,0,0,1,4.07-1.66H232.6v6.07A1.1,1.1,0,0,1,231.52,70H201.17V84.22a6.32,6.32,0,0,0,6.32,6.32h26.94a1.1,1.1,0,0,1,1.08,1.08v6.07h-28a14.12,14.12,0,0,1-14.14-14.1s0,0,0,0V49.38a14.12,14.12,0,0,1,14.1-14.14h28v6.07a1.1,1.1,0,0,1-1.08,1.08H207.49a6.32,6.32,0,0,0-6.32,6.32h0Z"/><path class="cls-3" d="M311.77,35.24V92.87a4.83,4.83,0,0,1-4.82,4.82H257.47a13.87,13.87,0,0,1-14.22-13.52q0-.14,0-0.28V35.24H250a1.1,1.1,0,0,1,1.08,1.08V84.55a6.07,6.07,0,0,0,6.13,6h18.07a5.37,5.37,0,0,1-1.66-4V35.24h6.74a1.1,1.1,0,0,1,1.08,1.08V89A1.58,1.58,0,0,0,283,90.54h19.38A1.64,1.64,0,0,0,304,89V36.32a1.1,1.1,0,0,1,1.08-1.08h6.72Z"/><path class="cls-3" d="M329.6,48.71v15.8a5.3,5.3,0,0,1,4-1.66H361v6.07A1.1,1.1,0,0,1,359.88,70H329.6V84.22a6.32,6.32,0,0,0,6.32,6.32h26.94a1.1,1.1,0,0,1,1.08,1.08v6.07h-28A14.13,14.13,0,0,1,321.8,83.57V49.38a14.13,14.13,0,0,1,14.12-14.14h28v6.07a1.1,1.1,0,0,1-1.08,1.08h-27A6.32,6.32,0,0,0,329.6,48.71Z"/><path class="cls-3" d="M371.73,92.87V40.05a4.83,4.83,0,0,1,4.82-4.82h26.69a14.12,14.12,0,0,1,14.14,14.1V83.55a14.18,14.18,0,0,1-14.14,14.14H376.6a4.83,4.83,0,0,1-4.87-4.79v0Zm31.52-2.33a6.32,6.32,0,0,0,6.32-6.32h0V48.71a6.32,6.32,0,0,0-6.32-6.32H381.13a1.53,1.53,0,0,0-1.58,1.48s0,0.07,0,.1V89a1.58,1.58,0,0,0,1.58,1.58h22.12Z"/></svg>