<svg id="Layer_1" data-name="Layer 1" xmlns="http://www.w3.org/2000/svg" xmlns:xlink="http://www.w3.org/1999/xlink" viewBox="0 0 101.69 24.42"><defs><style>.cls-1,.cls-11{fill:#fff;stroke-miterlimit:10;stroke-width:0.5px;}.cls-1{stroke:#122f51;}.cls-2{fill:#122f51;}.cls-3{fill:url(#linear-gradient);}.cls-4{fill:url(#linear-gradient-2);}.cls-5{fill:url(#linear-gradient-3);}.cls-6{fill:url(#linear-gradient-4);}.cls-7{fill:url(#linear-gradient-5);}.cls-8{fill:url(#linear-gradient-6);}.cls-9{fill:url(#linear-gradient-7);}.cls-10{fill:url(#linear-gradient-8);}.cls-11{stroke:#fff;}</style><linearGradient id="linear-gradient" x1="250.13" y1="427.58" x2="259.69" y2="418.02" gradientUnits="userSpaceOnUse"><stop offset="0" stop-color="#619acc"/><stop offset="1" stop-color="#fff" stop-opacity="0"/></linearGradient><linearGradient id="linear-gradient-2" x1="263.47" y1="427.39" x2="273.08" y2="417.78" xlink:href="#linear-gradient"/><linearGradient id="linear-gradient-3" x1="283.87" y1="427.39" x2="293.48" y2="417.78" xlink:href="#linear-gradient"/><linearGradient id="linear-gradient-4" x1="299.89" y1="429.78" x2="313.76" y2="415.91" xlink:href="#linear-gradient"/><linearGradient id="linear-gradient-5" x1="320.02" y1="427.39" x2="329.63" y2="417.78" xlink:href="#linear-gradient"/><linearGradient id="linear-gradient-6" x1="333.66" y1="427.62" x2="346.79" y2="414.5" xlink:href="#linear-gradient"/><linearGradient id="linear-gradient-7" x1="277.79" y1="418.24" x2="278.06" y2="417.96" xlink:href="#linear-gradient"/><linearGradient id="linear-gradient-8" x1="273.44" y1="427.2" x2="283.35" y2="417.29" xlink:href="#linear-gradient"/></defs><title>logoD</title><path class="cls-1" d="M346.42,409.29l-2.72,1.48q-1,.56-1.9,1.11l-0.86.54v2.78l-1.52-.88-0.89-.51-3.23,1.77c-0.78.43-1.57,0.88-2.37,1.35l-1.06.64h0q-1.36-.81-2.79-1.62t-2.78-1.62l-0.32-.16a2.14,2.14,0,0,0-1.67-.23L324,414a4.85,4.85,0,0,0-.62.34l-2.93,1.7-1.39.8s-5.3,2.64-5.43,3.18a3.07,3.07,0,0,0-.05,1v3.25l-1.25.71-1.22.7-1.21-.7-2.13-1.23-0.89-.51-0.9.49q-1.12.61-2.21,1.24l-1.21.7-1.21-.7-1.26-.74V420l-4.56-2.5-2.64-1.53q-1.41-.79-2.78-1.62l-0.32-.16a2.14,2.14,0,0,0-1.67-.23l-0.28.1a4.85,4.85,0,0,0-.62.34l-2.93,1.7-0.56.32v-3.64l-8.43,4.82-0.05,0-3-1.74q-1.52-.89-3.08-1.76l-0.93-.52-0.91.54q-1.5.89-3,1.75t-2.9,1.69c-0.11-.07-0.21-0.15-0.33-0.21s-0.43-.23-0.65-0.36l-2.29-1.36-2.29-1.31-0.9-.5-0.9.51c-1,.58-2.07,1.17-3.17,1.82l-4,2.31,0.08,1.15c0,0.26,0,.53,0,0.81s0,0.73,0,1.1v1l0.89,0.54,1.57,0.93-0.54.29a8.88,8.88,0,0,0-1.11.68l-2.35,1.7L248,428c1,0.57,2,1.14,3,1.72s2,1.18,3.08,1.77L255,432l0.91-.52,3-1.75,2.87-1.66,2.54,1.48,3.09,1.77,0.93,0.53,0.92-.55,3-1.76,1.72-1v4.29l5.48-3.13v-8.2l1.21-.68,0.08,0v6.49l0.95,0.53q1.53,0.85,3,1.73l3,1.75,0.91,0.52,0.91-.51,3.07-1.73c0.95-.54,2.89-1.55,2.89-1.55l3.06,1.78q1.53,0.89,3.09,1.77l0.89,0.5,0.89-.49q1.13-.61,2.2-1.26l1.18-.69,1.2,0.7q1.09,0.64,2.21,1.25l0.9,0.49,0.9-.51,3-1.76,3-1.78h0c0.91,0.51,1.81,1,2.7,1.54l3,1.75,0.91,0.52,0.91-.51,3.07-1.73,2.66-1.55,0.77,0.46,0.8,0.45,2.24,1.28,2.24,1.33,0.94,0.56,4-2.31L345.5,428l0.92-.53v-8.28q0-1.73,0-3.48c0-1.13,0-2.22,0-3.34v-3.1Z" transform="translate(-244.98 -408.87)"/><path class="cls-2" d="M254.95,415.77l2.27,1.3,2.27,1.35q0.38,0.23.77,0.43a4.32,4.32,0,0,1,.72.46l-0.89.48c-0.29.17-.58,0.34-0.85,0.51q-1.1-.6-2.17-1.22l-2.12-1.22q-1.09.6-2.15,1.22t-2.18,1.22a2.79,2.79,0,0,0,.32.22l0.32,0.18q1.13,0.68,2.27,1.32t2.27,1.32l2,1.1q1,0.54,2,1.14l0.62,0.37,0.62,0.37-3,1.74-3,1.74q-1.54-.86-3-1.74t-3-1.74a7,7,0,0,1,.88-0.54c0.31-.16.61-0.33,0.91-0.51q1,0.63,2.12,1.24l2.17,1.25c0.4-.26.81-0.5,1.22-0.72s0.82-.47,1.22-0.72a6.09,6.09,0,0,0-.52-0.32,5.6,5.6,0,0,1-.52-0.32q-1.88-1.09-3.76-2.15t-3.76-2.18c0-.35,0-0.7,0-1a9.57,9.57,0,0,0,0-1l3.06-1.78Q253.4,416.63,254.95,415.77Z" transform="translate(-244.98 -408.87)"/><path class="cls-2" d="M268.26,415.55q1.54,0.86,3.05,1.74l3,1.74q-0.45.3-.88,0.54l-0.91.51-2.12-1.22-2.12-1.22q-1.1.6-2.17,1.23L264,420.13v4.93l0.55,0.3,0.55,0.3q0.79,0.45,1.59.95t1.59,0.95l2.17-1.24q1.07-.62,2.12-1.25l1.79,1-3,1.77-3,1.77-3.08-1.77-3-1.77v-7q1.51-.9,3-1.77T268.26,415.55Z" transform="translate(-244.98 -408.87)"/><path class="cls-2" d="M294.74,419l-3,1.77-3.05,1.77-0.86-.52-0.89-.52,2.12-1.24q1.07-.61,2.12-1.24-0.6-.38-1.22-0.72l-1.22-.67q-1.1.6-2.17,1.23l-2.17,1.26v4.93l2.17,1.25q1.07,0.61,2.12,1.24l2.14-1.24,2.14-1.25,1.79,1q-1.51.9-3,1.76l-3.05,1.73-3-1.74q-1.51-.88-3.05-1.74v-7l2.62-1.52,2.66-1.52,0.37-.24a3,3,0,0,1,.37-0.21,0.3,0.3,0,0,1,.24,0l0.31,0.16q1.39,0.83,2.81,1.64T294.74,419Z" transform="translate(-244.98 -408.87)"/><path class="cls-2" d="M298.24,420.4v4.88l2.17,1.26q1.07,0.63,2.17,1.23l2.12-1.22q1.07-.62,2.17-1.22l2.12,1.22,2.12,1.22q1.09-.6,2.17-1.22t2.17-1.22V421c0-.1,0-0.21,0-0.33a0.6,0.6,0,0,1,0-.26,0.21,0.21,0,0,1,.17-0.15,1.38,1.38,0,0,0,.28-0.15c0.22-.12.44-0.25,0.65-0.39a3.73,3.73,0,0,1,.7-0.36v7l-3.05,1.79-3,1.75q-1.09-.6-2.17-1.22l-2.12-1.22q-1.09.6-2.14,1.22t-2.14,1.22q-1.55-.86-3.06-1.75l-3.06-1.79v-7l0.91,0.49A8.47,8.47,0,0,1,298.24,420.4Z" transform="translate(-244.98 -408.87)"/><path class="cls-2" d="M330.89,419l-3,1.77-3.05,1.77-0.86-.52-0.89-.52,2.12-1.24q1.07-.61,2.12-1.24-0.6-.38-1.22-0.72l-1.22-.67q-1.1.6-2.17,1.23l-2.17,1.26v4.93l2.17,1.25q1.07,0.61,2.12,1.24l2.14-1.24,2.14-1.25,1.79,1q-1.51.9-3,1.76l-3.05,1.73-3-1.74q-1.51-.88-3.05-1.74v-7l2.62-1.52,2.66-1.52,0.37-.24a3,3,0,0,1,.37-0.21,0.3,0.3,0,0,1,.24,0l0.31,0.16q1.39,0.83,2.81,1.64T330.89,419Z" transform="translate(-244.98 -408.87)"/><path class="cls-2" d="M342.78,413.33q0.81-.52,1.79-1v0.05q0,1.58,0,3.31t0,3.46v7.22l-3.06,1.77-3.06,1.77-2.27-1.35-2.27-1.3-0.79-.45-0.75-.45v-7l1.49-.9q1.16-.68,2.32-1.32l2.32-1.27,2.1,1.22q1.05,0.62,2.18,1.22v-4.93Zm-4.33,4.53-2.14,1.24-2.14,1.24v4.93l2.17,1.26q1.07,0.63,2.17,1.23,1-.63,2.12-1.25l2.17-1.24v-4.93l-2.17-1.26Q339.54,418.46,338.44,417.86Z" transform="translate(-244.98 -408.87)"/><path class="cls-2" d="M277.9,418.13l0.19-.13-0.34.2A0.89,0.89,0,0,0,277.9,418.13Z" transform="translate(-244.98 -408.87)"/><path class="cls-2" d="M280.54,416.6l-0.49.29-0.81.46-1.15.66-0.19.13a0.89,0.89,0,0,1-.15.06l-1.93,1.11v10.27l1.79-1v-8.2l2.17-1.22q1.07-.59,2.12-1.27v-2Z" transform="translate(-244.98 -408.87)"/><path class="cls-3" d="M254.95,415.77l2.27,1.3,2.27,1.35q0.38,0.23.77,0.43a4.32,4.32,0,0,1,.72.46l-0.89.48c-0.29.17-.58,0.34-0.85,0.51q-1.1-.6-2.17-1.22l-2.12-1.22q-1.09.6-2.15,1.22t-2.18,1.22a2.79,2.79,0,0,0,.32.22l0.32,0.18q1.13,0.68,2.27,1.32t2.27,1.32l2,1.1q1,0.54,2,1.14l0.62,0.37,0.62,0.37-3,1.74-3,1.74q-1.54-.86-3-1.74t-3-1.74a7,7,0,0,1,.88-0.54c0.31-.16.61-0.33,0.91-0.51q1,0.63,2.12,1.24l2.17,1.25c0.4-.26.81-0.5,1.22-0.72s0.82-.47,1.22-0.72a6.09,6.09,0,0,0-.52-0.32,5.6,5.6,0,0,1-.52-0.32q-1.88-1.09-3.76-2.15t-3.76-2.18c0-.35,0-0.7,0-1a9.57,9.57,0,0,0,0-1l3.06-1.78Q253.4,416.63,254.95,415.77Z" transform="translate(-244.98 -408.87)"/><path class="cls-4" d="M268.26,415.55q1.54,0.86,3.05,1.74l3,1.74q-0.45.3-.88,0.54l-0.91.51-2.12-1.22-2.12-1.22q-1.1.6-2.17,1.23L264,420.13v4.93l0.55,0.3,0.55,0.3q0.79,0.45,1.59.95t1.59,0.95l2.17-1.24q1.07-.62,2.12-1.25l1.79,1-3,1.77-3,1.77-3.08-1.77-3-1.77v-7q1.51-.9,3-1.77T268.26,415.55Z" transform="translate(-244.98 -408.87)"/><path class="cls-5" d="M294.74,419l-3,1.77-3.05,1.77-0.86-.52-0.89-.52,2.12-1.24q1.07-.61,2.12-1.24-0.6-.38-1.22-0.72l-1.22-.67q-1.1.6-2.17,1.23l-2.17,1.26v4.93l2.17,1.25q1.07,0.61,2.12,1.24l2.14-1.24,2.14-1.25,1.79,1q-1.51.9-3,1.76l-3.05,1.73-3-1.74q-1.51-.88-3.05-1.74v-7l2.62-1.52,2.66-1.52,0.37-.24a3,3,0,0,1,.37-0.21,0.3,0.3,0,0,1,.24,0l0.31,0.16q1.39,0.83,2.81,1.64T294.74,419Z" transform="translate(-244.98 -408.87)"/><path class="cls-6" d="M298.24,420.4v4.88l2.17,1.26q1.07,0.63,2.17,1.23l2.12-1.22q1.07-.62,2.17-1.22l2.12,1.22,2.12,1.22q1.09-.6,2.17-1.22t2.17-1.22V421c0-.1,0-0.21,0-0.33a0.6,0.6,0,0,1,0-.26,0.21,0.21,0,0,1,.17-0.15,1.38,1.38,0,0,0,.28-0.15c0.22-.12.44-0.25,0.65-0.39a3.73,3.73,0,0,1,.7-0.36v7l-3.05,1.79-3,1.75q-1.09-.6-2.17-1.22l-2.12-1.22q-1.09.6-2.14,1.22t-2.14,1.22q-1.55-.86-3.06-1.75l-3.06-1.79v-7l0.91,0.49A8.47,8.47,0,0,1,298.24,420.4Z" transform="translate(-244.98 -408.87)"/><path class="cls-7" d="M330.89,419l-3,1.77-3.05,1.77-0.86-.52-0.89-.52,2.12-1.24q1.07-.61,2.12-1.24-0.6-.38-1.22-0.72l-1.22-.67q-1.1.6-2.17,1.23l-2.17,1.26v4.93l2.17,1.25q1.07,0.61,2.12,1.24l2.14-1.24,2.14-1.25,1.79,1q-1.51.9-3,1.76l-3.05,1.73-3-1.74q-1.51-.88-3.05-1.74v-7l2.62-1.52,2.66-1.52,0.37-.24a3,3,0,0,1,.37-0.21,0.3,0.3,0,0,1,.24,0l0.31,0.16q1.39,0.83,2.81,1.64T330.89,419Z" transform="translate(-244.98 -408.87)"/><path class="cls-8" d="M342.78,413.33q0.81-.52,1.79-1v0.05q0,1.58,0,3.31t0,3.46v7.22l-3.06,1.77-3.06,1.77-2.27-1.35-2.27-1.3-0.79-.45-0.75-.45v-7l1.49-.9q1.16-.68,2.32-1.32l2.32-1.27,2.1,1.22q1.05,0.62,2.18,1.22v-4.93Zm-4.33,4.53-2.14,1.24-2.14,1.24v4.93l2.17,1.26q1.07,0.63,2.17,1.23,1-.63,2.12-1.25l2.17-1.24v-4.93l-2.17-1.26Q339.54,418.46,338.44,417.86Z" transform="translate(-244.98 -408.87)"/><path class="cls-9" d="M277.9,418.13l0.19-.13-0.34.2A0.89,0.89,0,0,0,277.9,418.13Z" transform="translate(-244.98 -408.87)"/><path class="cls-10" d="M280.54,416.6l-0.49.29-0.81.46-1.15.66-0.19.13a0.89,0.89,0,0,1-.15.06l-1.93,1.11v10.27l1.79-1v-8.2l2.17-1.22q1.07-.59,2.12-1.27v-2Z" transform="translate(-244.98 -408.87)"/><path class="cls-11" d="M258.64,422.94l-1.89-1.07q-1.15-.69-2.32-1.35l-0.13-.07,0.63-.36,1.21,0.7q1.09,0.63,2.21,1.24l1,0.52,0.92-.59,0.12-.07v2Z" transform="translate(-244.98 -408.87)"/><path class="cls-11" d="M272.53,423l-0.94.57q-1,.62-2.08,1.22l-1.25.72-0.62-.38c-0.55-.35-1.11-0.67-1.67-1l-0.15-.08V421.3l1.26-.74,1.21-.7,4.24,2.44,1.44-.8v2.36Z" transform="translate(-244.98 -408.87)"/><path class="cls-11" d="M292,423.57l-2.15,1.25-1.19.7-1.21-.7-1.24-.72v-0.74l0.65,0.39,0.79,0.48,0.95,0.6,4-2.33,1.73-1v2.37L293,423Z" transform="translate(-244.98 -408.87)"/><path class="cls-11" d="M328.18,423.57L326,424.83l-1.19.7-1.21-.7-1.24-.72v-0.74l0.65,0.39,0.79,0.48,0.95,0.6,4-2.33,1.73-1v2.37L329.1,423Z" transform="translate(-244.98 -408.87)"/><path class="cls-11" d="M340.93,424.32l-1.24.71-1.23.72-1.19-.69-1.26-.74v-2.8l1.23-.72,1.23-.72,1.21,0.7,1.26,0.73v2.8Z" transform="translate(-244.98 -408.87)"/></svg>