<svg id="Layer_1" data-name="Layer 1" xmlns="http://www.w3.org/2000/svg" viewBox="0 0 449.75 126.3"><defs><style>.cls-1{fill:#e74c3c;}.cls-2{fill:none;stroke:#fff;stroke-miterlimit:10;stroke-width:0.25px;}.cls-3{fill:#fff;}</style></defs><title>logoteste</title><rect class="cls-1" width="449.75" height="126.3" rx="63.15" ry="63.15"/><path class="cls-2" d="M302,259.74v15.14A1,1,0,0,0,303,276h16.88c7.73,0,14.14,4.91,14.14,13.47v12.14c0,8.32-6.4,13.47-14.14,13.47h-25V309a1.1,1.1,0,0,1,1.08-1.08h23.95a6.32,6.32,0,0,0,6.32-6.32V289.51a6.39,6.39,0,0,0-6.32-6.4H299.63a4.83,4.83,0,0,1-4.82-4.82V253.67a1,1,0,0,1,1.08-1.08h35.26v6.07a1.1,1.1,0,0,1-1.08,1.08H302Z" transform="translate(-256.4 -217.95)"/><path class="cls-2" d="M344.78,266.73a14.12,14.12,0,0,1,14.14-14.14h27.44v6.07a1.1,1.1,0,0,1-1.08,1.08H358.92a6.32,6.32,0,0,0-6.32,6.32v35.51a6.32,6.32,0,0,0,6.32,6.32h26.36a1.1,1.1,0,0,1,1.08,1.08V315H358.92a14.18,14.18,0,0,1-14.14-14.14V266.73Z" transform="translate(-256.4 -217.95)"/><path class="cls-2" d="M403.25,285.1V314a1.1,1.1,0,0,1-1.08,1.08h-6.74V257.41a4.83,4.83,0,0,1,4.82-4.82h26.11c7.82,0,14.14,4.91,14.14,13.39V274c0,7.32-5.24,11.31-11.31,12.89L442.5,315h-7.23a1.91,1.91,0,0,1-1.5-1l-12.64-26.69H408.07c-2.33,0-4.07-.67-4.66-2.25h-0.17Zm23.12-4.91a6.32,6.32,0,0,0,6.32-6.32v-7.82a6.32,6.32,0,0,0-6.32-6.32H404.83a1.58,1.58,0,0,0-1.58,1.58v17.3a1.58,1.58,0,0,0,1.58,1.58h21.54Z" transform="translate(-256.4 -217.95)"/><path class="cls-2" d="M457,266.06v15.8A5.29,5.29,0,0,1,461,280.2H488.4v6.07a1.1,1.1,0,0,1-1.08,1.08H457v14.22a6.32,6.32,0,0,0,6.32,6.32h26.94a1.1,1.1,0,0,1,1.08,1.08V315h-28a14.12,14.12,0,0,1-14.14-14.14V266.73a14.12,14.12,0,0,1,14.14-14.14h28v6.07a1.1,1.1,0,0,1-1.08,1.08H463.29A6.32,6.32,0,0,0,457,266.06Z" transform="translate(-256.4 -217.95)"/><path class="cls-2" d="M567.57,252.59v57.63a4.83,4.83,0,0,1-4.82,4.82H513.27A13.87,13.87,0,0,1,499,301.24V252.59h6.74a1.1,1.1,0,0,1,1.08,1.08V301.9a6.07,6.07,0,0,0,6.4,6h17.79a5.37,5.37,0,0,1-1.66-4V252.59h6.74a1.1,1.1,0,0,1,1.08,1.08v52.64a1.58,1.58,0,0,0,1.58,1.58h19.38a1.64,1.64,0,0,0,1.58-1.58V253.67a1.1,1.1,0,0,1,1.08-1.08h6.74Z" transform="translate(-256.4 -217.95)"/><path class="cls-2" d="M585.37,266.06v15.8a5.29,5.29,0,0,1,4.08-1.66H616.8v6.07a1.1,1.1,0,0,1-1.08,1.08H585.37v14.22a6.32,6.32,0,0,0,6.32,6.32h26.94a1.1,1.1,0,0,1,1.08,1.08V315h-28a14.13,14.13,0,0,1-14.14-14.14V266.73a14.13,14.13,0,0,1,14.14-14.14h28v6.07a1.1,1.1,0,0,1-1.08,1.08H591.69A6.32,6.32,0,0,0,585.37,266.06Z" transform="translate(-256.4 -217.95)"/><path class="cls-2" d="M627.53,310.22V257.41a4.83,4.83,0,0,1,4.82-4.82H659a14.12,14.12,0,0,1,14.14,14.14V300.9A14.18,14.18,0,0,1,659,315H632.35A4.83,4.83,0,0,1,627.53,310.22ZM659,307.89a6.32,6.32,0,0,0,6.32-6.32V266.06a6.32,6.32,0,0,0-6.32-6.32H636.93a1.53,1.53,0,0,0-1.58,1.58v45a1.58,1.58,0,0,0,1.58,1.58H659Z" transform="translate(-256.4 -217.95)"/><path class="cls-2" d="M301.35,259.14v15.14a1,1,0,0,0,1.08,1.08h16.88c7.73,0,14.14,4.91,14.14,13.47V301c0,8.32-6.4,13.47-14.14,13.47h-25v-6.07a1.1,1.1,0,0,1,1.08-1.08h23.95a6.32,6.32,0,0,0,6.32-6.32V288.91a6.39,6.39,0,0,0-6.32-6.4H299a4.83,4.83,0,0,1-4.82-4.82V253.07a1,1,0,0,1,1.08-1.08h35.26v6.07a1.1,1.1,0,0,1-1.08,1.08H301.35Z" transform="translate(-256.4 -217.95)"/><path class="cls-2" d="M344.18,266.12A14.12,14.12,0,0,1,358.32,252h27.44v6.07a1.1,1.1,0,0,1-1.08,1.08H358.32a6.32,6.32,0,0,0-6.32,6.32V301a6.32,6.32,0,0,0,6.32,6.32h26.36a1.1,1.1,0,0,1,1.08,1.08v6.07H358.32a14.18,14.18,0,0,1-14.14-14.14V266.12Z" transform="translate(-256.4 -217.95)"/><path class="cls-2" d="M402.64,284.5v28.86a1.1,1.1,0,0,1-1.08,1.08h-6.74V256.81a4.83,4.83,0,0,1,4.82-4.82h26.11c7.82,0,14.14,4.91,14.14,13.39v8.07c0,7.32-5.24,11.31-11.31,12.89l13.31,28.11h-7.23a1.91,1.91,0,0,1-1.5-1l-12.64-26.69H407.47c-2.33,0-4.07-.67-4.66-2.25h-0.17Zm23.12-4.91a6.32,6.32,0,0,0,6.32-6.32v-7.82a6.32,6.32,0,0,0-6.32-6.32H404.22a1.58,1.58,0,0,0-1.58,1.58V278a1.58,1.58,0,0,0,1.58,1.58h21.54Z" transform="translate(-256.4 -217.95)"/><path class="cls-2" d="M456.36,265.46v15.8a5.29,5.29,0,0,1,4.07-1.66H487.8v6.07a1.1,1.1,0,0,1-1.08,1.08H456.36V301a6.32,6.32,0,0,0,6.32,6.32h26.94a1.1,1.1,0,0,1,1.08,1.08v6.07h-28a14.12,14.12,0,0,1-14.14-14.14V266.12A14.12,14.12,0,0,1,462.68,252h28v6.07a1.1,1.1,0,0,1-1.08,1.08H462.68A6.32,6.32,0,0,0,456.36,265.46Z" transform="translate(-256.4 -217.95)"/><path class="cls-2" d="M567,252v57.63a4.83,4.83,0,0,1-4.82,4.82H512.66a13.87,13.87,0,0,1-14.22-13.8V252h6.74a1.1,1.1,0,0,1,1.08,1.08V301.3a6.07,6.07,0,0,0,6.4,6h17.79a5.37,5.37,0,0,1-1.66-4V252h6.74a1.1,1.1,0,0,1,1.08,1.08v52.64a1.58,1.58,0,0,0,1.58,1.58h19.38a1.64,1.64,0,0,0,1.58-1.58V253.07a1.1,1.1,0,0,1,1.08-1.08H567Z" transform="translate(-256.4 -217.95)"/><path class="cls-2" d="M584.76,265.46v15.8a5.29,5.29,0,0,1,4.08-1.66H616.2v6.07a1.1,1.1,0,0,1-1.08,1.08H584.76V301a6.32,6.32,0,0,0,6.32,6.32H618a1.1,1.1,0,0,1,1.08,1.08v6.07h-28a14.13,14.13,0,0,1-14.14-14.14V266.12A14.13,14.13,0,0,1,591.08,252h28v6.07a1.1,1.1,0,0,1-1.08,1.08H591.08A6.32,6.32,0,0,0,584.76,265.46Z" transform="translate(-256.4 -217.95)"/><path class="cls-2" d="M626.93,309.61V256.81a4.83,4.83,0,0,1,4.82-4.82h26.69a14.12,14.12,0,0,1,14.14,14.14V300.3a14.18,14.18,0,0,1-14.14,14.14H631.75A4.83,4.83,0,0,1,626.93,309.61Zm31.52-2.33a6.32,6.32,0,0,0,6.32-6.32V265.46a6.32,6.32,0,0,0-6.32-6.32H636.32a1.53,1.53,0,0,0-1.58,1.58v45a1.58,1.58,0,0,0,1.58,1.58h22.12Z" transform="translate(-256.4 -217.95)"/><path class="cls-2" d="M300.75,258.53v15.14a1,1,0,0,0,1.08,1.08h16.88c7.73,0,14.14,4.91,14.14,13.47v12.14c0,8.32-6.4,13.47-14.14,13.47h-25v-6.07a1.1,1.1,0,0,1,1.08-1.08h23.95a6.32,6.32,0,0,0,6.32-6.32V288.3a6.39,6.39,0,0,0-6.32-6.4H298.42a4.83,4.83,0,0,1-4.82-4.82V252.46a1,1,0,0,1,1.08-1.08h35.26v6.07a1.1,1.1,0,0,1-1.08,1.08H300.75Z" transform="translate(-256.4 -217.95)"/><path class="cls-2" d="M343.58,265.52a14.12,14.12,0,0,1,14.14-14.14h27.44v6.07a1.1,1.1,0,0,1-1.08,1.08H357.71a6.32,6.32,0,0,0-6.32,6.32v35.51a6.32,6.32,0,0,0,6.32,6.32h26.36a1.1,1.1,0,0,1,1.08,1.08v6.07H357.71a14.18,14.18,0,0,1-14.14-14.14V265.52Z" transform="translate(-256.4 -217.95)"/><path class="cls-2" d="M402,283.9v28.86a1.1,1.1,0,0,1-1.08,1.08h-6.74V256.21a4.83,4.83,0,0,1,4.82-4.82h26.11c7.82,0,14.14,4.91,14.14,13.39v8.07c0,7.32-5.24,11.31-11.31,12.89l13.31,28.11h-7.23a1.91,1.91,0,0,1-1.5-1l-12.64-26.69H406.86c-2.33,0-4.07-.67-4.66-2.25H402ZM425.16,279a6.32,6.32,0,0,0,6.32-6.32v-7.82a6.32,6.32,0,0,0-6.32-6.32H403.62a1.58,1.58,0,0,0-1.58,1.58v17.3a1.58,1.58,0,0,0,1.58,1.58h21.54Z" transform="translate(-256.4 -217.95)"/><path class="cls-2" d="M455.76,264.85v15.8a5.29,5.29,0,0,1,4.07-1.66h27.36v6.07a1.1,1.1,0,0,1-1.08,1.08H455.76v14.22a6.32,6.32,0,0,0,6.32,6.32H489a1.1,1.1,0,0,1,1.08,1.08v6.07h-28a14.12,14.12,0,0,1-14.14-14.14V265.52a14.12,14.12,0,0,1,14.14-14.14h28v6.07a1.1,1.1,0,0,1-1.08,1.08H462.08A6.32,6.32,0,0,0,455.76,264.85Z" transform="translate(-256.4 -217.95)"/><path class="cls-2" d="M566.36,251.38V309a4.83,4.83,0,0,1-4.82,4.82H512.06A13.87,13.87,0,0,1,497.84,300V251.38h6.74a1.1,1.1,0,0,1,1.08,1.08v48.23a6.07,6.07,0,0,0,6.4,6h17.79a5.37,5.37,0,0,1-1.66-4V251.38h6.74a1.1,1.1,0,0,1,1.08,1.08V305.1a1.58,1.58,0,0,0,1.58,1.58H557a1.64,1.64,0,0,0,1.58-1.58V252.46a1.1,1.1,0,0,1,1.08-1.08h6.74Z" transform="translate(-256.4 -217.95)"/><path class="cls-2" d="M584.16,264.85v15.8a5.29,5.29,0,0,1,4.08-1.66h27.36v6.07a1.1,1.1,0,0,1-1.08,1.08H584.16v14.22a6.32,6.32,0,0,0,6.32,6.32h26.94a1.1,1.1,0,0,1,1.08,1.08v6.07h-28a14.13,14.13,0,0,1-14.14-14.14V265.52a14.13,14.13,0,0,1,14.14-14.14h28v6.07a1.1,1.1,0,0,1-1.08,1.08H590.48A6.32,6.32,0,0,0,584.16,264.85Z" transform="translate(-256.4 -217.95)"/><path class="cls-2" d="M626.32,309V256.21a4.83,4.83,0,0,1,4.82-4.82h26.69A14.12,14.12,0,0,1,672,265.52V299.7a14.18,14.18,0,0,1-14.14,14.14H631.15A4.83,4.83,0,0,1,626.32,309Zm31.52-2.33a6.32,6.32,0,0,0,6.32-6.32V264.85a6.32,6.32,0,0,0-6.32-6.32H635.72a1.53,1.53,0,0,0-1.58,1.58v45a1.58,1.58,0,0,0,1.58,1.58h22.12Z" transform="translate(-256.4 -217.95)"/><path class="cls-2" d="M300.15,257.93v15.14a1,1,0,0,0,1.08,1.08h16.88c7.73,0,14.14,4.91,14.14,13.47v12.14c0,8.32-6.4,13.47-14.14,13.47h-25v-6.07a1.1,1.1,0,0,1,1.08-1.08h23.95a6.32,6.32,0,0,0,6.32-6.32V287.7a6.39,6.39,0,0,0-6.32-6.4H297.82a4.83,4.83,0,0,1-4.82-4.82V251.86a1,1,0,0,1,1.08-1.08h35.26v6.07a1.1,1.1,0,0,1-1.08,1.08H300.15Z" transform="translate(-256.4 -217.95)"/><path class="cls-2" d="M343,264.92a14.12,14.12,0,0,1,14.14-14.14h27.44v6.07a1.1,1.1,0,0,1-1.08,1.08H357.11a6.32,6.32,0,0,0-6.32,6.32v35.51a6.32,6.32,0,0,0,6.32,6.32h26.36a1.1,1.1,0,0,1,1.08,1.08v6.07H357.11A14.18,14.18,0,0,1,343,299.09V264.92Z" transform="translate(-256.4 -217.95)"/><path class="cls-2" d="M401.44,283.29v28.86a1.1,1.1,0,0,1-1.08,1.08h-6.74V255.6a4.83,4.83,0,0,1,4.82-4.82h26.11c7.82,0,14.14,4.91,14.14,13.39v8.07c0,7.32-5.24,11.31-11.31,12.89l13.31,28.11h-7.23a1.91,1.91,0,0,1-1.5-1l-12.64-26.69H406.26c-2.33,0-4.07-.67-4.66-2.25h-0.17Zm23.12-4.91a6.32,6.32,0,0,0,6.32-6.32v-7.82a6.32,6.32,0,0,0-6.32-6.32H403a1.58,1.58,0,0,0-1.58,1.58v17.3a1.58,1.58,0,0,0,1.58,1.58h21.54Z" transform="translate(-256.4 -217.95)"/><path class="cls-2" d="M455.16,264.25v15.8a5.29,5.29,0,0,1,4.07-1.66h27.36v6.07a1.1,1.1,0,0,1-1.08,1.08H455.16v14.22a6.32,6.32,0,0,0,6.32,6.32h26.94a1.1,1.1,0,0,1,1.08,1.08v6.07h-28a14.12,14.12,0,0,1-14.14-14.14V264.92a14.12,14.12,0,0,1,14.14-14.14h28v6.07a1.1,1.1,0,0,1-1.08,1.08H461.48A6.32,6.32,0,0,0,455.16,264.25Z" transform="translate(-256.4 -217.95)"/><path class="cls-2" d="M565.76,250.78v57.63a4.83,4.83,0,0,1-4.82,4.82H511.46a13.87,13.87,0,0,1-14.22-13.8V250.78H504a1.1,1.1,0,0,1,1.08,1.08v48.23a6.07,6.07,0,0,0,6.4,6h17.79a5.37,5.37,0,0,1-1.66-4V250.78h6.74a1.1,1.1,0,0,1,1.08,1.08V304.5a1.58,1.58,0,0,0,1.58,1.58h19.38a1.64,1.64,0,0,0,1.58-1.58V251.86a1.1,1.1,0,0,1,1.08-1.08h6.74Z" transform="translate(-256.4 -217.95)"/><path class="cls-2" d="M583.56,264.25v15.8a5.29,5.29,0,0,1,4.08-1.66H615v6.07a1.1,1.1,0,0,1-1.08,1.08H583.56v14.22a6.32,6.32,0,0,0,6.32,6.32h26.94a1.1,1.1,0,0,1,1.08,1.08v6.07h-28a14.13,14.13,0,0,1-14.14-14.14V264.92a14.13,14.13,0,0,1,14.14-14.14h28v6.07a1.1,1.1,0,0,1-1.08,1.08H589.88A6.32,6.32,0,0,0,583.56,264.25Z" transform="translate(-256.4 -217.95)"/><path class="cls-2" d="M625.72,308.41V255.6a4.83,4.83,0,0,1,4.82-4.82h26.69a14.12,14.12,0,0,1,14.14,14.14v34.18a14.18,14.18,0,0,1-14.14,14.14H630.54A4.83,4.83,0,0,1,625.72,308.41Zm31.52-2.33a6.32,6.32,0,0,0,6.32-6.32V264.25a6.32,6.32,0,0,0-6.32-6.32H635.12a1.53,1.53,0,0,0-1.58,1.58v45a1.58,1.58,0,0,0,1.58,1.58h22.12Z" transform="translate(-256.4 -217.95)"/><path class="cls-2" d="M299.54,257.33v15.14a1,1,0,0,0,1.08,1.08h16.88c7.73,0,14.14,4.91,14.14,13.47v12.14c0,8.32-6.4,13.47-14.14,13.47h-25v-6.07a1.1,1.1,0,0,1,1.08-1.08h23.95a6.32,6.32,0,0,0,6.32-6.32V287.1a6.39,6.39,0,0,0-6.32-6.4H297.22a4.83,4.83,0,0,1-4.82-4.82V251.26a1,1,0,0,1,1.08-1.08h35.26v6.07a1.1,1.1,0,0,1-1.08,1.08H299.54Z" transform="translate(-256.4 -217.95)"/><path class="cls-2" d="M342.37,264.31a14.12,14.12,0,0,1,14.14-14.14h27.44v6.07a1.1,1.1,0,0,1-1.08,1.08H356.51a6.32,6.32,0,0,0-6.32,6.32v35.51a6.32,6.32,0,0,0,6.32,6.32h26.36a1.1,1.1,0,0,1,1.08,1.08v6.07H356.51a14.18,14.18,0,0,1-14.14-14.14V264.31Z" transform="translate(-256.4 -217.95)"/><path class="cls-2" d="M400.83,282.69v28.86a1.1,1.1,0,0,1-1.08,1.08H393V255a4.83,4.83,0,0,1,4.82-4.82h26.11c7.82,0,14.14,4.91,14.14,13.39v8.07c0,7.32-5.24,11.31-11.31,12.89l13.31,28.11h-7.23a1.91,1.91,0,0,1-1.5-1l-12.64-26.69H405.65c-2.33,0-4.07-.67-4.66-2.25h-0.17Zm23.12-4.91a6.32,6.32,0,0,0,6.32-6.32v-7.82a6.32,6.32,0,0,0-6.32-6.32H402.41a1.58,1.58,0,0,0-1.58,1.58v17.3a1.58,1.58,0,0,0,1.58,1.58h21.54Z" transform="translate(-256.4 -217.95)"/><path class="cls-2" d="M454.55,263.65v15.8a5.29,5.29,0,0,1,4.07-1.66H486v6.07a1.1,1.1,0,0,1-1.08,1.08H454.55v14.22a6.32,6.32,0,0,0,6.32,6.32h26.94a1.1,1.1,0,0,1,1.08,1.08v6.07h-28a14.12,14.12,0,0,1-14.14-14.14V264.31a14.12,14.12,0,0,1,14.14-14.14h28v6.07a1.1,1.1,0,0,1-1.08,1.08H460.87A6.32,6.32,0,0,0,454.55,263.65Z" transform="translate(-256.4 -217.95)"/><path class="cls-2" d="M565.15,250.18V307.8a4.83,4.83,0,0,1-4.82,4.82H510.85a13.87,13.87,0,0,1-14.22-13.8V250.18h6.74a1.1,1.1,0,0,1,1.08,1.08v48.23a6.07,6.07,0,0,0,6.4,6h17.79a5.37,5.37,0,0,1-1.66-4V250.18h6.74a1.1,1.1,0,0,1,1.08,1.08v52.64a1.58,1.58,0,0,0,1.58,1.58h19.38a1.64,1.64,0,0,0,1.58-1.58V251.26a1.1,1.1,0,0,1,1.08-1.08h6.74Z" transform="translate(-256.4 -217.95)"/><path class="cls-2" d="M583,263.65v15.8a5.29,5.29,0,0,1,4.08-1.66h27.36v6.07a1.1,1.1,0,0,1-1.08,1.08H583v14.22a6.32,6.32,0,0,0,6.32,6.32h26.94a1.1,1.1,0,0,1,1.08,1.08v6.07h-28a14.13,14.13,0,0,1-14.14-14.14V264.31a14.13,14.13,0,0,1,14.14-14.14h28v6.07a1.1,1.1,0,0,1-1.08,1.08H589.27A6.32,6.32,0,0,0,583,263.65Z" transform="translate(-256.4 -217.95)"/><path class="cls-2" d="M625.12,307.8V255a4.83,4.83,0,0,1,4.82-4.82h26.69a14.12,14.12,0,0,1,14.14,14.14v34.18a14.18,14.18,0,0,1-14.14,14.14H629.94A4.83,4.83,0,0,1,625.12,307.8Zm31.52-2.33a6.32,6.32,0,0,0,6.32-6.32V263.65a6.32,6.32,0,0,0-6.32-6.32H634.51a1.53,1.53,0,0,0-1.58,1.58v45a1.58,1.58,0,0,0,1.58,1.58h22.12Z" transform="translate(-256.4 -217.95)"/><path class="cls-2" d="M298.94,256.72v15.14a1,1,0,0,0,1.08,1.08H316.9c7.73,0,14.14,4.91,14.14,13.47v12.14c0,8.32-6.4,13.47-14.14,13.47h-25V306a1.1,1.1,0,0,1,1.08-1.08H316.9a6.32,6.32,0,0,0,6.32-6.32V286.49a6.39,6.39,0,0,0-6.32-6.4H296.61a4.83,4.83,0,0,1-4.82-4.82V250.65a1,1,0,0,1,1.08-1.08h35.26v6.07a1.1,1.1,0,0,1-1.08,1.08H298.94Z" transform="translate(-256.4 -217.95)"/><path class="cls-2" d="M341.77,263.71a14.12,14.12,0,0,1,14.14-14.14h27.44v6.07a1.1,1.1,0,0,1-1.08,1.08H355.9a6.32,6.32,0,0,0-6.32,6.32v35.51a6.32,6.32,0,0,0,6.32,6.32h26.36a1.1,1.1,0,0,1,1.08,1.08V312H355.9a14.18,14.18,0,0,1-14.14-14.14V263.71Z" transform="translate(-256.4 -217.95)"/><path class="cls-2" d="M400.23,282.09v28.86a1.1,1.1,0,0,1-1.08,1.08h-6.74V254.39a4.83,4.83,0,0,1,4.82-4.82h26.11c7.82,0,14.14,4.91,14.14,13.39V271c0,7.32-5.24,11.31-11.31,12.89L439.48,312h-7.23a1.91,1.91,0,0,1-1.5-1l-12.64-26.69H405.05c-2.33,0-4.07-.67-4.66-2.25h-0.17Zm23.12-4.91a6.32,6.32,0,0,0,6.32-6.32V263a6.32,6.32,0,0,0-6.32-6.32H401.81a1.58,1.58,0,0,0-1.58,1.58v17.3a1.58,1.58,0,0,0,1.58,1.58h21.54Z" transform="translate(-256.4 -217.95)"/><path class="cls-2" d="M454,263v15.8a5.29,5.29,0,0,1,4.07-1.66h27.36v6.07a1.1,1.1,0,0,1-1.08,1.08H454v14.22a6.32,6.32,0,0,0,6.32,6.32h26.94a1.1,1.1,0,0,1,1.08,1.08V312h-28a14.12,14.12,0,0,1-14.14-14.14V263.71a14.12,14.12,0,0,1,14.14-14.14h28v6.07a1.1,1.1,0,0,1-1.08,1.08H460.27A6.32,6.32,0,0,0,454,263Z" transform="translate(-256.4 -217.95)"/><path class="cls-2" d="M564.55,249.57V307.2a4.83,4.83,0,0,1-4.82,4.82H510.25A13.87,13.87,0,0,1,496,298.22V249.57h6.74a1.1,1.1,0,0,1,1.08,1.08v48.23a6.07,6.07,0,0,0,6.4,6H528a5.37,5.37,0,0,1-1.66-4V249.57h6.74a1.1,1.1,0,0,1,1.08,1.08v52.64a1.58,1.58,0,0,0,1.58,1.58h19.38a1.64,1.64,0,0,0,1.58-1.58V250.65a1.1,1.1,0,0,1,1.08-1.08h6.74Z" transform="translate(-256.4 -217.95)"/><path class="cls-2" d="M582.35,263v15.8a5.29,5.29,0,0,1,4.08-1.66h27.36v6.07a1.1,1.1,0,0,1-1.08,1.08H582.35v14.22a6.32,6.32,0,0,0,6.32,6.32h26.94a1.1,1.1,0,0,1,1.08,1.08V312h-28a14.13,14.13,0,0,1-14.14-14.14V263.71a14.13,14.13,0,0,1,14.14-14.14h28v6.07a1.1,1.1,0,0,1-1.08,1.08H588.67A6.32,6.32,0,0,0,582.35,263Z" transform="translate(-256.4 -217.95)"/><path class="cls-2" d="M624.51,307.2V254.39a4.83,4.83,0,0,1,4.82-4.82H656a14.12,14.12,0,0,1,14.14,14.14v34.18A14.18,14.18,0,0,1,656,312H629.34A4.83,4.83,0,0,1,624.51,307.2ZM656,304.87a6.32,6.32,0,0,0,6.32-6.32V263a6.32,6.32,0,0,0-6.32-6.32H633.91a1.53,1.53,0,0,0-1.58,1.58v45a1.58,1.58,0,0,0,1.58,1.58H656Z" transform="translate(-256.4 -217.95)"/><path class="cls-2" d="M298.34,256.12v15.14a1,1,0,0,0,1.08,1.08H316.3c7.73,0,14.14,4.91,14.14,13.47v12.14c0,8.32-6.4,13.47-14.14,13.47h-25v-6.07a1.1,1.1,0,0,1,1.08-1.08H316.3a6.32,6.32,0,0,0,6.32-6.32V285.89a6.39,6.39,0,0,0-6.32-6.4H296a4.83,4.83,0,0,1-4.82-4.82V250a1,1,0,0,1,1.08-1.08h35.26V255a1.1,1.1,0,0,1-1.08,1.08H298.34Z" transform="translate(-256.4 -217.95)"/><path class="cls-2" d="M341.16,263.1A14.12,14.12,0,0,1,355.3,249h27.44V255a1.1,1.1,0,0,1-1.08,1.08H355.3a6.32,6.32,0,0,0-6.32,6.32v35.51a6.32,6.32,0,0,0,6.32,6.32h26.36a1.1,1.1,0,0,1,1.08,1.08v6.07H355.3a14.18,14.18,0,0,1-14.14-14.14V263.1Z" transform="translate(-256.4 -217.95)"/><path class="cls-2" d="M399.63,281.48v28.86a1.1,1.1,0,0,1-1.08,1.08h-6.74V253.79a4.83,4.83,0,0,1,4.82-4.82h26.11c7.82,0,14.14,4.91,14.14,13.39v8.07c0,7.32-5.24,11.31-11.31,12.89l13.31,28.11h-7.23a1.91,1.91,0,0,1-1.5-1L417.5,283.73H404.45c-2.33,0-4.07-.67-4.66-2.25h-0.17Zm23.12-4.91a6.32,6.32,0,0,0,6.32-6.32v-7.82a6.32,6.32,0,0,0-6.32-6.32H401.2a1.58,1.58,0,0,0-1.58,1.58V275a1.58,1.58,0,0,0,1.58,1.58h21.54Z" transform="translate(-256.4 -217.95)"/><path class="cls-2" d="M453.35,262.44v15.8a5.29,5.29,0,0,1,4.07-1.66h27.36v6.07a1.1,1.1,0,0,1-1.08,1.08H453.35v14.22a6.32,6.32,0,0,0,6.32,6.32h26.94a1.1,1.1,0,0,1,1.08,1.08v6.07h-28a14.12,14.12,0,0,1-14.14-14.14V263.1A14.12,14.12,0,0,1,459.67,249h28V255a1.1,1.1,0,0,1-1.08,1.08H459.67A6.32,6.32,0,0,0,453.35,262.44Z" transform="translate(-256.4 -217.95)"/><path class="cls-2" d="M563.95,249V306.6a4.83,4.83,0,0,1-4.82,4.82H509.65a13.87,13.87,0,0,1-14.22-13.8V249h6.74a1.1,1.1,0,0,1,1.08,1.08v48.23a6.07,6.07,0,0,0,6.4,6h17.79a5.37,5.37,0,0,1-1.66-4V249h6.74A1.1,1.1,0,0,1,533.6,250v52.64a1.58,1.58,0,0,0,1.58,1.58h19.38a1.64,1.64,0,0,0,1.58-1.58V250a1.1,1.1,0,0,1,1.08-1.08h6.74Z" transform="translate(-256.4 -217.95)"/><path class="cls-2" d="M581.75,262.44v15.8a5.29,5.29,0,0,1,4.08-1.66h27.36v6.07a1.1,1.1,0,0,1-1.08,1.08H581.75v14.22a6.32,6.32,0,0,0,6.32,6.32H615a1.1,1.1,0,0,1,1.08,1.08v6.07h-28a14.13,14.13,0,0,1-14.14-14.14V263.1A14.13,14.13,0,0,1,588.07,249h28V255a1.1,1.1,0,0,1-1.08,1.08H588.07A6.32,6.32,0,0,0,581.75,262.44Z" transform="translate(-256.4 -217.95)"/><path class="cls-2" d="M623.91,306.6V253.79a4.83,4.83,0,0,1,4.82-4.82h26.69a14.12,14.12,0,0,1,14.14,14.14v34.18a14.18,14.18,0,0,1-14.14,14.14H628.73A4.83,4.83,0,0,1,623.91,306.6Zm31.52-2.33a6.32,6.32,0,0,0,6.32-6.32V262.44a6.32,6.32,0,0,0-6.32-6.32H633.31a1.53,1.53,0,0,0-1.58,1.58v45a1.58,1.58,0,0,0,1.58,1.58h22.12Z" transform="translate(-256.4 -217.95)"/><path class="cls-2" d="M297.73,255.52v15.14a1,1,0,0,0,1.08,1.08h16.88c7.73,0,14.14,4.91,14.14,13.47v12.14c0,8.32-6.4,13.47-14.14,13.47h-25v-6.07a1.1,1.1,0,0,1,1.08-1.08h23.95a6.32,6.32,0,0,0,6.32-6.32V285.29a6.39,6.39,0,0,0-6.32-6.4H295.4a4.83,4.83,0,0,1-4.82-4.82V249.45a1,1,0,0,1,1.08-1.08h35.26v6.07a1.1,1.1,0,0,1-1.08,1.08H297.73Z" transform="translate(-256.4 -217.95)"/><path class="cls-2" d="M340.56,262.5a14.12,14.12,0,0,1,14.14-14.14h27.44v6.07a1.1,1.1,0,0,1-1.08,1.08H354.7a6.32,6.32,0,0,0-6.32,6.32v35.51a6.32,6.32,0,0,0,6.32,6.32h26.36a1.1,1.1,0,0,1,1.08,1.08v6.07H354.7a14.18,14.18,0,0,1-14.14-14.14V262.5Z" transform="translate(-256.4 -217.95)"/><path class="cls-2" d="M399,280.88v28.86a1.1,1.1,0,0,1-1.08,1.08H391.2V253.19a4.83,4.83,0,0,1,4.82-4.82h26.11c7.82,0,14.14,4.91,14.14,13.39v8.07c0,7.32-5.24,11.31-11.31,12.89l13.31,28.11H431a1.91,1.91,0,0,1-1.5-1L416.9,283.13H403.84c-2.33,0-4.07-.67-4.66-2.25H399ZM422.14,276a6.32,6.32,0,0,0,6.32-6.32v-7.82a6.32,6.32,0,0,0-6.32-6.32H400.6A1.58,1.58,0,0,0,399,257.1v17.3A1.58,1.58,0,0,0,400.6,276h21.54Z" transform="translate(-256.4 -217.95)"/><path class="cls-2" d="M452.74,261.84v15.8a5.29,5.29,0,0,1,4.07-1.66h27.36V282a1.1,1.1,0,0,1-1.08,1.08H452.74v14.22a6.32,6.32,0,0,0,6.32,6.32H486a1.1,1.1,0,0,1,1.08,1.08v6.07h-28a14.12,14.12,0,0,1-14.14-14.14V262.5a14.12,14.12,0,0,1,14.14-14.14h28v6.07a1.1,1.1,0,0,1-1.08,1.08H459.06A6.32,6.32,0,0,0,452.74,261.84Z" transform="translate(-256.4 -217.95)"/><path class="cls-2" d="M563.34,248.36V306a4.83,4.83,0,0,1-4.82,4.82H509A13.87,13.87,0,0,1,494.82,297V248.36h6.74a1.1,1.1,0,0,1,1.08,1.08v48.23a6.07,6.07,0,0,0,6.4,6h17.79a5.37,5.37,0,0,1-1.66-4V248.36h6.74a1.1,1.1,0,0,1,1.08,1.08v52.64a1.58,1.58,0,0,0,1.58,1.58h19.38a1.64,1.64,0,0,0,1.58-1.58V249.45a1.1,1.1,0,0,1,1.08-1.08h6.74Z" transform="translate(-256.4 -217.95)"/><path class="cls-2" d="M581.14,261.84v15.8a5.29,5.29,0,0,1,4.08-1.66h27.36V282a1.1,1.1,0,0,1-1.08,1.08H581.14v14.22a6.32,6.32,0,0,0,6.32,6.32H614.4a1.1,1.1,0,0,1,1.08,1.08v6.07h-28a14.13,14.13,0,0,1-14.14-14.14V262.5a14.13,14.13,0,0,1,14.14-14.14h28v6.07a1.1,1.1,0,0,1-1.08,1.08H587.46A6.32,6.32,0,0,0,581.14,261.84Z" transform="translate(-256.4 -217.95)"/><path class="cls-2" d="M623.31,306V253.19a4.83,4.83,0,0,1,4.82-4.82h26.69A14.12,14.12,0,0,1,669,262.5v34.18a14.18,14.18,0,0,1-14.14,14.14H628.13A4.83,4.83,0,0,1,623.31,306Zm31.52-2.33a6.32,6.32,0,0,0,6.32-6.32V261.84a6.32,6.32,0,0,0-6.32-6.32H632.7a1.53,1.53,0,0,0-1.58,1.58v45a1.58,1.58,0,0,0,1.58,1.58h22.12Z" transform="translate(-256.4 -217.95)"/><path class="cls-2" d="M297.13,254.91V270a1,1,0,0,0,1.08,1.08h16.88c7.73,0,14.14,4.91,14.14,13.47v12.14c0,8.32-6.4,13.47-14.14,13.47h-25v-6.07a1.1,1.1,0,0,1,1.08-1.08h23.95a6.32,6.32,0,0,0,6.32-6.32V284.68a6.39,6.39,0,0,0-6.32-6.4H294.8a4.83,4.83,0,0,1-4.82-4.82V248.84a1,1,0,0,1,1.08-1.08h35.26v6.07a1.1,1.1,0,0,1-1.08,1.08H297.13Z" transform="translate(-256.4 -217.95)"/><path class="cls-2" d="M340,261.9a14.12,14.12,0,0,1,14.14-14.14h27.44v6.07a1.1,1.1,0,0,1-1.08,1.08H354.09a6.32,6.32,0,0,0-6.32,6.32v35.51a6.32,6.32,0,0,0,6.32,6.32h26.36a1.1,1.1,0,0,1,1.08,1.08v6.07H354.09A14.18,14.18,0,0,1,340,296.08V261.9Z" transform="translate(-256.4 -217.95)"/><path class="cls-2" d="M398.42,280.28v28.86a1.1,1.1,0,0,1-1.08,1.08H390.6V252.58a4.83,4.83,0,0,1,4.82-4.82h26.11c7.82,0,14.14,4.91,14.14,13.39v8.07c0,7.32-5.24,11.31-11.31,12.89l13.31,28.11h-7.23a1.91,1.91,0,0,1-1.5-1L416.3,282.52H403.24c-2.33,0-4.07-.67-4.66-2.25h-0.17Zm23.12-4.91a6.32,6.32,0,0,0,6.32-6.32v-7.82a6.32,6.32,0,0,0-6.32-6.32H400a1.58,1.58,0,0,0-1.58,1.58v17.3a1.58,1.58,0,0,0,1.58,1.58h21.54Z" transform="translate(-256.4 -217.95)"/><path class="cls-2" d="M452.14,261.23V277a5.29,5.29,0,0,1,4.07-1.66h27.36v6.07a1.1,1.1,0,0,1-1.08,1.08H452.14v14.22a6.32,6.32,0,0,0,6.32,6.32H485.4a1.1,1.1,0,0,1,1.08,1.08v6.07h-28a14.12,14.12,0,0,1-14.14-14.14V261.9a14.12,14.12,0,0,1,14.14-14.14h28v6.07a1.1,1.1,0,0,1-1.08,1.08H458.46A6.32,6.32,0,0,0,452.14,261.23Z" transform="translate(-256.4 -217.95)"/><path class="cls-2" d="M562.74,247.76v57.63a4.83,4.83,0,0,1-4.82,4.82H508.44a13.87,13.87,0,0,1-14.22-13.8V247.76H501a1.1,1.1,0,0,1,1.08,1.08v48.23a6.07,6.07,0,0,0,6.4,6h17.79a5.37,5.37,0,0,1-1.66-4V247.76h6.74a1.1,1.1,0,0,1,1.08,1.08v52.64a1.58,1.58,0,0,0,1.58,1.58h19.38a1.64,1.64,0,0,0,1.58-1.58V248.84a1.1,1.1,0,0,1,1.08-1.08h6.74Z" transform="translate(-256.4 -217.95)"/><path class="cls-2" d="M580.54,261.23V277a5.29,5.29,0,0,1,4.08-1.66H612v6.07a1.1,1.1,0,0,1-1.08,1.08H580.54v14.22a6.32,6.32,0,0,0,6.32,6.32H613.8a1.1,1.1,0,0,1,1.08,1.08v6.07h-28a14.13,14.13,0,0,1-14.14-14.14V261.9a14.13,14.13,0,0,1,14.14-14.14h28v6.07a1.1,1.1,0,0,1-1.08,1.08H586.86A6.32,6.32,0,0,0,580.54,261.23Z" transform="translate(-256.4 -217.95)"/><path class="cls-2" d="M622.7,305.39V252.58a4.83,4.83,0,0,1,4.82-4.82h26.69a14.12,14.12,0,0,1,14.14,14.14v34.18a14.18,14.18,0,0,1-14.14,14.14H627.53A4.83,4.83,0,0,1,622.7,305.39Zm31.52-2.33a6.32,6.32,0,0,0,6.32-6.32V261.23a6.32,6.32,0,0,0-6.32-6.32H632.1a1.53,1.53,0,0,0-1.58,1.58v45a1.58,1.58,0,0,0,1.58,1.58h22.12Z" transform="translate(-256.4 -217.95)"/><path class="cls-2" d="M296.53,254.31v15.14a1,1,0,0,0,1.08,1.08h16.88c7.73,0,14.14,4.91,14.14,13.47v12.14c0,8.32-6.4,13.47-14.14,13.47h-25v-6.07a1.1,1.1,0,0,1,1.08-1.08h23.95a6.32,6.32,0,0,0,6.32-6.32V284.08a6.39,6.39,0,0,0-6.32-6.4H294.2a4.83,4.83,0,0,1-4.82-4.82V248.24a1,1,0,0,1,1.08-1.08h35.26v6.07a1.1,1.1,0,0,1-1.08,1.08H296.53Z" transform="translate(-256.4 -217.95)"/><path class="cls-2" d="M339.35,261.29a14.12,14.12,0,0,1,14.14-14.14h27.44v6.07a1.1,1.1,0,0,1-1.08,1.08H353.49a6.32,6.32,0,0,0-6.32,6.32v35.51a6.32,6.32,0,0,0,6.32,6.32h26.36a1.1,1.1,0,0,1,1.08,1.08v6.07H353.49a14.18,14.18,0,0,1-14.14-14.14V261.29Z" transform="translate(-256.4 -217.95)"/><path class="cls-2" d="M397.81,279.67v28.86a1.1,1.1,0,0,1-1.08,1.08H390V252a4.83,4.83,0,0,1,4.82-4.82h26.11c7.82,0,14.14,4.91,14.14,13.39v8.07c0,7.32-5.24,11.31-11.31,12.89l13.31,28.11h-7.23a1.91,1.91,0,0,1-1.5-1l-12.64-26.69H402.64c-2.33,0-4.07-.67-4.66-2.25h-0.17Zm23.12-4.91a6.32,6.32,0,0,0,6.32-6.32v-7.82a6.32,6.32,0,0,0-6.32-6.32H399.39a1.58,1.58,0,0,0-1.58,1.58v17.3a1.58,1.58,0,0,0,1.58,1.58h21.54Z" transform="translate(-256.4 -217.95)"/><path class="cls-2" d="M451.54,260.63v15.8a5.29,5.29,0,0,1,4.07-1.66H483v6.07a1.1,1.1,0,0,1-1.08,1.08H451.54v14.22a6.32,6.32,0,0,0,6.32,6.32H484.8a1.1,1.1,0,0,1,1.08,1.08v6.07h-28a14.12,14.12,0,0,1-14.14-14.14V261.29a14.12,14.12,0,0,1,14.14-14.14h28v6.07a1.1,1.1,0,0,1-1.08,1.08H457.86A6.32,6.32,0,0,0,451.54,260.63Z" transform="translate(-256.4 -217.95)"/><path class="cls-2" d="M562.14,247.16v57.63a4.83,4.83,0,0,1-4.82,4.82H507.84a13.87,13.87,0,0,1-14.22-13.8V247.16h6.74a1.1,1.1,0,0,1,1.08,1.08v48.23a6.07,6.07,0,0,0,6.4,6h17.79a5.37,5.37,0,0,1-1.66-4V247.16h6.74a1.1,1.1,0,0,1,1.08,1.08v52.64a1.58,1.58,0,0,0,1.58,1.58h19.38a1.64,1.64,0,0,0,1.58-1.58V248.24a1.1,1.1,0,0,1,1.08-1.08h6.74Z" transform="translate(-256.4 -217.95)"/><path class="cls-2" d="M579.93,260.63v15.8a5.29,5.29,0,0,1,4.08-1.66h27.36v6.07a1.1,1.1,0,0,1-1.08,1.08H579.93v14.22a6.32,6.32,0,0,0,6.32,6.32H613.2a1.1,1.1,0,0,1,1.08,1.08v6.07h-28a14.13,14.13,0,0,1-14.14-14.14V261.29a14.13,14.13,0,0,1,14.14-14.14h28v6.07a1.1,1.1,0,0,1-1.08,1.08H586.26A6.32,6.32,0,0,0,579.93,260.63Z" transform="translate(-256.4 -217.95)"/><path class="cls-2" d="M622.1,304.79V252a4.83,4.83,0,0,1,4.82-4.82h26.69a14.12,14.12,0,0,1,14.14,14.14v34.18a14.18,14.18,0,0,1-14.14,14.14H626.92A4.83,4.83,0,0,1,622.1,304.79Zm31.52-2.33a6.32,6.32,0,0,0,6.32-6.32V260.63a6.32,6.32,0,0,0-6.32-6.32H631.5a1.53,1.53,0,0,0-1.58,1.58v45a1.58,1.58,0,0,0,1.58,1.58h22.12Z" transform="translate(-256.4 -217.95)"/><path class="cls-2" d="M295.92,253.71v15.14a1,1,0,0,0,1.08,1.08h16.88c7.73,0,14.14,4.91,14.14,13.47v12.14c0,8.32-6.4,13.47-14.14,13.47h-25v-6.07a1.1,1.1,0,0,1,1.08-1.08h23.95a6.32,6.32,0,0,0,6.32-6.32V283.48a6.39,6.39,0,0,0-6.32-6.4H293.59a4.83,4.83,0,0,1-4.82-4.82V247.63a1,1,0,0,1,1.08-1.08h35.26v6.07a1.1,1.1,0,0,1-1.08,1.08H295.92Z" transform="translate(-256.4 -217.95)"/><path class="cls-2" d="M338.75,260.69a14.12,14.12,0,0,1,14.14-14.14h27.44v6.07a1.1,1.1,0,0,1-1.08,1.08H352.89a6.32,6.32,0,0,0-6.32,6.32v35.51a6.32,6.32,0,0,0,6.32,6.32h26.36a1.1,1.1,0,0,1,1.08,1.08V309H352.89a14.18,14.18,0,0,1-14.14-14.14V260.69Z" transform="translate(-256.4 -217.95)"/><path class="cls-2" d="M397.21,279.07v28.86a1.1,1.1,0,0,1-1.08,1.08h-6.74V251.38a4.83,4.83,0,0,1,4.82-4.82h26.11c7.82,0,14.14,4.91,14.14,13.39V268c0,7.32-5.24,11.31-11.31,12.89L436.46,309h-7.23a1.91,1.91,0,0,1-1.5-1l-12.64-26.69H402c-2.33,0-4.07-.67-4.66-2.25h-0.17Zm23.12-4.91a6.32,6.32,0,0,0,6.32-6.32V260a6.32,6.32,0,0,0-6.32-6.32H398.79a1.58,1.58,0,0,0-1.58,1.58v17.3a1.58,1.58,0,0,0,1.58,1.58h21.54Z" transform="translate(-256.4 -217.95)"/><path class="cls-2" d="M450.93,260v15.8a5.29,5.29,0,0,1,4.07-1.66h27.36v6.07a1.1,1.1,0,0,1-1.08,1.08H450.93v14.22a6.32,6.32,0,0,0,6.32,6.32H484.2a1.1,1.1,0,0,1,1.08,1.08V309h-28a14.12,14.12,0,0,1-14.14-14.14V260.69a14.12,14.12,0,0,1,14.14-14.14h28v6.07a1.1,1.1,0,0,1-1.08,1.08H457.25A6.32,6.32,0,0,0,450.93,260Z" transform="translate(-256.4 -217.95)"/><path class="cls-2" d="M561.53,246.55v57.63a4.83,4.83,0,0,1-4.82,4.82H507.23A13.87,13.87,0,0,1,493,295.2V246.55h6.74a1.1,1.1,0,0,1,1.08,1.08v48.23a6.07,6.07,0,0,0,6.4,6H525a5.37,5.37,0,0,1-1.66-4V246.55h6.74a1.1,1.1,0,0,1,1.08,1.08v52.64a1.58,1.58,0,0,0,1.58,1.58h19.38a1.64,1.64,0,0,0,1.58-1.58V247.63a1.1,1.1,0,0,1,1.08-1.08h6.74Z" transform="translate(-256.4 -217.95)"/><path class="cls-2" d="M579.33,260v15.8a5.29,5.29,0,0,1,4.08-1.66h27.36v6.07a1.1,1.1,0,0,1-1.08,1.08H579.33v14.22a6.32,6.32,0,0,0,6.32,6.32h26.94a1.1,1.1,0,0,1,1.08,1.08V309h-28a14.13,14.13,0,0,1-14.14-14.14V260.69a14.13,14.13,0,0,1,14.14-14.14h28v6.07a1.1,1.1,0,0,1-1.08,1.08H585.65A6.32,6.32,0,0,0,579.33,260Z" transform="translate(-256.4 -217.95)"/><path class="cls-2" d="M621.49,304.18V251.38a4.83,4.83,0,0,1,4.82-4.82H653a14.12,14.12,0,0,1,14.14,14.14v34.18A14.18,14.18,0,0,1,653,309H626.32A4.83,4.83,0,0,1,621.49,304.18ZM653,301.85a6.32,6.32,0,0,0,6.32-6.32V260a6.32,6.32,0,0,0-6.32-6.32H630.89a1.53,1.53,0,0,0-1.58,1.58v45a1.58,1.58,0,0,0,1.58,1.58H653Z" transform="translate(-256.4 -217.95)"/><path class="cls-3" d="M302.56,260.34v15.13a1,1,0,0,0,1.08,1.08h16.88c7.73,0,14.14,4.91,14.14,13.47v12.14c0,8.32-6.4,13.47-14.14,13.47h-25v-6.07a1.1,1.1,0,0,1,1.08-1.08h23.95a6.32,6.32,0,0,0,6.32-6.32V290.11a6.39,6.39,0,0,0-6.32-6.4H300.23a4.83,4.83,0,0,1-4.82-4.82V254.27a1,1,0,0,1,1.08-1.08h35.26v6.07a1.1,1.1,0,0,1-1.08,1.08H302.56Z" transform="translate(-256.4 -217.95)"/><path class="cls-3" d="M345.39,267.33a14.13,14.13,0,0,1,14.14-14.14H387v6.07a1.1,1.1,0,0,1-1.08,1.08H359.53a6.32,6.32,0,0,0-6.32,6.32v35.51a6.32,6.32,0,0,0,6.32,6.32h26.36a1.1,1.1,0,0,1,1.08,1.08v6.07H359.53a14.18,14.18,0,0,1-14.14-14.14V267.33Z" transform="translate(-256.4 -217.95)"/><path class="cls-3" d="M403.85,285.71v28.86a1.1,1.1,0,0,1-1.08,1.08H396V258a4.83,4.83,0,0,1,4.82-4.82H427c7.82,0,14.14,4.91,14.14,13.39v8.07c0,7.32-5.24,11.31-11.31,12.89l13.31,28.11h-7.23a1.91,1.91,0,0,1-1.5-1L421.73,288H408.67c-2.33,0-4.07-.66-4.66-2.25h-0.17ZM427,280.8a6.32,6.32,0,0,0,6.32-6.32v-7.82a6.32,6.32,0,0,0-6.32-6.32H405.43a1.58,1.58,0,0,0-1.58,1.58v17.3a1.58,1.58,0,0,0,1.58,1.58H427Z" transform="translate(-256.4 -217.95)"/><path class="cls-3" d="M457.57,266.66v15.8a5.29,5.29,0,0,1,4.07-1.66H489v6.07a1.1,1.1,0,0,1-1.08,1.08H457.57v14.22a6.32,6.32,0,0,0,6.32,6.32h26.94a1.1,1.1,0,0,1,1.08,1.08v6.07h-28a14.12,14.12,0,0,1-14.14-14.14V267.33a14.12,14.12,0,0,1,14.14-14.14h28v6.07a1.1,1.1,0,0,1-1.08,1.08H463.89A6.32,6.32,0,0,0,457.57,266.66Z" transform="translate(-256.4 -217.95)"/><path class="cls-3" d="M568.17,253.19v57.63a4.83,4.83,0,0,1-4.82,4.82H513.87a13.87,13.87,0,0,1-14.22-13.8V253.19h6.74a1.1,1.1,0,0,1,1.08,1.08v48.23a6.07,6.07,0,0,0,6.4,6h17.8a5.37,5.37,0,0,1-1.66-4V253.19h6.74a1.1,1.1,0,0,1,1.08,1.08v52.64a1.58,1.58,0,0,0,1.58,1.58h19.38a1.64,1.64,0,0,0,1.58-1.58V254.27a1.1,1.1,0,0,1,1.08-1.08h6.74Z" transform="translate(-256.4 -217.95)"/><path class="cls-3" d="M586,266.66v15.8A5.3,5.3,0,0,1,590,280.8h27.36v6.07a1.1,1.1,0,0,1-1.08,1.08H586v14.22a6.32,6.32,0,0,0,6.32,6.32h26.94a1.1,1.1,0,0,1,1.08,1.08v6.07h-28a14.13,14.13,0,0,1-14.14-14.14V267.33a14.13,14.13,0,0,1,14.14-14.14h28v6.07a1.1,1.1,0,0,1-1.08,1.08H592.29A6.32,6.32,0,0,0,586,266.66Z" transform="translate(-256.4 -217.95)"/><path class="cls-3" d="M628.13,310.82V258a4.83,4.83,0,0,1,4.82-4.82h26.69a14.12,14.12,0,0,1,14.14,14.14v34.18a14.18,14.18,0,0,1-14.14,14.14H633A4.83,4.83,0,0,1,628.13,310.82Zm31.52-2.33a6.32,6.32,0,0,0,6.32-6.32V266.66a6.32,6.32,0,0,0-6.32-6.32H637.53a1.53,1.53,0,0,0-1.58,1.58v45a1.58,1.58,0,0,0,1.58,1.58h22.12Z" transform="translate(-256.4 -217.95)"/></svg>