<svg id="Layer_2" data-name="Layer 2" xmlns="http://www.w3.org/2000/svg" xmlns:xlink="http://www.w3.org/1999/xlink" viewBox="0 0 616.4 685.52"><defs><style>.cls-1,.cls-41{fill:none;}.cls-2{fill:#c68a30;}.cls-3{fill:#187677;}.cls-4{fill:#e9c0bc;}.cls-5{fill:#0c1e2f;}.cls-6{fill:#846528;}.cls-7{fill:#5e491c;}.cls-8{clip-path:url(#clip-path);}.cls-9{fill:#fff;}.cls-10{fill:#ddadab;}.cls-11{fill:url(#linear-gradient);}.cls-12{fill:url(#linear-gradient-2);}.cls-13{fill:url(#linear-gradient-3);}.cls-14{fill:url(#linear-gradient-4);}.cls-15{fill:url(#linear-gradient-5);}.cls-16{fill:url(#linear-gradient-6);}.cls-17{fill:url(#linear-gradient-7);}.cls-18{fill:url(#linear-gradient-8);}.cls-19{fill:#747474;}.cls-20{fill:url(#linear-gradient-9);}.cls-21{fill:url(#linear-gradient-10);}.cls-22{fill:url(#linear-gradient-11);}.cls-23{fill:url(#linear-gradient-12);}.cls-24{fill:url(#linear-gradient-13);}.cls-25{fill:url(#linear-gradient-14);}.cls-26{fill:url(#linear-gradient-15);}.cls-27{fill:url(#linear-gradient-16);}.cls-28{fill:url(#linear-gradient-17);}.cls-29{fill:url(#linear-gradient-18);}.cls-30{fill:url(#linear-gradient-19);}.cls-31{fill:url(#linear-gradient-20);}.cls-32{fill:url(#linear-gradient-21);}.cls-33{fill:url(#linear-gradient-22);}.cls-34{fill:url(#linear-gradient-23);}.cls-35{fill:url(#linear-gradient-24);}.cls-36{fill:url(#linear-gradient-25);}.cls-37{fill:url(#linear-gradient-26);}.cls-38{fill:url(#linear-gradient-27);}.cls-39{fill:url(#linear-gradient-28);}.cls-40{fill:url(#linear-gradient-29);}.cls-41{stroke:#0c1e2f;stroke-miterlimit:10;stroke-width:3px;}.cls-42{fill:#d89f55;}.cls-43{fill:url(#linear-gradient-30);}.cls-44{fill:url(#linear-gradient-31);}.cls-45{fill:url(#linear-gradient-32);}</style><clipPath id="clip-path" transform="translate(-166.02 -240.54)"><polygon class="cls-1" points="642.2 471.38 634.67 467.25 612.06 463.59 602.3 478.46 606.64 493 617.59 500.06 633.2 500.01 647.73 484.13 642.2 471.38"/></clipPath><linearGradient id="linear-gradient" x1="392.88" y1="264.04" x2="422.05" y2="234.88" gradientUnits="userSpaceOnUse"><stop offset="0" stop-color="#619bcd"/><stop offset="1" stop-color="#fff" stop-opacity="0"/></linearGradient><linearGradient id="linear-gradient-2" x1="394.01" y1="206.84" x2="426.65" y2="174.19" xlink:href="#linear-gradient"/><linearGradient id="linear-gradient-3" x1="410.49" y1="158.03" x2="441.81" y2="126.71" xlink:href="#linear-gradient"/><linearGradient id="linear-gradient-4" x1="463.71" y1="154.74" x2="521.86" y2="96.59" xlink:href="#linear-gradient"/><linearGradient id="linear-gradient-5" x1="527.46" y1="177.52" x2="553.6" y2="151.38" xlink:href="#linear-gradient"/><linearGradient id="linear-gradient-6" x1="533.36" y1="246.62" x2="591.1" y2="188.88" xlink:href="#linear-gradient"/><linearGradient id="linear-gradient-7" x1="530.3" y1="277.19" x2="556.2" y2="251.3" xlink:href="#linear-gradient"/><linearGradient id="linear-gradient-8" x1="520.25" y1="314.81" x2="569.98" y2="265.08" xlink:href="#linear-gradient"/><linearGradient id="linear-gradient-9" x1="458.87" y1="301.12" x2="518.68" y2="360.93" xlink:href="#linear-gradient"/><linearGradient id="linear-gradient-10" x1="413.43" y1="354.67" x2="476.98" y2="418.23" xlink:href="#linear-gradient"/><linearGradient id="linear-gradient-11" x1="719.69" y1="581.11" x2="728.6" y2="581.11" gradientUnits="userSpaceOnUse"><stop offset="0" stop-color="#619bcd"/><stop offset="0.01" stop-color="#679ecf" stop-opacity="0.97"/><stop offset="0.05" stop-color="#86b3d9" stop-opacity="0.76"/><stop offset="0.1" stop-color="#a3c5e2" stop-opacity="0.58"/><stop offset="0.16" stop-color="#bcd5ea" stop-opacity="0.42"/><stop offset="0.22" stop-color="#d1e2f1" stop-opacity="0.29"/><stop offset="0.29" stop-color="#e2edf6" stop-opacity="0.18"/><stop offset="0.37" stop-color="#eff5fa" stop-opacity="0.1"/><stop offset="0.47" stop-color="#f8fbfd" stop-opacity="0.04"/><stop offset="0.61" stop-color="#fefeff" stop-opacity="0.01"/><stop offset="1" stop-color="#fff" stop-opacity="0"/></linearGradient><linearGradient id="linear-gradient-12" x1="723.99" y1="606.65" x2="732.81" y2="597.83" gradientTransform="translate(198.36 -540.49) rotate(28.02)" gradientUnits="userSpaceOnUse"><stop offset="0" stop-color="#619bcd"/><stop offset="0.05" stop-color="#7eadd6" stop-opacity="0.82"/><stop offset="0.11" stop-color="#9cc0e0" stop-opacity="0.63"/><stop offset="0.18" stop-color="#b7d1e8" stop-opacity="0.46"/><stop offset="0.26" stop-color="#cde0ef" stop-opacity="0.31"/><stop offset="0.34" stop-color="#e0ebf5" stop-opacity="0.2"/><stop offset="0.43" stop-color="#eef4fa" stop-opacity="0.11"/><stop offset="0.54" stop-color="#f8fafd" stop-opacity="0.05"/><stop offset="0.69" stop-color="#fdfefe" stop-opacity="0.01"/><stop offset="1" stop-color="#fff" stop-opacity="0"/></linearGradient><linearGradient id="linear-gradient-13" x1="727.29" y1="608.01" x2="739.4" y2="595.91" xlink:href="#linear-gradient-12"/><linearGradient id="linear-gradient-14" x1="725.16" y1="597.34" x2="732.69" y2="589.81" xlink:href="#linear-gradient-12"/><linearGradient id="linear-gradient-15" x1="731.75" y1="595.42" x2="735.99" y2="591.18" xlink:href="#linear-gradient-12"/><linearGradient id="linear-gradient-16" x1="732.23" y1="608.87" x2="724.57" y2="595.61" xlink:href="#linear-gradient-12"/><linearGradient id="linear-gradient-17" x1="736.47" y1="607.38" x2="730.22" y2="596.55" xlink:href="#linear-gradient-12"/><linearGradient id="linear-gradient-18" x1="730.25" y1="595.87" x2="727.6" y2="591.29" xlink:href="#linear-gradient-12"/><linearGradient id="linear-gradient-19" x1="735.89" y1="596.81" x2="731.84" y2="589.79" xlink:href="#linear-gradient-12"/><linearGradient id="linear-gradient-20" x1="447.98" y1="641.68" x2="498.01" y2="641.68" xlink:href="#linear-gradient"/><linearGradient id="linear-gradient-21" x1="513.45" y1="639.46" x2="543.34" y2="639.46" xlink:href="#linear-gradient"/><linearGradient id="linear-gradient-22" x1="489.9" y1="617.45" x2="549.09" y2="617.45" xlink:href="#linear-gradient"/><linearGradient id="linear-gradient-23" x1="416.57" y1="307.07" x2="438.81" y2="329.32" xlink:href="#linear-gradient"/><linearGradient id="linear-gradient-24" x1="1648.49" y1="686.79" x2="1890.89" y2="929.2" gradientTransform="matrix(-1, 0, 0, 1, 2169.28, 0)" xlink:href="#linear-gradient"/><linearGradient id="linear-gradient-25" x1="180.24" y1="104.48" x2="127.72" y2="13.52" gradientUnits="userSpaceOnUse"><stop offset="0" stop-color="#619bcd"/><stop offset="0.06" stop-color="#75a7d3" stop-opacity="0.88"/><stop offset="0.18" stop-color="#99bfdf" stop-opacity="0.64"/><stop offset="0.31" stop-color="#b8d2e9" stop-opacity="0.45"/><stop offset="0.43" stop-color="#d2e3f1" stop-opacity="0.28"/><stop offset="0.57" stop-color="#e6eff7" stop-opacity="0.16"/><stop offset="0.7" stop-color="#f4f8fb" stop-opacity="0.07"/><stop offset="0.84" stop-color="#fcfdfe" stop-opacity="0.02"/><stop offset="1" stop-color="#fff" stop-opacity="0"/></linearGradient><linearGradient id="linear-gradient-26" x1="143.83" y1="158.09" x2="164.13" y2="137.79" xlink:href="#linear-gradient-25"/><linearGradient id="linear-gradient-27" x1="827.95" y1="774.56" x2="1033.14" y2="774.56" gradientTransform="matrix(-1, 0, 0, -1, 1196.66, 1140.24)" gradientUnits="userSpaceOnUse"><stop offset="0" stop-color="#619bcd"/><stop offset="0.05" stop-color="#6ea3d1" stop-opacity="0.92"/><stop offset="0.24" stop-color="#9abfdf" stop-opacity="0.64"/><stop offset="0.42" stop-color="#bed6ea" stop-opacity="0.41"/><stop offset="0.59" stop-color="#dae8f3" stop-opacity="0.23"/><stop offset="0.75" stop-color="#eef5fa" stop-opacity="0.1"/><stop offset="0.89" stop-color="#fbfcfe" stop-opacity="0.03"/><stop offset="1" stop-color="#fff" stop-opacity="0"/></linearGradient><linearGradient id="linear-gradient-28" x1="827.95" y1="774.29" x2="1033.14" y2="774.29" gradientTransform="matrix(-1, 0, 0, -1, 1196.66, 1140.24)" xlink:href="#linear-gradient-11"/><linearGradient id="linear-gradient-29" x1="837.26" y1="774.29" x2="1042.45" y2="774.29" gradientTransform="matrix(-1, 0, 0, -1, 1196.66, 1140.24)" xlink:href="#linear-gradient-25"/><linearGradient id="linear-gradient-30" x1="424.73" y1="668.59" x2="485.07" y2="608.25" gradientUnits="userSpaceOnUse"><stop offset="0" stop-color="#619bcd"/><stop offset="0.01" stop-color="#669ecf" stop-opacity="0.97"/><stop offset="0.1" stop-color="#8ab5da" stop-opacity="0.74"/><stop offset="0.2" stop-color="#a9c9e4" stop-opacity="0.54"/><stop offset="0.3" stop-color="#c4daec" stop-opacity="0.37"/><stop offset="0.4" stop-color="#d9e7f3" stop-opacity="0.24"/><stop offset="0.52" stop-color="#eaf2f8" stop-opacity="0.13"/><stop offset="0.64" stop-color="#f6f9fc" stop-opacity="0.06"/><stop offset="0.79" stop-color="#fdfefe" stop-opacity="0.01"/><stop offset="1" stop-color="#fff" stop-opacity="0"/></linearGradient><linearGradient id="linear-gradient-31" x1="278.61" y1="381.25" x2="302.71" y2="381.25" xlink:href="#linear-gradient-30"/><linearGradient id="linear-gradient-32" x1="385.84" y1="629.01" x2="445.84" y2="569.01" xlink:href="#linear-gradient-30"/></defs><title>modeloE</title><path class="cls-2" d="M755.43,872.11H193a27,27,0,0,0-27,27h0a27,27,0,0,0,27,27H755.43a27,27,0,0,0,27-27h0A27,27,0,0,0,755.43,872.11Z" transform="translate(-166.02 -240.54)"/><polygon class="cls-3" points="371.59 483.42 443.93 531.88 519.97 507.79 371.59 483.42"/><polygon class="cls-2" points="442.27 263.51 418.83 227.38 379.63 250.79 403.22 279.91 442.01 322.88 466.11 268.62 442.27 263.51"/><polygon class="cls-2" points="534.83 329.38 527.16 372.38 556.94 381.77 589.1 324.59 534.83 329.38"/><path class="cls-4" d="M663.09,673.74a28.52,28.52,0,0,0,37.11-7.43L731.42,625,749,600.8a11.15,11.15,0,0,0-2.09-15.27l-22.46-17.84-12.91,6-2.79,18.21,6.21,4.67-3,13-14.38,14.06,12.33-52.4-32.71-27.47L712.64,461l-30.76-85-70.29.29-32.23,82.18L590,500.32a23.9,23.9,0,0,0,17.6,17.34l12.52,3,1.41,4.81-16.72,1.85-41.65,35.05,4.54-17,9.11-11.52,9.72,0.82,8-12.73L590.82,510l-22.63-6a10.45,10.45,0,0,0-12.1,5.54l-12.32,25.45-23.2,42.56a24.19,24.19,0,0,0,9.67,32.82l18.81,10.25,25.15-20.69L571.41,648l-16.15,61.83L592,786.7,633.88,870l-6.82,18.46L614,906.36l34.13-4.72,5.55-13.43s9.86,12.45,9.7,11.24,0.66-30.93.66-30.93L652,858.1l-1-9.57,28.53,29.95,6.9,24.95,23-29.85-12.44-17,18.2-4L684.9,837.51l-9.42,3.28-29.27-54.67,21-83.65-15.7-33.61,0.93-1.33Z" transform="translate(-166.02 -240.54)"/><path class="cls-5" d="M608,421.11a6,6,0,0,1,12,1.34" transform="translate(-166.02 -240.54)"/><path class="cls-5" d="M660.44,430.31a6,6,0,0,1,11.29,4.19" transform="translate(-166.02 -240.54)"/><path class="cls-6" d="M650.14,477.43a15.24,15.24,0,0,0-10.84-12.62l-19.9-4.75a12.68,12.68,0,0,0-13,5.2c-0.45.66-1.67,2.51-2,3.22l-4.2,8.15,0.54,8.73a20.81,20.81,0,0,0,6.51,14.07q0.43,0.4.89,0.78c8.57,7.13,21,7.11,30,.64a18.56,18.56,0,0,0,4.38-4.12L650.14,486v-8.58Zm-24.43,22.62h0c-5.3,0-14.67-4.54-14.67-4.54a13.38,13.38,0,0,1-5.49-7.43L603.43,481a5.59,5.59,0,0,1,.5-4.76l8.13-12.66,22.61,3.66,7.53,4.13,4.76,11a3,3,0,0,1-.54,3.21l-8.17,8.93A17.06,17.06,0,0,1,625.71,500.05Z" transform="translate(-166.02 -240.54)"/><path class="cls-7" d="M625.86,500.08h0a27.47,27.47,0,0,1-15-4.38h0a13.25,13.25,0,0,1-5.52-7.35l-2.17-7.26a5.78,5.78,0,0,1,.71-4.82l8.28-12.62,22.61,3.66,7.53,4.13,4.76,11a3,3,0,0,1-.54,3.21l-8.17,8.93A17.06,17.06,0,0,1,625.86,500.08Z" transform="translate(-166.02 -240.54)"/><g class="cls-8"><path class="cls-9" d="M611.84,459.55c-5.75,2.12-9.37,7.71-11.71,13.6,24.12-.31,40.25,4.8,50.83,9.91C656.09,485.54,630.25,452.75,611.84,459.55Z" transform="translate(-166.02 -240.54)"/></g><polygon class="cls-10" points="485.41 123.19 457.45 202.48 462.1 207.88 472.63 206.98 485.41 123.19"/><path class="cls-2" d="M602.43,406.47l13.85-1,11.89,7.94,3.72-3.74-4-3a17,17,0,0,0-14.17-2.9Z" transform="translate(-166.02 -240.54)"/><path class="cls-2" d="M654.39,409.4l-3,8.1,19-1.25,15.91,12.81L681,420.37a16.81,16.81,0,0,0-10.77-7.59Z" transform="translate(-166.02 -240.54)"/><path class="cls-2" d="M745.22,463.76h0l2-44.26-19.25-24.28a79.19,79.19,0,0,1-14.5-28.93l-10.27-13.85-64-12a93.68,93.68,0,0,0-42.85,5.14l-7.46,2.74-0.63,6.77c-1.77,19-17.79,35.44-30.6,49.57l-0.25.27-8.09,8.87,2.63,13c2.86,14.18,9.46,30.47,3.37,43.6l-9.68,20.89,36.52-21.8,13.28-52L614,379.59l58.67,4.1,21.81,35.41-6.35,56.85,0.35,34-16.38,30.41,28.71,29.59,54.27-4.79-7.93-48.32L736,510A57,57,0,0,1,745.22,463.76Z" transform="translate(-166.02 -240.54)"/><polygon class="cls-11" points="379.63 250.79 423.93 259.51 416.15 228.98 379.63 250.79"/><polygon class="cls-12" points="383.31 173.26 416.15 228.98 429.43 176.96 383.31 173.26"/><polygon class="cls-13" points="422.87 107.77 448.02 139.05 429.43 176.96 422.87 107.77"/><polygon class="cls-14" points="537.16 111.88 448.02 139.05 506.69 143.15 537.16 111.88"/><polygon class="cls-15" points="581.17 178.95 506.69 143.15 528.5 178.55 581.17 178.95"/><polygon class="cls-16" points="522.14 235.4 579.2 223.22 581.17 178.95 522.14 235.4"/><polygon class="cls-17" points="581.17 276.27 522.14 235.4 522.5 269.38 581.17 276.27"/><polygon class="cls-18" points="534.83 329.38 581.17 276.27 506.12 299.79 534.83 329.38"/><path class="cls-5" d="M604.83,527.31l5.1,29.31,65.54-12.56,1.81,1.58,0.84,62.42-26.6,60.8,41.74,57.07A15,15,0,0,1,686,748.34L617.91,769.8l-3.5-11L537.61,724a13,13,0,0,1-6.43-17l42.22-67.18-5.6-64.32,24.64-37.69Z" transform="translate(-166.02 -240.54)"/><polygon class="cls-19" points="451.9 529.26 407.38 399.2 438.72 329.38 462.5 432.72 451.9 529.26"/><polygon class="cls-19" points="443.91 316.08 447 322.88 438.72 329.38 512.1 367.51 511.26 305.1 509.45 303.52 443.91 316.08"/><polygon class="cls-20" points="443.91 316.08 447 322.88 438.72 329.38 512.1 367.51 511.26 305.1 509.45 303.52 443.91 316.08"/><polygon class="cls-2" points="443.91 316.08 434.94 322.88 438.72 329.38 447 322.88 443.91 316.08"/><polygon class="cls-21" points="438.72 329.38 407.38 399.2 462.5 432.72 438.72 329.38"/><path class="cls-2" d="M722.13,586.17l-2.44-1.93,0.86-1.63a19.13,19.13,0,0,1,4.38-5.5l1.22-1.06L728.6,578l-1.13,1a19.13,19.13,0,0,0-4.41,5.49Z" transform="translate(-166.02 -240.54)"/><path class="cls-22" d="M722.13,586.17l-2.44-1.93,0.86-1.63a19.13,19.13,0,0,1,4.38-5.5l1.22-1.06L728.6,578l-1.13,1a19.13,19.13,0,0,0-4.41,5.49Z" transform="translate(-166.02 -240.54)"/><polygon class="cls-19" points="570.27 326.94 568.6 326.17 564.11 324.09 562.44 323.32 557.34 325.73 553.38 338.12 555.05 338.89 559.54 340.97 561.21 341.75 570.83 331.96 570.27 326.94"/><polygon class="cls-23" points="557.34 325.73 553.38 338.12 559.54 340.97 563.51 328.58 557.34 325.73"/><polygon class="cls-24" points="570.83 331.96 561.21 341.75 555.05 338.89 564.66 329.11 570.83 331.96"/><polygon class="cls-25" points="557.34 325.73 562.44 323.32 568.6 326.17 563.51 328.58 557.34 325.73"/><polygon class="cls-26" points="570.83 331.96 570.27 326.94 564.11 324.09 564.66 329.11 570.83 331.96"/><polygon class="cls-27" points="557.34 325.73 553.38 338.12 559.54 340.97 563.51 328.58 557.34 325.73"/><polygon class="cls-28" points="570.83 331.96 561.21 341.75 555.05 338.89 564.66 329.11 570.83 331.96"/><polygon class="cls-29" points="557.34 325.73 562.44 323.32 568.6 326.17 563.51 328.58 557.34 325.73"/><polygon class="cls-30" points="570.83 331.96 570.27 326.94 564.11 324.09 564.66 329.11 570.83 331.96"/><polygon class="cls-19" points="485.96 617.56 466.76 627.24 467.87 629.43 466.76 632.42 461.04 647.89 447.98 665.81 482.11 661.09 487.65 647.67 463.91 647.87 469.16 631.22 486.25 622.71 487.65 647.67 498.01 659.67 498.01 627.98 485.96 617.56"/><polygon class="cls-19" points="513.45 637.93 520.35 662.88 543.34 633.03 530.9 616.03 513.45 637.93"/><polygon class="cls-19" points="494.3 614.33 512.25 602.29 530.9 616.03 549.09 612.04 518.89 596.97 509.47 600.25 489.9 613.22 492.26 615.7 513.45 637.93 514.74 636.31 494.3 614.33"/><polygon class="cls-31" points="485.96 617.56 466.76 627.24 467.87 629.43 466.76 632.42 461.04 647.89 447.98 665.81 482.11 661.09 487.65 647.67 463.91 647.87 469.16 631.22 486.25 622.71 487.65 647.67 498.01 659.67 498.01 627.98 485.96 617.56"/><polygon class="cls-32" points="513.45 637.93 520.35 662.88 543.34 633.03 530.9 616.03 513.45 637.93"/><polygon class="cls-33" points="494.3 614.33 512.25 602.29 530.9 616.03 549.09 612.04 518.89 596.97 509.47 600.25 489.9 613.22 492.26 615.7 513.45 637.93 514.74 636.31 494.3 614.33"/><polygon class="cls-19" points="443.93 316.08 438.83 286.77 426.45 297.19 401.8 334.88 438.75 329.38 434.96 322.88 443.93 316.08"/><polygon class="cls-34" points="443.93 316.08 438.83 286.77 426.45 297.19 401.8 334.88 438.75 329.38 434.96 322.88 443.93 316.08"/><path class="cls-35" d="M279.41,731.38q0-1.84-.09-3.65A43.7,43.7,0,0,0,335,677.89h174v0.78H509V899.09H248.27V791.92A74.33,74.33,0,0,0,279.41,731.38Z" transform="translate(-166.02 -240.54)"/><path class="cls-19" d="M480.92,683.42H307q-0.19-1-.44-2.07H481v2.85h-0.1v-0.78Z" transform="translate(-166.02 -240.54)"/><path class="cls-19" d="M323.41,661.73H521.78a8.47,8.47,0,0,1,8.47,8.47h0a8.47,8.47,0,0,1-8.47,8.47H509v-2.85H320A73.91,73.91,0,0,0,323.41,661.73Z" transform="translate(-166.02 -240.54)"/><rect class="cls-19" x="151.14" y="41.52" width="5.68" height="76.49"/><rect class="cls-19" x="151.14" y="10.54" width="5.68" height="21.56"/><rect class="cls-36" x="151.14" width="5.68" height="118"/><circle class="cls-2" cx="153.98" cy="147.94" r="14.36"/><circle class="cls-37" cx="153.98" cy="147.94" r="14.36"/><path class="cls-19" d="M320.17,337a51.3,51.3,0,0,0-51.47,51.12l102.59,0.35A51.3,51.3,0,0,0,320.17,337Z" transform="translate(-166.02 -240.54)"/><path class="cls-38" d="M356.65,388.43l14.64,0.05a51.27,51.27,0,0,0-58.44-51A51.3,51.3,0,0,1,356.65,388.43Z" transform="translate(-166.02 -240.54)"/><path class="cls-39" d="M268.7,388.13l88,0.3a51.3,51.3,0,0,0-43.8-50.92A51.3,51.3,0,0,0,268.7,388.13Z" transform="translate(-166.02 -240.54)"/><path class="cls-40" d="M357.1,388.44l4.88,0a51.3,51.3,0,0,0-43.8-50.92c-0.82.11-1.63,0.25-2.44,0.4A51.3,51.3,0,0,1,357.1,388.44Z" transform="translate(-166.02 -240.54)"/><path class="cls-41" d="M367.12,624.35c-11.35,14.08,8.74,38.16,0,45.87-12.3,10.85-72.15-19.13-70.27-50.75,0.39-6.57,3.38-12.16,6.83-16.59" transform="translate(-166.02 -240.54)"/><rect class="cls-19" x="315.63" y="578.44" width="1.95" height="13.83" rx="0.44" ry="0.44" transform="translate(160.8 1010.22) rotate(-152.47)"/><rect class="cls-19" x="309.86" y="575.43" width="1.95" height="13.83" rx="0.44" ry="0.44" transform="translate(151.3 1001.88) rotate(-152.47)"/><path class="cls-5" d="M316.94,587h0a0,0,0,0,1,0,0v20.39a0,0,0,0,1,0,0H296.56a0,0,0,0,1,0,0v0A20.39,20.39,0,0,1,316.94,587Z" transform="translate(136.73 1028.05) rotate(-152.47)"/><path class="cls-5" d="M296.56,587h20.39a0,0,0,0,1,0,0v20.39a0,0,0,0,1,0,0h0A20.39,20.39,0,0,1,296.56,587v0A0,0,0,0,1,296.56,587Z" transform="translate(144.74 -314.7) rotate(27.53)"/><rect class="cls-19" x="303.52" y="592.19" width="7.69" height="7.69" rx="3.85" ry="3.85" transform="translate(138.44 1026.11) rotate(-152.47)"/><path class="cls-2" d="M443.86,521.73l14.07-22.42a91.52,91.52,0,0,1,9.47-11.89,3.39,3.39,0,0,0,0-4.5L465,480.27c-7.72-8.64-13.18-21.67-23.95-25.95l-2.62-1a11.45,11.45,0,0,0-1.52-.49c-2-.48-5.27-0.93-7,2.51l7.6-.35c10.77,4.27,16.22,17.31,23.95,25.95l2.37,2.65a3.39,3.39,0,0,1-.1,4.62,77.87,77.87,0,0,0-9.94,12.7l-13.49,21.49c0,0.07-3.69.7-3.73,0.76C437.84,523.91,441.11,525.66,443.86,521.73Z" transform="translate(-166.02 -240.54)"/><path class="cls-4" d="M453.84,500.86a77.87,77.87,0,0,1,10-12.71,3.38,3.38,0,0,0,.09-4.61l-2.37-2.65c-7.72-8.64-13.17-21.67-23.95-25.95l-3.3-1.31h0a3.39,3.39,0,0,0-4.29,1.67l0,0.08A77.87,77.87,0,0,1,421.51,469L405.93,489.1a2.63,2.63,0,0,0,.57,3.76l30.11,30.25a2.62,2.62,0,0,0,3.59-.58c0-.06.1-0.11,0.14-0.18Z" transform="translate(-166.02 -240.54)"/><path class="cls-42" d="M427.42,471.06c8.23,0,2.11,21.68.22,29.5,10.35,9.22,4.83-15.95,10.56-12.22,4.67,3,10.17,1.54,15.71,3.18l0.1,0C442,476.43,434.87,471.06,427.42,471.06Z" transform="translate(-166.02 -240.54)"/><path class="cls-5" d="M412.83,584.55a52.28,52.28,0,0,0-35.91,5.37l-19.46,10.71h0V651.4a16.61,16.61,0,0,0,13.17,16.21l67.16,14V617.44l36.42-20Z" transform="translate(-166.02 -240.54)"/><path class="cls-19" d="M437.79,617.44v64.22l26.65-15.59a19.79,19.79,0,0,0,9.77-17V597.39Z" transform="translate(-166.02 -240.54)"/><path class="cls-43" d="M437.79,617.44v64.22l26.65-15.59a19.79,19.79,0,0,0,9.77-17V597.39Z" transform="translate(-166.02 -240.54)"/><polygon class="cls-5" points="301.36 371.45 277.26 384.72 277.26 388.35 278.61 389.7 302.71 376.44 302.71 372.8 301.36 371.45"/><polygon class="cls-44" points="278.61 386.07 278.61 389.7 302.71 376.44 302.71 372.8 278.61 386.07"/><path class="cls-5" d="M455.64,612.16h0a1.61,1.61,0,0,0-.39,1.14v52.46c0,1,.63,1.62,1.13,1.12h0a1.64,1.64,0,0,0,.37-1.12V613.29C456.75,612.31,456.14,611.68,455.64,612.16Z" transform="translate(-166.02 -240.54)"/><path class="cls-45" d="M357.46,600.64l80.33,16.8,36.42-20-61.38-12.84a52.28,52.28,0,0,0-35.91,5.37Z" transform="translate(-166.02 -240.54)"/><path class="cls-19" d="M385.2,597.44L440,608.91a1.53,1.53,0,0,0,1-.16l1.81-1a1.53,1.53,0,0,0-.42-2.83l-54.81-11.47a1.53,1.53,0,0,0-1,.16l-1.81,1A1.53,1.53,0,0,0,385.2,597.44Z" transform="translate(-166.02 -240.54)"/><path class="cls-19" d="M392.6,592.7l54.81,11.47a1.53,1.53,0,0,0,1-.16l1.81-1a1.53,1.53,0,0,0-.42-2.83L395,588.71a1.53,1.53,0,0,0-1,.16l-1.81,1A1.53,1.53,0,0,0,392.6,592.7Z" transform="translate(-166.02 -240.54)"/><path class="cls-2" d="M433.76,537.31l-1.3-26.44a91.52,91.52,0,0,1,1-15.17,3.39,3.39,0,0,0-2.58-3.69l-3.46-.82c-11.28-2.66-23.21-10.22-34.49-7.56l-2.75.65a11.45,11.45,0,0,0-1.52.47c-1.9.74-4.85,2.25-4.28,6l6-4.64c11.28-2.66,23.21,4.9,34.49,7.56l3.46,0.82a3.39,3.39,0,0,1,2.56,3.85,77.87,77.87,0,0,0-.88,16.1l1.25,25.35c0,0.08-2.62,2.68-2.63,2.76C430.07,542.54,433.76,542.1,433.76,537.31Z" transform="translate(-166.02 -240.54)"/><path class="cls-4" d="M430,514.48a77.87,77.87,0,0,1,.88-16.12,3.38,3.38,0,0,0-2.56-3.83l-3.46-.82c-11.28-2.66-23.21-10.22-34.49-7.56l-3.45.82h0a3.39,3.39,0,0,0-2.57,3.82v0.09a77.87,77.87,0,0,1,.86,15.94L384,532.27a2.63,2.63,0,0,0,2.63,2.76l42,7.56a2.62,2.62,0,0,0,2.61-2.53c0-.08,0-0.15,0-0.23Z" transform="translate(-166.02 -240.54)"/><path class="cls-42" d="M392.53,507.56c-4.08-7.14,33.48,23.76,15.81,21.67,13.77,1.63,12.53-2.66,10.15-9.06a10.31,10.31,0,0,1,6.22-13.4l0.1,0C406.29,501.23,381.83,488.85,392.53,507.56Z" transform="translate(-166.02 -240.54)"/><path class="cls-19" d="M378.69,456.45l-0.11-3.25a34.18,34.18,0,0,0-32.84,30.41c0.1,0.54.21,1.08,0.33,1.62A34.19,34.19,0,0,1,378.69,456.45Z" transform="translate(-166.02 -240.54)"/><path class="cls-19" d="M369.18,440.82l-0.11-3.25A34.18,34.18,0,0,0,336.23,468c0.1,0.54.21,1.08,0.33,1.62A34.19,34.19,0,0,1,369.18,440.82Z" transform="translate(-166.02 -240.54)"/><path class="cls-19" d="M437.47,556.47l0.56,2a22,22,0,0,0,15.93-24q-0.21-.49-0.45-1A22,22,0,0,1,437.47,556.47Z" transform="translate(-166.02 -240.54)"/><path class="cls-19" d="M445.81,564.81l0.56,2a22,22,0,0,0,15.93-24q-0.21-.49-0.45-1A22,22,0,0,1,445.81,564.81Z" transform="translate(-166.02 -240.54)"/></svg>