<svg id="Layer_1" data-name="Layer 1" xmlns="http://www.w3.org/2000/svg" xmlns:xlink="http://www.w3.org/1999/xlink" viewBox="0 0 666.94 570.88"><defs><style>.cls-1{fill:#c68930;}.cls-2{fill:#747474;}.cls-3{fill:url(#linear-gradient);}.cls-4{fill:url(#linear-gradient-2);}.cls-5{fill:url(#linear-gradient-3);}.cls-6{fill:url(#linear-gradient-4);}.cls-7{fill:url(#linear-gradient-5);}.cls-8{fill:none;stroke:#0b1e2f;stroke-miterlimit:10;stroke-width:3px;}.cls-9{fill:#0b1e2f;}.cls-10{fill:url(#linear-gradient-6);}.cls-11{fill:url(#linear-gradient-7);}.cls-12{fill:url(#linear-gradient-8);}.cls-13{fill:url(#linear-gradient-10);}.cls-14{fill:#dba565;}.cls-15{fill:url(#linear-gradient-11);}.cls-16{fill:url(#linear-gradient-12);}.cls-17{fill:url(#linear-gradient-13);}.cls-18{fill:url(#linear-gradient-14);}.cls-19{fill:url(#linear-gradient-15);}.cls-20{fill:url(#linear-gradient-16);}.cls-21{fill:#e9bfbc;}.cls-22{fill:url(#linear-gradient-17);}.cls-23{fill:url(#linear-gradient-18);}.cls-24{fill:#dcadaa;}.cls-25{fill:url(#linear-gradient-19);}.cls-26{fill:url(#linear-gradient-20);}.cls-27{fill:url(#linear-gradient-21);}.cls-28{fill:url(#linear-gradient-22);}.cls-29{fill:url(#linear-gradient-23);}.cls-30{fill:url(#linear-gradient-24);}.cls-31{fill:url(#linear-gradient-25);}.cls-32{fill:url(#linear-gradient-26);}.cls-33{fill:url(#linear-gradient-27);}.cls-34{fill:url(#linear-gradient-28);}.cls-35{fill:url(#linear-gradient-29);}.cls-36{fill:url(#linear-gradient-30);}.cls-37{fill:url(#linear-gradient-31);}.cls-38{fill:url(#linear-gradient-32);}.cls-39{fill:url(#linear-gradient-33);}.cls-40{fill:url(#linear-gradient-34);}.cls-41{fill:url(#linear-gradient-35);}.cls-42{fill:url(#linear-gradient-36);}.cls-43{fill:url(#linear-gradient-37);}.cls-44{fill:url(#linear-gradient-38);}</style><linearGradient id="linear-gradient" x1="490.43" y1="100.98" x2="439.67" y2="13.07" gradientUnits="userSpaceOnUse"><stop offset="0" stop-color="#619acc"/><stop offset="0.06" stop-color="#74a6d2" stop-opacity="0.88"/><stop offset="0.18" stop-color="#99bede" stop-opacity="0.65"/><stop offset="0.31" stop-color="#b8d2e8" stop-opacity="0.45"/><stop offset="0.43" stop-color="#d2e2f0" stop-opacity="0.29"/><stop offset="0.56" stop-color="#e6eff7" stop-opacity="0.16"/><stop offset="0.7" stop-color="#f4f8fb" stop-opacity="0.07"/><stop offset="0.84" stop-color="#fcfdfe" stop-opacity="0.02"/><stop offset="1" stop-color="#fff" stop-opacity="0"/></linearGradient><linearGradient id="linear-gradient-2" x1="455.24" y1="152.79" x2="474.86" y2="133.17" xlink:href="#linear-gradient"/><linearGradient id="linear-gradient-3" x1="596.8" y1="410.58" x2="795.11" y2="410.58" gradientTransform="matrix(-1, 0, 0, -1, 1198.3, 545.63)" gradientUnits="userSpaceOnUse"><stop offset="0" stop-color="#619acc"/><stop offset="0.05" stop-color="#6da2d0" stop-opacity="0.92"/><stop offset="0.24" stop-color="#99bede" stop-opacity="0.64"/><stop offset="0.42" stop-color="#bed5ea" stop-opacity="0.41"/><stop offset="0.59" stop-color="#dae7f3" stop-opacity="0.23"/><stop offset="0.75" stop-color="#eef4fa" stop-opacity="0.11"/><stop offset="0.89" stop-color="#fbfcfe" stop-opacity="0.03"/><stop offset="1" stop-color="#fff" stop-opacity="0"/></linearGradient><linearGradient id="linear-gradient-4" x1="596.8" y1="410.33" x2="795.11" y2="410.33" gradientTransform="matrix(-1, 0, 0, -1, 1198.3, 545.63)" gradientUnits="userSpaceOnUse"><stop offset="0" stop-color="#619acc"/><stop offset="0.01" stop-color="#669dce" stop-opacity="0.97"/><stop offset="0.05" stop-color="#86b1d8" stop-opacity="0.77"/><stop offset="0.1" stop-color="#a3c4e1" stop-opacity="0.58"/><stop offset="0.16" stop-color="#bcd4e9" stop-opacity="0.42"/><stop offset="0.22" stop-color="#d1e2f0" stop-opacity="0.29"/><stop offset="0.29" stop-color="#e2ecf6" stop-opacity="0.18"/><stop offset="0.37" stop-color="#eff5fa" stop-opacity="0.1"/><stop offset="0.47" stop-color="#f8fbfd" stop-opacity="0.04"/><stop offset="0.61" stop-color="#fefeff" stop-opacity="0.01"/><stop offset="1" stop-color="#fff" stop-opacity="0"/></linearGradient><linearGradient id="linear-gradient-5" x1="605.8" y1="410.33" x2="804.11" y2="410.33" gradientTransform="matrix(-1, 0, 0, -1, 1198.3, 545.63)" xlink:href="#linear-gradient"/><linearGradient id="linear-gradient-6" x1="236.29" y1="442.39" x2="434.19" y2="442.39" gradientTransform="translate(-183.57 31.98) rotate(-15.1)" gradientUnits="userSpaceOnUse"><stop offset="0" stop-color="#619acc"/><stop offset="1" stop-color="#fff" stop-opacity="0"/></linearGradient><linearGradient id="linear-gradient-7" x1="277.83" y1="415.02" x2="385.41" y2="307.45" gradientTransform="translate(-183.57 31.98) rotate(-15.1)" gradientUnits="userSpaceOnUse"><stop offset="0" stop-color="#619acc"/><stop offset="0.32" stop-color="#639bcd" stop-opacity="0.99"/><stop offset="0.47" stop-color="#689fce" stop-opacity="0.95"/><stop offset="0.58" stop-color="#72a5d2" stop-opacity="0.89"/><stop offset="0.67" stop-color="#80aed6" stop-opacity="0.8"/><stop offset="0.75" stop-color="#92b9dc" stop-opacity="0.69"/><stop offset="0.82" stop-color="#a9c8e3" stop-opacity="0.55"/><stop offset="0.89" stop-color="#c3d9ec" stop-opacity="0.38"/><stop offset="0.95" stop-color="#e1ecf5" stop-opacity="0.19"/><stop offset="1" stop-color="#fff" stop-opacity="0"/></linearGradient><linearGradient id="linear-gradient-8" x1="-19.04" y1="-110.05" x2="112.36" y2="-241.44" gradientTransform="translate(268.82 571.76) rotate(10.46)" xlink:href="#linear-gradient-6"/><linearGradient id="linear-gradient-10" x1="44.35" y1="-153.86" x2="142.62" y2="-252.14" gradientTransform="translate(268.82 571.76) rotate(10.46)" xlink:href="#linear-gradient-7"/><linearGradient id="linear-gradient-11" x1="2847.86" y1="-444.7" x2="2883.63" y2="-444.7" gradientTransform="translate(-2497.65 177.58) rotate(9.87)" xlink:href="#linear-gradient-6"/><linearGradient id="linear-gradient-12" x1="2850.53" y1="-420.65" x2="2883.63" y2="-420.65" gradientTransform="translate(-2497.65 177.58) rotate(9.87)" xlink:href="#linear-gradient-6"/><linearGradient id="linear-gradient-13" x1="2151.23" y1="-1390.34" x2="2187.01" y2="-1390.34" gradientTransform="matrix(0.58, 0.82, -0.82, 0.58, -1921.06, -728.06)" xlink:href="#linear-gradient-6"/><linearGradient id="linear-gradient-14" x1="2153.91" y1="-1366.28" x2="2187.01" y2="-1366.28" gradientTransform="matrix(0.58, 0.82, -0.82, 0.58, -1921.06, -728.06)" xlink:href="#linear-gradient-6"/><linearGradient id="linear-gradient-15" x1="1091.23" y1="-1523.06" x2="1127" y2="-1523.06" gradientTransform="matrix(-0.17, 0.99, -0.99, -0.17, -809.21, -1061.33)" xlink:href="#linear-gradient-6"/><linearGradient id="linear-gradient-16" x1="1093.91" y1="-1499.01" x2="1127" y2="-1499.01" gradientTransform="matrix(-0.17, 0.99, -0.99, -0.17, -809.21, -1061.33)" xlink:href="#linear-gradient-6"/><linearGradient id="linear-gradient-17" x1="32.5" y1="231.71" x2="104.51" y2="231.71" gradientUnits="userSpaceOnUse"><stop offset="0" stop-color="#619acc"/><stop offset="0.39" stop-color="#629bcc" stop-opacity="0.99"/><stop offset="0.53" stop-color="#689ece" stop-opacity="0.96"/><stop offset="0.63" stop-color="#71a4d1" stop-opacity="0.9"/><stop offset="0.71" stop-color="#7eadd5" stop-opacity="0.82"/><stop offset="0.78" stop-color="#8fb7db" stop-opacity="0.71"/><stop offset="0.84" stop-color="#a4c5e2" stop-opacity="0.58"/><stop offset="0.9" stop-color="#bdd5ea" stop-opacity="0.42"/><stop offset="0.95" stop-color="#dae8f3" stop-opacity="0.23"/><stop offset="0.99" stop-color="#fafcfd" stop-opacity="0.03"/><stop offset="1" stop-color="#fff" stop-opacity="0"/></linearGradient><linearGradient id="linear-gradient-18" x1="128.71" y1="252.8" x2="202.24" y2="252.8" gradientTransform="matrix(1, 0, 0, 1, 0, 0)" xlink:href="#linear-gradient-6"/><linearGradient id="linear-gradient-19" x1="195.35" y1="509.55" x2="294.49" y2="410.4" xlink:href="#linear-gradient-17"/><linearGradient id="linear-gradient-20" x1="201.46" y1="547.84" x2="225.42" y2="523.88" gradientUnits="userSpaceOnUse"><stop offset="0" stop-color="#619acc"/><stop offset="0.18" stop-color="#84b1d7" stop-opacity="0.78"/><stop offset="0.47" stop-color="#b8d2e8" stop-opacity="0.45"/><stop offset="0.71" stop-color="#dfeaf5" stop-opacity="0.2"/><stop offset="0.9" stop-color="#f6f9fc" stop-opacity="0.06"/><stop offset="1" stop-color="#fff" stop-opacity="0"/></linearGradient><linearGradient id="linear-gradient-21" x1="262.06" y1="533.72" x2="282.43" y2="533.72" xlink:href="#linear-gradient-20"/><linearGradient id="linear-gradient-22" x1="207.1" y1="529.49" x2="232.07" y2="504.53" xlink:href="#linear-gradient-20"/><linearGradient id="linear-gradient-23" x1="267.62" y1="530.74" x2="290.09" y2="508.27" xlink:href="#linear-gradient-20"/><linearGradient id="linear-gradient-24" x1="394.23" y1="253.38" x2="404.46" y2="243.14" gradientTransform="matrix(0.86, -0.51, 0.51, 0.86, -131.68, 391.74)" gradientUnits="userSpaceOnUse"><stop offset="0" stop-color="#619acc"/><stop offset="0.13" stop-color="#649ccd" stop-opacity="0.98"/><stop offset="0.27" stop-color="#6fa3d0" stop-opacity="0.91"/><stop offset="0.41" stop-color="#7fadd6" stop-opacity="0.81"/><stop offset="0.56" stop-color="#97bddd" stop-opacity="0.66"/><stop offset="0.71" stop-color="#b5d0e7" stop-opacity="0.47"/><stop offset="0.87" stop-color="#dae7f3" stop-opacity="0.23"/><stop offset="1" stop-color="#fff" stop-opacity="0"/></linearGradient><linearGradient id="linear-gradient-25" x1="393.96" y1="251.47" x2="404.2" y2="241.23" xlink:href="#linear-gradient-24"/><linearGradient id="linear-gradient-26" x1="392.34" y1="251.47" x2="402.57" y2="241.23" xlink:href="#linear-gradient-24"/><linearGradient id="linear-gradient-27" x1="393.33" y1="252.47" x2="403.56" y2="242.23" xlink:href="#linear-gradient-24"/><linearGradient id="linear-gradient-28" x1="395.32" y1="250.48" x2="405.55" y2="240.24" xlink:href="#linear-gradient-24"/><linearGradient id="linear-gradient-29" x1="269.17" y1="285.92" x2="294.24" y2="260.85" gradientTransform="matrix(1, 0, 0, 1, 0, 0)" xlink:href="#linear-gradient-6"/><linearGradient id="linear-gradient-30" x1="208.59" y1="286.81" x2="225.85" y2="269.55" gradientTransform="matrix(1, 0, 0, 1, 0, 0)" xlink:href="#linear-gradient-6"/><linearGradient id="linear-gradient-31" x1="213.62" y1="356.6" x2="277.04" y2="293.18" gradientUnits="userSpaceOnUse"><stop offset="0" stop-color="#619acc"/><stop offset="0.1" stop-color="#7babd5" stop-opacity="0.83"/><stop offset="0.27" stop-color="#a3c4e1" stop-opacity="0.58"/><stop offset="0.43" stop-color="#c4d9ec" stop-opacity="0.37"/><stop offset="0.59" stop-color="#deeaf4" stop-opacity="0.21"/><stop offset="0.74" stop-color="#f0f5fa" stop-opacity="0.09"/><stop offset="0.88" stop-color="#fbfdfe" stop-opacity="0.02"/><stop offset="1" stop-color="#fff" stop-opacity="0"/></linearGradient><linearGradient id="linear-gradient-32" x1="328" y1="373.49" x2="354.05" y2="347.44" gradientTransform="translate(-32.95 56.94) rotate(-4.79)" xlink:href="#linear-gradient-6"/><linearGradient id="linear-gradient-33" x1="124.33" y1="307.48" x2="156.06" y2="275.75" gradientTransform="matrix(1, 0, 0, 1, 0, 0)" xlink:href="#linear-gradient-6"/><linearGradient id="linear-gradient-34" x1="462.04" y1="418.54" x2="448" y2="410.83" gradientTransform="matrix(-0.28, 0.96, -0.96, -0.28, 780.52, -133.6)" gradientUnits="userSpaceOnUse"><stop offset="0" stop-color="#619acc"/><stop offset="0.05" stop-color="#71a4d1" stop-opacity="0.9"/><stop offset="0.17" stop-color="#96bcdd" stop-opacity="0.66"/><stop offset="0.3" stop-color="#b6d1e8" stop-opacity="0.46"/><stop offset="0.44" stop-color="#d1e1f0" stop-opacity="0.29"/><stop offset="0.57" stop-color="#e5eef7" stop-opacity="0.16"/><stop offset="0.71" stop-color="#f4f8fb" stop-opacity="0.07"/><stop offset="0.85" stop-color="#fcfdfe" stop-opacity="0.02"/><stop offset="1" stop-color="#fff" stop-opacity="0"/></linearGradient><linearGradient id="linear-gradient-35" x1="200.45" y1="336.41" x2="215.64" y2="321.23" gradientTransform="matrix(1, 0, 0, 1, 0, 0)" xlink:href="#linear-gradient-34"/><linearGradient id="linear-gradient-36" x1="74.94" y1="105.93" x2="103.39" y2="77.48" gradientUnits="userSpaceOnUse"><stop offset="0" stop-color="#619acc"/><stop offset="0.04" stop-color="#6da1d0" stop-opacity="0.93"/><stop offset="0.17" stop-color="#93badc" stop-opacity="0.68"/><stop offset="0.3" stop-color="#b4cfe7" stop-opacity="0.47"/><stop offset="0.44" stop-color="#cfe0f0" stop-opacity="0.3"/><stop offset="0.57" stop-color="#e4eef6" stop-opacity="0.17"/><stop offset="0.71" stop-color="#f3f7fb" stop-opacity="0.08"/><stop offset="0.85" stop-color="#fcfdfe" stop-opacity="0.02"/><stop offset="1" stop-color="#fff" stop-opacity="0"/></linearGradient><linearGradient id="linear-gradient-37" x1="168.41" y1="127.59" x2="231.48" y2="64.51" xlink:href="#linear-gradient-36"/><linearGradient id="linear-gradient-38" x1="117.96" y1="116.22" x2="195.82" y2="38.35" xlink:href="#linear-gradient-36"/></defs><title>modeloD</title><rect class="cls-1" y="459.76" width="666.94" height="111.12" rx="55.56" ry="55.56"/><rect class="cls-2" x="462.31" y="40.12" width="5.49" height="73.92"/><rect class="cls-2" x="462.31" y="10.19" width="5.49" height="20.83"/><rect class="cls-3" x="462.31" width="5.49" height="114.04"/><circle class="cls-1" cx="465.05" cy="142.98" r="13.88"/><circle class="cls-4" cx="465.05" cy="142.98" r="13.88"/><path class="cls-2" d="M553.42,108a49.58,49.58,0,0,0-49.75,49.41l99.15,0.34A49.58,49.58,0,0,0,553.42,108Z" transform="translate(-88.2 -14.81)"/><path class="cls-5" d="M588.68,157.74l14.15,0a49.55,49.55,0,0,0-56.48-49.26A49.58,49.58,0,0,1,588.68,157.74Z" transform="translate(-88.2 -14.81)"/><path class="cls-6" d="M503.67,157.44l85,0.29a49.58,49.58,0,0,0-42.33-49.21A49.58,49.58,0,0,0,503.67,157.44Z" transform="translate(-88.2 -14.81)"/><path class="cls-7" d="M589.11,157.74l4.72,0a49.58,49.58,0,0,0-42.33-49.21c-0.79.11-1.58,0.24-2.36,0.39A49.58,49.58,0,0,1,589.11,157.74Z" transform="translate(-88.2 -14.81)"/><path class="cls-8" d="M378.09,442c84.36,4.08,112.2-10.9,119.64-28,4.23-9.69,2.4-21.25,10.49-25.39,13.3-6.8,42.86,11.88,43,29.26s-29.53,23.66-27.53,34.75c2.81,15.6,66.13,28.82,83.69,3.74,3.65-5.21,4.74-11.24,4.78-16.67" transform="translate(-88.2 -14.81)"/><rect class="cls-2" x="611.94" y="411.97" width="1.89" height="13.36" rx="0.44" ry="0.44" transform="translate(1.7 -122.84) rotate(10.87)"/><rect class="cls-2" x="618.12" y="413.16" width="1.89" height="13.36" rx="0.44" ry="0.44" transform="translate(2.04 -123.98) rotate(10.87)"/><path class="cls-9" d="M603.38,423.7h19.7a0,0,0,0,1,0,0v19.7a0,0,0,0,1,0,0h0a19.7,19.7,0,0,1-19.7-19.7v0A0,0,0,0,1,603.38,423.7Z" transform="translate(4.52 -122.63) rotate(10.87)"/><path class="cls-9" d="M623.08,423.7h0a0,0,0,0,1,0,0v19.7a0,0,0,0,1,0,0h-19.7a0,0,0,0,1,0,0v0A19.7,19.7,0,0,1,623.08,423.7Z" transform="translate(1045.53 960.12) rotate(-169.13)"/><rect class="cls-2" x="609.75" y="428.57" width="7.43" height="7.43" rx="3.72" ry="3.72" transform="translate(4.29 -122.7) rotate(10.87)"/><polygon class="cls-9" points="314.56 371.26 341.47 297.72 308.16 310.54 324.26 272.56 328.41 262.76 144.05 312.51 131.59 325.08 176.49 491.48 324.06 451.65 336.52 439.09 346.4 409.33 347.22 406.85 367.05 347.11 314.56 371.26"/><polygon class="cls-2" points="354.59 359.67 302.1 383.82 329 310.29 295.7 323.1 311.79 285.13 141.86 330.99 177.77 464.05 333.93 421.9 334.76 419.41 354.59 359.67"/><polygon class="cls-10" points="354.59 359.67 302.1 383.82 329 310.29 295.7 323.1 311.79 285.13 141.86 330.99 177.77 464.05 333.93 421.9 334.76 419.41 354.59 359.67"/><polygon class="cls-11" points="131.59 325.08 324.39 273.05 328.41 262.76 144.05 312.51 131.59 325.08"/><rect class="cls-2" x="268.39" y="477.86" width="55.88" height="12.53" rx="1.92" ry="1.92" transform="translate(-204.1 79.12) rotate(-15.1)"/><polygon class="cls-9" points="444.14 334.15 333.48 313.72 316.81 319.68 308.83 326.73 277.93 354.04 313.5 356.86 257.5 411.58 315.28 412.44 271.61 457.78 269.79 459.67 248.04 482.25 396.19 509.59 412.86 503.63 444.14 334.15"/><polygon class="cls-12" points="308.83 326.73 277.93 354.04 313.5 356.86 257.5 411.58 315.28 412.44 271.61 457.78 269.79 459.67 392.69 482.35 417.71 346.83 308.83 326.73"/><polygon class="cls-12" points="308.83 326.73 277.93 354.04 313.5 356.86 257.5 411.58 315.28 412.44 271.61 457.78 269.79 459.67 392.69 482.35 417.71 346.83 308.83 326.73"/><rect class="cls-2" x="423.12" y="498.61" width="55.88" height="12.53" rx="1.92" ry="1.92" transform="translate(10.93 -88.29) rotate(10.46)"/><polygon class="cls-13" points="333.48 313.72 316.81 319.68 427.56 340.12 396.19 509.59 412.86 503.63 444.14 334.15 333.48 313.72"/><polygon class="cls-1" points="387.1 211.21 399.43 246.66 416.72 249.67 387.1 211.21"/><polygon class="cls-14" points="411.12 297.52 398.78 262.06 381.49 259.06 411.12 297.52"/><polygon class="cls-14" points="381.49 259.06 399.43 246.66 416.72 249.67 381.49 259.06"/><polygon class="cls-1" points="416.72 249.67 398.78 262.06 381.49 259.06 416.72 249.67"/><polygon class="cls-15" points="387.1 211.21 399.43 246.66 416.72 249.67 387.1 211.21"/><polygon class="cls-16" points="416.72 249.67 398.78 262.06 381.49 259.06 416.72 249.67"/><polygon class="cls-1" points="467.42 221.63 451.07 255.43 461.17 269.78 467.42 221.63"/><polygon class="cls-14" points="423.37 299.65 439.72 265.86 429.62 251.5 423.37 299.65"/><polygon class="cls-14" points="429.62 251.5 451.07 255.43 461.17 269.78 429.62 251.5"/><polygon class="cls-1" points="461.17 269.78 439.72 265.86 429.62 251.5 461.17 269.78"/><polygon class="cls-17" points="467.42 221.63 451.07 255.43 461.17 269.78 467.42 221.63"/><polygon class="cls-18" points="461.17 269.78 439.72 265.86 429.62 251.5 461.17 269.78"/><polygon class="cls-1" points="520.54 277.52 485.08 289.86 482.08 307.14 520.54 277.52"/><polygon class="cls-14" points="434.23 301.54 469.69 289.2 472.69 271.92 434.23 301.54"/><polygon class="cls-14" points="472.69 271.92 485.08 289.86 482.08 307.14 472.69 271.92"/><polygon class="cls-1" points="482.08 307.14 469.69 289.2 472.69 271.92 482.08 307.14"/><polygon class="cls-19" points="520.54 277.52 485.08 289.86 482.08 307.14 520.54 277.52"/><polygon class="cls-20" points="482.08 307.14 469.69 289.2 472.69 271.92 482.08 307.14"/><path class="cls-21" d="M354.87,359.57l-38.05-62.91-37.28-23.3L237.6,297.44,212.75,265.6l-15.53,15.53-35.72,6.21-2.33-14.76L131,257.05l-9.14,52,77.66,21,2.33,103.29,7.77,81.55,27.18,5.44,12.43-66,13.2,62.13h27.18L296,465.57l9.19-47,3.11-63.68,16.31,17.86-3.8,36.49-9.47,9.12-0.76,11.92a2.19,2.19,0,0,0,3.81,1.6l4.55-5.06,1.49,5-4.74,12.08,0.9,1.88a8.55,8.55,0,0,0,7.64,4.85l9.9,0.08,10.37-12.86,3.48-19.74-1.47-.54Z" transform="translate(-88.2 -14.81)"/><polygon class="cls-9" points="104.51 216.31 77.87 196.26 70.79 196.26 32.5 247.11 59.14 267.17 66.23 267.17 104.51 216.31"/><polygon class="cls-22" points="104.51 216.31 77.87 196.26 70.79 196.26 32.5 247.11 59.14 267.17 66.23 267.17 104.51 216.31"/><rect class="cls-2" x="149.28" y="218.46" width="20.85" height="53.06" transform="translate(91.26 -61.6) rotate(36.97)"/><polygon class="cls-9" points="77.87 196.26 70.79 196.26 32.5 247.11 59.14 267.17 66.23 267.17 38.24 244.87 77.87 196.26"/><polygon class="cls-9" points="130.38 247.47 202.24 242.25 201.92 259.07 128.71 263.35 130.38 247.47"/><polygon class="cls-23" points="130.38 247.47 202.24 242.25 201.92 259.07 128.71 263.35 130.38 247.47"/><path class="cls-1" d="M298.33,172.68c0.66,1.1,4.57,18.68,6.75,28.63a12.12,12.12,0,0,1-3.55,11.44l-14.47,13.57Z" transform="translate(-88.2 -14.81)"/><path class="cls-21" d="M220.13,288.79l0.54-42.37a6.19,6.19,0,0,0-6.32-6.26l-21.63.47-18.36-19.09a19.67,19.67,0,0,1-5.49-13.63V134.28l14-17.86,65.24,3.88,24.64,15.15,0.21,47,8.54,1.55,5.44-10.87L304,171.2,281.48,288.79,245,299.66Z" transform="translate(-88.2 -14.81)"/><polygon class="cls-24" points="195.15 157.87 193.22 184.49 209.86 187.28 214.8 161.09 195.15 157.87"/><polygon class="cls-21" points="199.34 174.72 208.68 166.62 199.34 163.44 199.34 174.72"/><circle class="cls-9" cx="107.72" cy="159.32" r="4.15"/><circle class="cls-9" cx="142.38" cy="158.34" r="4.15"/><path class="cls-24" d="M220.74,189.87h-15c0-10.63,2.9-21.52,2.9-32.16,0-12.89-2.9-25.51-2.9-38.4h15c0,12.56-2.9,25.83-2.9,38.4C217.84,168.67,220.74,178.92,220.74,189.87Z" transform="translate(-88.2 -14.81)"/><path class="cls-1" d="M168.87,171.56L164.68,165a53.58,53.58,0,0,1-7.78-37.29l3.16-19.88L153.7,72l36.36,18.77,23.19-51.63L230.06,89.3l62.15-28L259.88,95.12l75.66,0.06-30.93,33.4h0a162.55,162.55,0,0,1-.81,48.61l-2.44,14.5-15.76-16-2.72,13.41L269.82,187l-1.94-49L239.52,125.3l-30.91,8.17L172,130.23Z" transform="translate(-88.2 -14.81)"/><polygon class="cls-1" points="90.33 152.74 91.94 156.25 96.08 152.23 113.19 144.38 111.44 140.57 95.47 147.9 90.33 152.74"/><polygon class="cls-1" points="139.55 129.86 138.23 134.51 155.25 139.32 164.05 145.16 165.14 141.29 160 137.32 139.55 129.86"/><path class="cls-21" d="M128.82,248.4l6,1.54,15.12-4a17.39,17.39,0,0,0,10-7.21l6.8-10.27-12.91-13.79-19.09,10.42Z" transform="translate(-88.2 -14.81)"/><path class="cls-21" d="M171.25,253.55l-8.38,11.08-4.36,11.93,20.73-20-1-2.18A4.1,4.1,0,0,0,171.25,253.55Z" transform="translate(-88.2 -14.81)"/><polygon class="cls-1" points="123.14 487.49 152.63 490.87 153.5 495.61 114.69 496.91 114.2 491.45 123.14 487.49"/><polygon class="cls-1" points="180.77 493.8 206.65 496.77 206.61 498.91 171.83 497.76 171.71 496.47 180.77 493.8"/><polygon class="cls-2" points="107.72 378.31 121.44 500.09 152.07 503.18 161.05 439.51 174.25 501.64 201.43 501.64 207.28 464.79 198.71 459.73 195.37 454.02 209.05 453.65 216.96 403.79 107.72 378.31"/><path class="cls-25" d="M283.57,468.82l13.68-.37L301.13,444c-5.25-4.1-8.92-13.45-8.92-24.34,0-1.38.06-2.73,0.17-4.06l-84.57-19.72a41.67,41.67,0,0,1,3,15.91c0,11.58-4.15,21.42-9.93,25.05l8.79,78,30.63,3.1,9-63.67,13.2,62.13h27.18l5.85-36.85-8.58-5.06Z" transform="translate(-88.2 -14.81)"/><polygon class="cls-9" points="114.2 491.45 153.5 495.61 147.7 525.55 140.51 538.73 134.52 549.51 98.58 549.51 98.58 538.73 111.76 520.75 114.01 493.75 114.2 491.45"/><path class="cls-1" d="M214.94,522.38l-6.59,13.18L200,546.35h0a15.51,15.51,0,0,0,12.77.83l2.21-.83,9-10.78V522.38h-9Z" transform="translate(-88.2 -14.81)"/><path class="cls-26" d="M214.94,522.38l-6.59,13.18L200,546.35h0a15.51,15.51,0,0,0,12.77.83l2.21-.83,9-10.78V522.38h-9Z" transform="translate(-88.2 -14.81)"/><polygon class="cls-9" points="171.83 497.76 206.61 498.91 207.77 524.35 204.18 537.53 198.19 548.31 162.25 548.31 162.25 537.53 171.83 519.56 171.83 497.76"/><path class="cls-1" d="M273.44,521.19l-2.93,13.18-8.45,10.78h0a25.29,25.29,0,0,0,13.68.33l1.29-.33,5.39-10.78V521.19h-9Z" transform="translate(-88.2 -14.81)"/><path class="cls-27" d="M273.44,521.19l-2.93,13.18-8.45,10.78h0a25.29,25.29,0,0,0,13.68.33l1.29-.33,5.39-10.78V521.19h-9Z" transform="translate(-88.2 -14.81)"/><path class="cls-9" d="M328,293.09L317.44,304.3l-16.31-10.07,2.84-9.95-11.76-5-1.77-22.2L262.17,278l-10,9.31L244,295.47l-4.1-10-21.34-23.22-14.36,11.39-43.33,9.11-1,6.72H120.5l-1.85,10A13.32,13.32,0,0,0,129,315l6.26,1.3,10.25,2.14,43.09,9,3.62,42.19-3.64,11.69,17,2.75-7.34,9.1-12-4.42L177.78,416l41,6.63,2.13-14.43,23.72-3.72,17.55,18.15,6-13.56L273,426.84l8.87-8.24,0.77,4,25.18-2.07L313,405.33l-5.21-31.94,0.5-18.48,7.69,8.43,7,25.36,26.92,5.61,12.56-29.17a22.41,22.41,0,0,0-1.71-20.95Z" transform="translate(-88.2 -14.81)"/><path class="cls-2" d="M212.09,510.46l29.08,3.16L241,520.33H197.94v-6.44l4.71-2A18.78,18.78,0,0,1,212.09,510.46Z" transform="translate(-88.2 -14.81)"/><path class="cls-28" d="M212.09,510.46l29.08,3.16L241,520.33H197.94v-6.44l4.71-2A18.78,18.78,0,0,1,212.09,510.46Z" transform="translate(-88.2 -14.81)"/><path class="cls-2" d="M289.77,514.21l-30.82,2.56,0.13,5.42h39.74V517h0A12.73,12.73,0,0,0,289.77,514.21Z" transform="translate(-88.2 -14.81)"/><path class="cls-29" d="M289.77,514.21l-30.82,2.56,0.13,5.42h39.74V517h0A12.73,12.73,0,0,0,289.77,514.21Z" transform="translate(-88.2 -14.81)"/><polygon class="cls-2" points="233.24 388.13 258.91 398.36 260.05 390.53 234.26 378.31 233.24 388.13"/><path class="cls-30" d="M334.59,397.9a7.18,7.18,0,0,0-2.63,2.68,7.22,7.22,0,0,1,6.33,10.81,7.18,7.18,0,0,0,3.62-1A7.25,7.25,0,1,0,334.59,397.9Z" transform="translate(-88.2 -14.81)"/><path class="cls-2" d="M338.25,404.16a7.26,7.26,0,0,0-6.29-3.57,7.22,7.22,0,0,0,6.33,10.81A7.26,7.26,0,0,0,338.25,404.16Z" transform="translate(-88.2 -14.81)"/><path class="cls-31" d="M336,400.23a7.35,7.35,0,0,0-2.58-.47,7.22,7.22,0,0,0,6.33,10.81,7.35,7.35,0,0,0,.85-2.48A7.15,7.15,0,0,1,336,400.23Z" transform="translate(-88.2 -14.81)"/><path class="cls-32" d="M332,400.58a7.35,7.35,0,0,0-.85,2.48,7.15,7.15,0,0,1,4.6,7.85,7.35,7.35,0,0,0,2.58.47A7.22,7.22,0,0,0,332,400.58Z" transform="translate(-88.2 -14.81)"/><path class="cls-33" d="M334.55,401.06a7.15,7.15,0,0,0,4.6,7.85A7.15,7.15,0,0,0,334.55,401.06Z" transform="translate(-88.2 -14.81)"/><path class="cls-34" d="M334.55,401.06a7.15,7.15,0,0,0,4.6,7.85A7.15,7.15,0,0,0,334.55,401.06Z" transform="translate(-88.2 -14.81)"/><path class="cls-9" d="M262.17,278l11.93,12.88a3.44,3.44,0,0,0,5.49-.59l11.14-18.93-0.28-14.26Z" transform="translate(-88.2 -14.81)"/><path class="cls-35" d="M262.17,278L274.27,291a3.25,3.25,0,0,0,5.19-.56l11.27-19.15-0.28-14.26Z" transform="translate(-88.2 -14.81)"/><path class="cls-9" d="M208.19,266.65l8.94,28.65a2.12,2.12,0,0,0,3.69-.43l8.11-19.94-10.35-12.66Z" transform="translate(-88.2 -14.81)"/><path class="cls-36" d="M208.19,266.65l9,28.68a2.1,2.1,0,0,0,3.65-.43l8.12-20-10.35-12.66Z" transform="translate(-88.2 -14.81)"/><path class="cls-2" d="M223,289.49l9,9,6.33,12.06-9,57.83a5.14,5.14,0,0,0,1.3,4.28l11.66,12.64,15.66-10a7.09,7.09,0,0,0,3.1-7.58L248.3,312.64l8.44-14.2,16.11-9-6.31-6.82-12.81,11.55H234.44l-7.71-13.86Z" transform="translate(-88.2 -14.81)"/><path class="cls-37" d="M223,289.49l9,9,6.33,12.06-9,57.48a5.85,5.85,0,0,0,1.48,4.87l11.43,12.39,15.32-9.75a7.66,7.66,0,0,0,3.35-8.19L248.3,312.64l8.44-14.2,16.11-9-6.31-6.82-12.81,11.55H234.44l-7.71-13.86Z" transform="translate(-88.2 -14.81)"/><polygon class="cls-2" points="146.24 279.42 143.82 283.64 150.15 295.69 160.1 297.83 167.81 284.86 165.52 279.42 146.24 279.42"/><path class="cls-9" d="M316.37,374.06l1.33,19.7a4.41,4.41,0,0,0,2.85,3.83l24.11,9a7.27,7.27,0,0,0,7.74-1.71l15.18-15.46Z" transform="translate(-88.2 -14.81)"/><path class="cls-38" d="M316.37,374.06l1.33,19.7a4.41,4.41,0,0,0,2.85,3.83l24.11,9a7.27,7.27,0,0,0,7.74-1.71l15.18-15.46Z" transform="translate(-88.2 -14.81)"/><path class="cls-9" d="M121,276.14l-7.74,20.27,6.34-4.81-1.75,5.9,42.85,8.84L163.6,285a3.16,3.16,0,0,0-2.41-3.51l-34.81-8.24A4.62,4.62,0,0,0,121,276.14Z" transform="translate(-88.2 -14.81)"/><path class="cls-39" d="M121,276.14l-7.74,20.27,6.34-4.81-1.75,5.9,42.85,8.84L163.6,285a3.16,3.16,0,0,0-2.41-3.51l-34.81-8.24A4.62,4.62,0,0,0,121,276.14Z" transform="translate(-88.2 -14.81)"/><polygon class="cls-24" points="137.37 201.53 133.51 198.15 117.56 198.15 112.73 201.54 137.37 201.53"/><polygon class="cls-2" points="98.58 538.73 98.58 549.51 134.52 549.51 147.7 525.55 133.3 538.79 98.58 538.73"/><polygon class="cls-2" points="162.25 537.53 162.25 548.31 198.19 548.31 204.18 537.53 207.77 524.35 194.51 537.53 162.25 537.53"/><path class="cls-2" d="M201.85,328.56l7.5-9.59a0.92,0.92,0,0,1,.72-0.35h2.57a0.92,0.92,0,0,1,.86,1.24l-2,5.25a0.92,0.92,0,0,0,.86,1.24h0a0.92,0.92,0,0,1,.8,1.37L207.45,338v-1.67a0.92,0.92,0,0,0-1.18-.88l-4.77,1.39a0.92,0.92,0,0,1-.87-1.57l3.73-3.29a0.92,0.92,0,0,0-.43-1.59l-1.55-.31A0.92,0.92,0,0,1,201.85,328.56Z" transform="translate(-88.2 -14.81)"/><path class="cls-2" d="M246.33,185.11l1.53,5.81a2.61,2.61,0,0,0,1.3,1.64l7.45,3.94a2.61,2.61,0,0,0,3.68-3.17l-2.06-5.83a2.61,2.61,0,0,1,0-1.71l1.17-3.45a2.61,2.61,0,0,0-1.74-3.34l-3.23-.94a2.61,2.61,0,0,0-2.36.47l-4.84,3.89A2.61,2.61,0,0,0,246.33,185.11Z" transform="translate(-88.2 -14.81)"/><path class="cls-40" d="M246.33,185.11l1.53,5.81a2.61,2.61,0,0,0,1.3,1.64l7.45,3.94a2.61,2.61,0,0,0,3.68-3.17l-2.06-5.83a2.61,2.61,0,0,1,0-1.71l1.17-3.45a2.61,2.61,0,0,0-1.74-3.34l-3.23-.94a2.61,2.61,0,0,0-2.36.47l-4.84,3.89A2.61,2.61,0,0,0,246.33,185.11Z" transform="translate(-88.2 -14.81)"/><path class="cls-41" d="M201.85,328.56l7.5-9.59a0.92,0.92,0,0,1,.72-0.35h2.57a0.92,0.92,0,0,1,.86,1.24l-2,5.25a0.92,0.92,0,0,0,.86,1.24h0a0.92,0.92,0,0,1,.8,1.37L207.45,338v-1.67a0.92,0.92,0,0,0-1.18-.88l-4.77,1.39a0.92,0.92,0,0,1-.87-1.57l3.73-3.29a0.92,0.92,0,0,0-.43-1.59l-1.55-.31A0.92,0.92,0,0,1,201.85,328.56Z" transform="translate(-88.2 -14.81)"/><polygon class="cls-42" points="65.5 57.17 71.86 93.04 84.48 115.48 120.41 118.66 101.86 75.95 65.5 57.17"/><polygon class="cls-43" points="151.32 110.49 247.34 80.37 216.41 113.77 179.68 123.22 151.32 110.49"/><polygon class="cls-44" points="120.41 118.66 171.68 80.31 204.01 46.54 141.86 74.49 120.41 118.66"/></svg>