<svg id="Layer_1" data-name="Layer 1" xmlns="http://www.w3.org/2000/svg" xmlns:xlink="http://www.w3.org/1999/xlink" viewBox="0 0 761.6 561.84"><defs><style>.cls-1,.cls-34,.cls-35{fill:none;}.cls-2{fill:#747474;}.cls-3{fill:#d69942;}.cls-4{fill:url(#linear-gradient);}.cls-5{fill:#e9bfbc;}.cls-6{fill:#187677;}.cls-7{fill:#0b1e2f;}.cls-8{fill:url(#linear-gradient-2);}.cls-9{fill:#dcadaa;}.cls-10{fill:#c68930;}.cls-11{fill:url(#linear-gradient-3);}.cls-12{fill:url(#linear-gradient-4);}.cls-13{fill:url(#linear-gradient-5);}.cls-14{fill:url(#linear-gradient-6);}.cls-15{fill:url(#linear-gradient-7);}.cls-16{fill:url(#linear-gradient-8);}.cls-17{fill:url(#linear-gradient-9);}.cls-18{fill:url(#linear-gradient-10);}.cls-19{fill:url(#linear-gradient-11);}.cls-20{fill:url(#linear-gradient-12);}.cls-21{fill:url(#linear-gradient-13);}.cls-22{fill:url(#linear-gradient-14);}.cls-23{fill:url(#linear-gradient-15);}.cls-24{fill:url(#linear-gradient-19);}.cls-25{fill:url(#linear-gradient-20);}.cls-26{fill:url(#linear-gradient-21);}.cls-27{fill:url(#linear-gradient-22);}.cls-28{fill:url(#linear-gradient-23);}.cls-29{fill:#836528;}.cls-30{fill:#5e491c;}.cls-31{clip-path:url(#clip-path);}.cls-32{fill:#fff;}.cls-33{fill:url(#linear-gradient-24);}.cls-34{stroke:#0b1e2f;stroke-width:3px;}.cls-34,.cls-35{stroke-miterlimit:10;}.cls-35{stroke:#747474;stroke-width:2px;}.cls-36{fill:url(#linear-gradient-25);}.cls-37{fill:url(#linear-gradient-26);}.cls-38{fill:url(#linear-gradient-27);}.cls-39{fill:url(#linear-gradient-28);}.cls-40{fill:url(#linear-gradient-29);}.cls-41{fill:url(#linear-gradient-30);}.cls-42{fill:url(#linear-gradient-31);}.cls-43{fill:url(#linear-gradient-32);}.cls-44{fill:url(#linear-gradient-33);}.cls-45{fill:url(#linear-gradient-34);}.cls-46{fill:url(#linear-gradient-35);}.cls-47{fill:url(#linear-gradient-36);}.cls-48{fill:url(#linear-gradient-37);}.cls-49{fill:url(#linear-gradient-38);}.cls-50{fill:url(#linear-gradient-39);}.cls-51{fill:url(#linear-gradient-40);}.cls-52{fill:url(#linear-gradient-41);}.cls-53{fill:#dba565;}.cls-54{fill:url(#linear-gradient-42);}.cls-55{fill:url(#linear-gradient-43);}.cls-56{fill:url(#linear-gradient-44);}.cls-57{fill:url(#linear-gradient-45);}.cls-58{fill:url(#linear-gradient-46);}.cls-59{fill:url(#linear-gradient-47);}.cls-60{fill:url(#linear-gradient-48);}.cls-61{fill:url(#linear-gradient-49);}.cls-62{fill:url(#linear-gradient-50);}.cls-63{fill:url(#linear-gradient-51);}.cls-64{fill:url(#linear-gradient-52);}.cls-65{fill:url(#linear-gradient-53);}</style><linearGradient id="linear-gradient" x1="337.89" y1="-155.44" x2="368.48" y2="-155.44" gradientTransform="translate(188.86 555.9) rotate(-57.01)" gradientUnits="userSpaceOnUse"><stop offset="0" stop-color="#619acc"/><stop offset="1" stop-color="#fff" stop-opacity="0"/></linearGradient><linearGradient id="linear-gradient-2" x1="227.37" y1="393.62" x2="228.01" y2="393.62" gradientTransform="matrix(1, 0, 0, 1, 0, 0)" xlink:href="#linear-gradient"/><linearGradient id="linear-gradient-3" x1="219.52" y1="89.64" x2="284.37" y2="89.64" gradientTransform="matrix(1, 0, 0, 1, 0, 0)" xlink:href="#linear-gradient"/><linearGradient id="linear-gradient-4" x1="102.12" y1="69.88" x2="175.21" y2="69.88" gradientTransform="matrix(1, 0, 0, 1, 0, 0)" xlink:href="#linear-gradient"/><linearGradient id="linear-gradient-5" x1="125.26" y1="145.17" x2="147.07" y2="145.17" gradientTransform="matrix(1, 0, 0, 1, 0, 0)" xlink:href="#linear-gradient"/><linearGradient id="linear-gradient-6" x1="152.84" y1="377.53" x2="267.87" y2="377.53" gradientTransform="matrix(1, 0, 0, 1, 0, 0)" xlink:href="#linear-gradient"/><linearGradient id="linear-gradient-7" x1="132.2" y1="241.46" x2="221.03" y2="241.46" gradientTransform="matrix(1, 0, 0, 1, 0, 0)" xlink:href="#linear-gradient"/><linearGradient id="linear-gradient-8" x1="132.2" y1="258.32" x2="221.03" y2="258.32" gradientTransform="matrix(1, 0, 0, 1, 0, 0)" xlink:href="#linear-gradient"/><linearGradient id="linear-gradient-9" x1="152.84" y1="370.91" x2="267.87" y2="370.91" gradientTransform="matrix(1, 0, 0, 1, 0, 0)" xlink:href="#linear-gradient"/><linearGradient id="linear-gradient-10" x1="132.2" y1="262.91" x2="183.55" y2="262.91" gradientTransform="matrix(1, 0, 0, 1, 0, 0)" xlink:href="#linear-gradient"/><linearGradient id="linear-gradient-11" x1="183.55" y1="265.1" x2="221.03" y2="265.1" gradientTransform="matrix(1, 0, 0, 1, 0, 0)" xlink:href="#linear-gradient"/><linearGradient id="linear-gradient-12" x1="138.98" y1="489.63" x2="180.3" y2="489.63" gradientTransform="matrix(1, 0, 0, 1, 0, 0)" xlink:href="#linear-gradient"/><linearGradient id="linear-gradient-13" x1="103.2" y1="448.43" x2="129.84" y2="448.43" gradientTransform="matrix(1, 0, 0, 1, 0, 0)" xlink:href="#linear-gradient"/><linearGradient id="linear-gradient-14" x1="105.52" y1="439.73" x2="130.37" y2="439.73" gradientTransform="matrix(1, 0, 0, 1, 0, 0)" xlink:href="#linear-gradient"/><linearGradient id="linear-gradient-15" x1="98.8" y1="464.83" x2="136.6" y2="464.83" gradientTransform="matrix(1, 0, 0, 1, 0, 0)" xlink:href="#linear-gradient"/><linearGradient id="linear-gradient-19" x1="218.04" y1="464.12" x2="242.73" y2="464.12" gradientTransform="matrix(1, 0, 0, 1, 0, 0)" xlink:href="#linear-gradient"/><linearGradient id="linear-gradient-20" x1="231.51" y1="474.88" x2="246.81" y2="474.88" gradientTransform="matrix(1, 0, 0, 1, 0, 0)" xlink:href="#linear-gradient"/><linearGradient id="linear-gradient-21" x1="246.81" y1="473.89" x2="251.43" y2="473.89" gradientTransform="matrix(1, 0, 0, 1, 0, 0)" xlink:href="#linear-gradient"/><linearGradient id="linear-gradient-22" x1="245.47" y1="480.85" x2="259.03" y2="480.85" gradientTransform="matrix(1, 0, 0, 1, 0, 0)" xlink:href="#linear-gradient"/><linearGradient id="linear-gradient-23" x1="95.98" y1="26.18" x2="126.57" y2="26.18" gradientTransform="translate(56.8 173.75) rotate(-22.67)" xlink:href="#linear-gradient"/><clipPath id="clip-path" transform="translate(-40.18 -16.6)"><path class="cls-1" d="M235.93,179.79l-8-16.71a2.93,2.93,0,0,0-1.64-1.49l-6.73-2.45a2.82,2.82,0,0,0-2.38.21l-12.78,7.43a1.86,1.86,0,0,0,.2,3.32l28.74,12.34A2,2,0,0,0,235.93,179.79Z"/></clipPath><linearGradient id="linear-gradient-24" x1="412.91" y1="383.74" x2="635.24" y2="606.07" gradientTransform="matrix(1, 0, 0, 1, 0, 0)" xlink:href="#linear-gradient"/><linearGradient id="linear-gradient-25" x1="357.95" y1="467.02" x2="563.14" y2="467.02" gradientTransform="translate(205.46 -239.53) rotate(13.99)" gradientUnits="userSpaceOnUse"><stop offset="0" stop-color="#619acc"/><stop offset="0.05" stop-color="#6da2d0" stop-opacity="0.92"/><stop offset="0.24" stop-color="#99bede" stop-opacity="0.64"/><stop offset="0.42" stop-color="#bed5ea" stop-opacity="0.41"/><stop offset="0.59" stop-color="#dae7f3" stop-opacity="0.23"/><stop offset="0.75" stop-color="#eef4fa" stop-opacity="0.11"/><stop offset="0.89" stop-color="#fbfcfe" stop-opacity="0.03"/><stop offset="1" stop-color="#fff" stop-opacity="0"/></linearGradient><linearGradient id="linear-gradient-26" x1="357.95" y1="466.76" x2="563.14" y2="466.76" gradientTransform="translate(205.46 -239.53) rotate(13.99)" gradientUnits="userSpaceOnUse"><stop offset="0" stop-color="#619acc"/><stop offset="0.01" stop-color="#669dce" stop-opacity="0.97"/><stop offset="0.05" stop-color="#86b1d8" stop-opacity="0.77"/><stop offset="0.1" stop-color="#a3c4e1" stop-opacity="0.58"/><stop offset="0.16" stop-color="#bcd4e9" stop-opacity="0.42"/><stop offset="0.22" stop-color="#d1e2f0" stop-opacity="0.29"/><stop offset="0.29" stop-color="#e2ecf6" stop-opacity="0.18"/><stop offset="0.37" stop-color="#eff5fa" stop-opacity="0.1"/><stop offset="0.47" stop-color="#f8fbfd" stop-opacity="0.04"/><stop offset="0.61" stop-color="#fefeff" stop-opacity="0.01"/><stop offset="1" stop-color="#fff" stop-opacity="0"/></linearGradient><linearGradient id="linear-gradient-27" x1="367.26" y1="466.76" x2="572.45" y2="466.76" gradientTransform="translate(205.46 -239.53) rotate(13.99)" gradientUnits="userSpaceOnUse"><stop offset="0" stop-color="#619acc"/><stop offset="0.06" stop-color="#74a6d2" stop-opacity="0.88"/><stop offset="0.18" stop-color="#99bede" stop-opacity="0.65"/><stop offset="0.31" stop-color="#b8d2e8" stop-opacity="0.45"/><stop offset="0.43" stop-color="#d2e2f0" stop-opacity="0.29"/><stop offset="0.56" stop-color="#e6eff7" stop-opacity="0.16"/><stop offset="0.7" stop-color="#f4f8fb" stop-opacity="0.07"/><stop offset="0.84" stop-color="#fcfdfe" stop-opacity="0.02"/><stop offset="1" stop-color="#fff" stop-opacity="0"/></linearGradient><linearGradient id="linear-gradient-28" x1="630.99" y1="219" x2="630.99" y2="92.11" gradientTransform="translate(-128.69 290) rotate(-14.02)" gradientUnits="userSpaceOnUse"><stop offset="0" stop-color="#619acc"/><stop offset="0.39" stop-color="#629bcc" stop-opacity="0.99"/><stop offset="0.53" stop-color="#689ece" stop-opacity="0.96"/><stop offset="0.63" stop-color="#71a4d1" stop-opacity="0.9"/><stop offset="0.71" stop-color="#7eadd5" stop-opacity="0.82"/><stop offset="0.78" stop-color="#8fb7db" stop-opacity="0.71"/><stop offset="0.84" stop-color="#a4c5e2" stop-opacity="0.58"/><stop offset="0.9" stop-color="#bdd5ea" stop-opacity="0.42"/><stop offset="0.95" stop-color="#dae8f3" stop-opacity="0.23"/><stop offset="0.99" stop-color="#fafcfd" stop-opacity="0.03"/><stop offset="1" stop-color="#fff" stop-opacity="0"/></linearGradient><linearGradient id="linear-gradient-29" x1="556.32" y1="96.79" x2="705.65" y2="96.79" gradientTransform="translate(-128.69 290) rotate(-14.02)" xlink:href="#linear-gradient-25"/><linearGradient id="linear-gradient-30" x1="550.99" y1="96.79" x2="700.32" y2="96.79" gradientTransform="translate(-128.69 290) rotate(-14.02)" xlink:href="#linear-gradient-27"/><linearGradient id="linear-gradient-31" x1="556.32" y1="158.63" x2="705.65" y2="158.63" xlink:href="#linear-gradient-28"/><linearGradient id="linear-gradient-32" x1="556.32" y1="132.49" x2="705.65" y2="132.49" xlink:href="#linear-gradient-28"/><linearGradient id="linear-gradient-33" x1="561.2" y1="132.49" x2="710.53" y2="132.49" xlink:href="#linear-gradient-28"/><linearGradient id="linear-gradient-34" x1="685.6" y1="182.3" x2="694.71" y2="182.3" gradientTransform="translate(-128.69 290) rotate(-14.02)" xlink:href="#linear-gradient-25"/><linearGradient id="linear-gradient-35" x1="685.6" y1="195.16" x2="694.71" y2="195.16" gradientTransform="translate(-128.69 290) rotate(-14.02)" xlink:href="#linear-gradient-25"/><linearGradient id="linear-gradient-36" x1="686.3" y1="182.3" x2="695.41" y2="182.3" gradientTransform="translate(-128.69 290) rotate(-14.02)" xlink:href="#linear-gradient-25"/><linearGradient id="linear-gradient-37" x1="687.45" y1="182.3" x2="696.56" y2="182.3" gradientTransform="translate(-128.69 290) rotate(-14.02)" xlink:href="#linear-gradient-25"/><linearGradient id="linear-gradient-38" x1="688.34" y1="182.3" x2="697.45" y2="182.3" gradientTransform="translate(-128.69 290) rotate(-14.02)" xlink:href="#linear-gradient-25"/><linearGradient id="linear-gradient-39" x1="686.3" y1="195.16" x2="695.41" y2="195.16" gradientTransform="translate(-128.69 290) rotate(-14.02)" xlink:href="#linear-gradient-25"/><linearGradient id="linear-gradient-40" x1="687.45" y1="195.16" x2="696.56" y2="195.16" gradientTransform="translate(-128.69 290) rotate(-14.02)" xlink:href="#linear-gradient-25"/><linearGradient id="linear-gradient-41" x1="688.34" y1="195.16" x2="697.45" y2="195.16" gradientTransform="translate(-128.69 290) rotate(-14.02)" xlink:href="#linear-gradient-25"/><linearGradient id="linear-gradient-42" x1="529.01" y1="182.56" x2="596.67" y2="182.56" gradientTransform="translate(-1.99 -262.3) rotate(12.48)" xlink:href="#linear-gradient"/><linearGradient id="linear-gradient-43" x1="534.07" y1="228.04" x2="596.67" y2="228.04" gradientTransform="translate(-1.99 -262.3) rotate(12.48)" xlink:href="#linear-gradient"/><linearGradient id="linear-gradient-44" x1="993.55" y1="643.96" x2="1061.22" y2="643.96" gradientTransform="matrix(0.54, 0.84, -0.84, 0.54, 615.39, -1140.64)" xlink:href="#linear-gradient"/><linearGradient id="linear-gradient-45" x1="998.62" y1="689.45" x2="1061.22" y2="689.45" gradientTransform="matrix(0.54, 0.84, -0.84, 0.54, 615.39, -1140.64)" xlink:href="#linear-gradient"/><linearGradient id="linear-gradient-46" x1="1741.71" y1="683.11" x2="1809.37" y2="683.11" gradientTransform="translate(1741.31 -1422.74) rotate(102.48)" xlink:href="#linear-gradient"/><linearGradient id="linear-gradient-47" x1="1746.77" y1="728.6" x2="1809.37" y2="728.6" gradientTransform="translate(1741.31 -1422.74) rotate(102.48)" xlink:href="#linear-gradient"/><linearGradient id="linear-gradient-48" x1="2627.1" y1="-254.7" x2="2661.8" y2="-254.7" gradientTransform="translate(2750.94 1614.94) rotate(-148.35)" xlink:href="#linear-gradient"/><linearGradient id="linear-gradient-49" x1="2629.7" y1="-231.38" x2="2661.8" y2="-231.38" gradientTransform="translate(2750.94 1614.94) rotate(-148.35)" xlink:href="#linear-gradient"/><linearGradient id="linear-gradient-50" x1="2128.18" y1="-1098.23" x2="2162.87" y2="-1098.23" gradientTransform="translate(1879.42 2241.9) rotate(-103.35)" xlink:href="#linear-gradient"/><linearGradient id="linear-gradient-51" x1="2130.78" y1="-1074.91" x2="2162.87" y2="-1074.91" gradientTransform="translate(1879.42 2241.9) rotate(-103.35)" xlink:href="#linear-gradient"/><linearGradient id="linear-gradient-52" x1="1280.43" y1="-1298.48" x2="1315.13" y2="-1298.48" gradientTransform="translate(723.28 2138.72) rotate(-58.35)" xlink:href="#linear-gradient"/><linearGradient id="linear-gradient-53" x1="1283.03" y1="-1275.16" x2="1315.13" y2="-1275.16" gradientTransform="translate(723.28 2138.72) rotate(-58.35)" xlink:href="#linear-gradient"/></defs><title>modeloA</title><rect class="cls-2" x="43.31" y="451.56" width="465.96" height="53.96" rx="26.98" ry="26.98"/><path class="cls-3" d="M262.38,80.53l14.8,70.7A31.82,31.82,0,0,1,267,181.67l-28.8,25.25-45.82-16L253.88,85.85Z" transform="translate(-40.18 -16.6)"/><path class="cls-2" d="M249.37,159.73h16.71a0,0,0,0,1,0,0v16.71a13.88,13.88,0,0,1-13.88,13.88H235.49a0,0,0,0,1,0,0V173.61A13.88,13.88,0,0,1,249.37,159.73Z" transform="translate(-72.75 273.48) rotate(-57.01)"/><path class="cls-4" d="M246.29,153.87l9,42.31L264,182.75a14.58,14.58,0,0,0-4.29-20.16Z" transform="translate(-40.18 -16.6)"/><path class="cls-5" d="M145.16,428.94l0.65,35.18L139,480.67c3.23,4.83,3,9.63,6.24,14.47H180.3L172.68,479a33.51,33.51,0,0,1-3.23-12.63,40.49,40.49,0,0,1,1.13-11.68l9.73-39.37Z" transform="translate(-40.18 -16.6)"/><path class="cls-5" d="M199.09,435.81l17.85,21.1a11,11,0,0,1,2.34,9.47l-1.65,7.45v4.82a9.18,9.18,0,0,0,8.55,9.15l34.33,2.05a9.46,9.46,0,0,0,6.78-2.24l2.74-2.34a1.74,1.74,0,0,0-.52-2.95L259,480.07l-24.84-25.7L214.79,394.5Z" transform="translate(-40.18 -16.6)"/><path class="cls-5" d="M301.6,234.16l-2.85-6.24h0a17.46,17.46,0,0,0-7.89-8.28L288,218.15l-4.7,8.46,1.19-8-2.62-1.5-11.5,21.28-4.43-5.78-4.76,1.93v11.23a6,6,0,0,1-4.62,6.83l-17.11,3.79-39.69-35.86-1.83-.93L220.34,266l-0.7,6.79,14.23,10.25a9.57,9.57,0,0,0,11.15,0l29.35-20.92,11.29-5.81Z" transform="translate(-40.18 -16.6)"/><path class="cls-6" d="M163.61,448.47L231,438.32a42.23,42.23,0,0,0,26-14.91l10.84-13.19-28-3.25Z" transform="translate(-40.18 -16.6)"/><path class="cls-3" d="M144.9,127.82l-12.5,25.37A36.75,36.75,0,0,0,144.9,200h0l23-7.07Z" transform="translate(-40.18 -16.6)"/><path class="cls-5" d="M132,264.23l-7.26-44.57h0a20.56,20.56,0,0,0-10,9.05L100.4,254.93,84.17,239a12.18,12.18,0,0,1-3.48-10.67L77.39,216,72,214.16l-0.59,7.07L59.94,200l-2.62,1.5,1.19,8L53.81,201l-2.89,1.49A17.46,17.46,0,0,0,43,210.77h0L40.18,217l16,22.2,12.51,6.44,24.8,30.87a12.45,12.45,0,0,0,16.34,2.73l22.37-14.1Z" transform="translate(-40.18 -16.6)"/><path class="cls-7" d="M163.61,448.47l55.39-12c1.64-.36,3.26-0.77,4.87-1.2a100.77,100.77,0,0,0,44-25Z" transform="translate(-40.18 -16.6)"/><polygon class="cls-8" points="227.69 393.62 227.69 393.62 227.69 393.62 227.69 393.62"/><path class="cls-7" d="M221.78,321.33L221,269.56a17,17,0,0,0-1.5-6.74L200.7,221.08a7.81,7.81,0,0,0-6.27-4.55L146,211.22a4.13,4.13,0,0,0-2.07.3l-19.16,8.14L132,264.23l20.83,42.35a9.16,9.16,0,0,1,.52,6.8h0L142.3,348.46l-24.12,79.26,45.43,20.75,104.27-38.24h0Z" transform="translate(-40.18 -16.6)"/><path class="cls-5" d="M155.08,214.73l30.6,5.3,16.92-32,23,6.47a19.32,19.32,0,0,0,23.59-12.55l31.38-95.09a12.33,12.33,0,0,0-11.71-16.19H203.9L168.33,95.36l-23.43,26Z" transform="translate(-40.18 -16.6)"/><polygon class="cls-9" points="193.79 128.14 187.36 131.17 185.47 125.01 207.6 65.99 215.93 69.11 193.79 128.14"/><circle class="cls-7" cx="212.08" cy="109.48" r="5.42"/><path class="cls-10" d="M283.35,99a34.23,34.23,0,0,0-34.17-42.67c-15.09.44-28.41,0.82-29.66,0.82A8.79,8.79,0,0,1,216.77,56a35.8,35.8,0,0,0-48.22,14.24l-0.23.42L142.3,64,138.69,99.4h0a36.44,36.44,0,0,0-11,41.38l19.36,50.15,23.86-8,12.36-74h32.1l-6.72-16.24L277.21,123Z" transform="translate(-40.18 -16.6)"/><polygon class="cls-7" points="213.82 81.59 209.91 90.05 222.71 97.06 213.82 81.59"/><path class="cls-11" d="M219.52,57.11L277.21,123l6.07-23.83a34.46,34.46,0,0,0-34.39-43Z" transform="translate(-40.18 -16.6)"/><polygon class="cls-12" points="102.11 47.44 143.11 92.31 175.21 92.31 168.49 76.07 128.14 54.03 102.11 47.44"/><path class="cls-13" d="M138.69,99.4l8.38,91.53-19.36-50.15a36.44,36.44,0,0,1,11-41.38h0Z" transform="translate(-40.18 -16.6)"/><path class="cls-14" d="M267.87,410.22h0l-115-103.64a9.16,9.16,0,0,1,.52,6.8h0l7.54,99.43,2.7,35.64,104.27-38.24h0Z" transform="translate(-40.18 -16.6)"/><path class="cls-15" d="M200.62,220.92a7.37,7.37,0,0,0-5.85-4.29l-6.87-.82-2.13,4.32-30.7-5.41-0.26-2.53-8.92-1a3.81,3.81,0,0,0-1.9.28l-4.46,1.89,1.15,20.21a48.14,48.14,0,0,1-.7,11.31l43.58,26.82L221,266.14Z" transform="translate(-40.18 -16.6)"/><path class="cls-16" d="M136.18,256.8l-4,8.47,51.35,6.46L140,244.91A48.14,48.14,0,0,1,136.18,256.8Z" transform="translate(-40.18 -16.6)"/><path class="cls-17" d="M152.84,306.58l71,128.66a100.77,100.77,0,0,0,44-25h0l-46.1-88.9Z" transform="translate(-40.18 -16.6)"/><path class="cls-18" d="M140,244.91a48.14,48.14,0,0,1-3.79,11.89l-4,8.47,8,15.63,43.34-9.17Z" transform="translate(-40.18 -16.6)"/><path class="cls-19" d="M183.55,271.73l32-17,3.61,7.5a18.79,18.79,0,0,1,1.86,8.15v5Z" transform="translate(-40.18 -16.6)"/><path class="cls-7" d="M217.62,473.83v9.78a3.86,3.86,0,0,0,3.6,3.85l34.2,2.09Z" transform="translate(-40.18 -16.6)"/><path class="cls-7" d="M139,480.67l20.82,10.67,17.63-2.28,2.86,6.07-12.13,2.74a29.2,29.2,0,0,1-14.13-.32l-8.82-2.41Z" transform="translate(-40.18 -16.6)"/><path class="cls-20" d="M139,480.67l20.82,10.67,17.63-2.28,2.86,6.07-12.13,2.74a29.2,29.2,0,0,1-14.13-.32l-8.82-2.41Z" transform="translate(-40.18 -16.6)"/><polygon class="cls-21" points="126.24 440.45 103.2 453.4 108.59 456.57 129.84 440.3 126.24 440.45"/><polygon class="cls-22" points="105.52 441.34 126.24 440.45 130.37 438.13 105.52 441.34"/><polygon class="cls-23" points="136.6 473.08 108.59 456.57 98.8 464.07 136.6 473.08"/><polygon class="cls-21" points="126.24 440.45 103.2 453.4 108.59 456.57 129.84 440.3 126.24 440.45"/><polygon class="cls-22" points="105.52 441.34 126.24 440.45 130.37 438.13 105.52 441.34"/><polygon class="cls-23" points="136.6 473.08 108.59 456.57 98.8 464.07 136.6 473.08"/><path class="cls-7" d="M218,458.47l20,11.28c2.45-3.5,4.64-6.56,4.64-6.56Z" transform="translate(-40.18 -16.6)"/><path class="cls-7" d="M231.59,480c0.78-.21,9.61-3.7,15.22-5.94l-8.73-4.3C234.74,474.54,230.92,480.17,231.59,480Z" transform="translate(-40.18 -16.6)"/><path class="cls-7" d="M246.81,474.05l3.1,1.52c0.87-1.94,1.53-3.37,1.53-3.37Z" transform="translate(-40.18 -16.6)"/><path class="cls-7" d="M249.9,475.58c-1.84,4.08-4.65,10.43-4.42,10.54s13.54-6,13.54-6Z" transform="translate(-40.18 -16.6)"/><path class="cls-24" d="M218,458.47l20,11.28c2.45-3.5,4.64-6.56,4.64-6.56Z" transform="translate(-40.18 -16.6)"/><path class="cls-25" d="M231.59,480c0.78-.21,9.61-3.7,15.22-5.94l-8.73-4.3C234.74,474.54,230.92,480.17,231.59,480Z" transform="translate(-40.18 -16.6)"/><path class="cls-26" d="M246.81,474.05l3.1,1.52c0.87-1.94,1.53-3.37,1.53-3.37Z" transform="translate(-40.18 -16.6)"/><path class="cls-27" d="M249.9,475.58c-1.84,4.08-4.65,10.43-4.42,10.54s13.54-6,13.54-6Z" transform="translate(-40.18 -16.6)"/><path class="cls-2" d="M168.15,139.73h16.71a0,0,0,0,1,0,0v16.71A13.88,13.88,0,0,1,171,170.31H154.27a0,0,0,0,1,0,0V153.6A13.88,13.88,0,0,1,168.15,139.73Z" transform="translate(-86.83 60.73) rotate(-22.67)"/><path class="cls-28" d="M177.78,135l-16.44,40,14.77-6.17A14.58,14.58,0,0,0,184,149.79Z" transform="translate(-40.18 -16.6)"/><circle class="cls-7" cx="221.61" cy="115.88" r="5.42" transform="translate(-26.35 238.44) rotate(-61.42)"/><path class="cls-29" d="M233.57,185.59L199,173.24a5.66,5.66,0,0,1,.53-9.33l15.93-9.6A11.1,11.1,0,0,1,231.21,159l7.43,20.2A4.54,4.54,0,0,1,233.57,185.59Z" transform="translate(-40.18 -16.6)"/><path class="cls-30" d="M234.73,177.88L228,163.09a2.93,2.93,0,0,0-1.64-1.49l-6.73-2.45a2.82,2.82,0,0,0-2.38.21l-12.78,7.43a1.86,1.86,0,0,0,.2,3.32l27.54,10.43A2,2,0,0,0,234.73,177.88Z" transform="translate(-40.18 -16.6)"/><g class="cls-31"><path class="cls-32" d="M238.75,167.73l-0.2-.42a7.35,7.35,0,0,0-3.85-3.63l-23.33-9.54a4.11,4.11,0,0,0-3.63.25l-0.36.21a2,2,0,0,0,.21,3.48l28.62,12.29A2,2,0,0,0,238.75,167.73Z" transform="translate(-40.18 -16.6)"/></g><path class="cls-33" d="M634.3,424.63q0-1.68.08-3.35a40.08,40.08,0,0,1-51-45.72H423.79v0.71H423.7V578.45H662.86V480.15A68.17,68.17,0,0,1,634.3,424.63Z" transform="translate(-40.18 -16.6)"/><path class="cls-7" d="M449.48,380.64H609q0.18-1,.4-1.9H449.38v2.62h0.09v-0.71Z" transform="translate(-40.18 -16.6)"/><path class="cls-7" d="M593.94,360.74H412a7.77,7.77,0,0,0-7.77,7.77h0a7.77,7.77,0,0,0,7.77,7.77h11.7v-2.62H597.07A67.79,67.79,0,0,1,593.94,360.74Z" transform="translate(-40.18 -16.6)"/><path class="cls-34" d="M602.74,319.18c71,50.9,84,80.94,79.06,99.55-2.8,10.57-11.71,18.77-7.81,27.33,6.42,14.06,42.39,17.91,53.68,3.9s-8.74-38.16,0-45.87c12.3-10.85,72.15,19.13,70.27,50.75-0.39,6.57-3.38,12.16-6.83,16.59" transform="translate(-40.18 -16.6)"/><rect class="cls-2" x="777.21" y="482.05" width="1.95" height="13.83" rx="0.44" ry="0.44" transform="translate(273.91 -320.91) rotate(27.53)"/><rect class="cls-2" x="782.98" y="485.06" width="1.95" height="13.83" rx="0.44" ry="0.44" transform="translate(275.96 -323.24) rotate(27.53)"/><path class="cls-7" d="M798.23,466.9h0a0,0,0,0,1,0,0v20.39a0,0,0,0,1,0,0H777.84a0,0,0,0,1,0,0v0A20.39,20.39,0,0,1,798.23,466.9Z" transform="translate(269.54 -326.81) rotate(27.53)"/><path class="cls-7" d="M777.84,466.9h20.39a0,0,0,0,1,0,0v20.39a0,0,0,0,1,0,0h0a20.39,20.39,0,0,1-20.39-20.39v0A0,0,0,0,1,777.84,466.9Z" transform="translate(1226.16 1247.8) rotate(-152.47)"/><rect class="cls-2" x="783.57" y="474.44" width="7.69" height="7.69" rx="3.85" ry="3.85" transform="translate(270.02 -326.39) rotate(27.53)"/><rect class="cls-35" x="468.84" y="281.33" width="17.24" height="33.84" rx="3.91" ry="3.91" transform="translate(-98.21 107.93) rotate(-14.02)"/><rect class="cls-35" x="473.34" y="280.21" width="17.24" height="33.84" rx="3.91" ry="3.91" transform="translate(-97.8 108.98) rotate(-14.02)"/><line class="cls-35" x1="437.44" y1="272.72" x2="428.65" y2="237.52"/><rect class="cls-35" x="494.09" y="275.03" width="17.24" height="33.84" rx="3.91" ry="3.91" transform="translate(-95.93 113.85) rotate(-14.02)"/><rect class="cls-35" x="498.59" y="273.91" width="17.24" height="33.84" rx="3.91" ry="3.91" transform="translate(-95.52 114.91) rotate(-14.02)"/><line class="cls-35" x1="462.69" y1="266.42" x2="453.9" y2="231.22"/><path class="cls-2" d="M483.51,337.44a51.3,51.3,0,0,0,62.17-37.38l-99.55-24.79A51.3,51.3,0,0,0,483.51,337.44Z" transform="translate(-40.18 -16.6)"/><path class="cls-36" d="M460.34,278.8l-14.21-3.54a51.27,51.27,0,0,0,44.61,63.43A51.3,51.3,0,0,1,460.34,278.8Z" transform="translate(-40.18 -16.6)"/><path class="cls-37" d="M545.69,300.06L460.34,278.8a51.3,51.3,0,0,0,30.4,59.89A51.3,51.3,0,0,0,545.69,300.06Z" transform="translate(-40.18 -16.6)"/><path class="cls-38" d="M459.9,278.69l-4.74-1.18a51.3,51.3,0,0,0,30.4,59.89c0.82,0.08,1.65.15,2.47,0.19A51.3,51.3,0,0,1,459.9,278.69Z" transform="translate(-40.18 -16.6)"/><path class="cls-2" d="M559,196.9l-7.48,1.87L469.4,219.27a41.09,41.09,0,0,0-29.91,49.82h0L540.1,244A22.06,22.06,0,0,1,566.85,260l3,12.09,0.64,2.56a51.08,51.08,0,0,1-37.19,61.93l-72.46,18.09,3.25,13L609,331.56l-0.53-2.13-2.72-10.89-21.37-85.62-6.11-24.48A15.86,15.86,0,0,0,559,196.9Z" transform="translate(-40.18 -16.6)"/><path class="cls-39" d="M569.87,272.13l0.64,2.56a51.08,51.08,0,0,1-37.19,61.93l-72.46,18.09,3.25,13L609,331.56l-0.53-2.13-2.72-10.89L578.26,208.44h0A87.54,87.54,0,0,0,569.87,272.13Z" transform="translate(-40.18 -16.6)"/><path class="cls-40" d="M483.61,215.73l-14.2,3.55a41.09,41.09,0,0,0-29.91,49.82h0l14.2-3.55h0A41.09,41.09,0,0,1,483.61,215.73Z" transform="translate(-40.18 -16.6)"/><path class="cls-41" d="M483.17,215.84L478.44,217a41.09,41.09,0,0,0-29.91,49.82h0l4.73-1.18h0A41.09,41.09,0,0,1,483.17,215.84Z" transform="translate(-40.18 -16.6)"/><path class="cls-42" d="M585.79,255.31A22.06,22.06,0,0,0,559,239.25l-4.73,1.18a22.06,22.06,0,0,1,26.75,16.06l6.08,24.36A74.77,74.77,0,0,0,604.38,313l-2.71-10.86a74.7,74.7,0,0,1-9.79-22.53Z" transform="translate(-40.18 -16.6)"/><path class="cls-43" d="M578.26,208.44A15.86,15.86,0,0,0,559,196.9l-70.69,17.65a41.09,41.09,0,0,0-29.91,49.82h0L540.1,244l4.73-1.18,9.47-2.36,4.73-1.18a22.06,22.06,0,0,1,26.75,16.06l6.08,24.36a74.7,74.7,0,0,0,9.79,22.53l-17.29-69.27Z" transform="translate(-40.18 -16.6)"/><path class="cls-44" d="M578.26,208.44A15.86,15.86,0,0,0,559,196.9l-70.69,17.65a41.09,41.09,0,0,0-29.91,49.82h0L540.1,244l4.73-1.18,9.47-2.36,4.73-1.18a22.06,22.06,0,0,1,26.75,16.06l6.08,24.36a74.7,74.7,0,0,0,9.79,22.53l-17.29-69.27Z" transform="translate(-40.18 -16.6)"/><circle class="cls-2" cx="585.08" cy="299.71" r="4.55" transform="translate(-95.36 134.03) rotate(-14.02)"/><circle class="cls-2" cx="588.19" cy="312.18" r="4.55" transform="translate(-98.28 135.16) rotate(-14.02)"/><path class="cls-45" d="M582.44,300.36a4.56,4.56,0,0,1,2.44-5.21,4.55,4.55,0,1,0,2.16,8.66A4.56,4.56,0,0,1,582.44,300.36Z" transform="translate(-40.18 -16.6)"/><path class="cls-46" d="M585.56,312.84a4.56,4.56,0,0,1,2.44-5.21,4.55,4.55,0,1,0,2.16,8.66A4.56,4.56,0,0,1,585.56,312.84Z" transform="translate(-40.18 -16.6)"/><path class="cls-47" d="M582.2,300.42a4.54,4.54,0,0,1,2-5,4.46,4.46,0,0,0-.47,0,4.56,4.56,0,0,0,2.16,8.66,4.46,4.46,0,0,0,.4-0.24A4.54,4.54,0,0,1,582.2,300.42Z" transform="translate(-40.18 -16.6)"/><path class="cls-48" d="M589.49,298.6a3.34,3.34,0,1,0-2,5A4.54,4.54,0,0,0,589.49,298.6Z" transform="translate(-40.18 -16.6)"/><path class="cls-49" d="M589.49,298.6a3.34,3.34,0,1,0-2,5A4.54,4.54,0,0,0,589.49,298.6Z" transform="translate(-40.18 -16.6)"/><path class="cls-50" d="M585.32,312.9a4.54,4.54,0,0,1,2-5,4.46,4.46,0,0,0-.47,0,4.56,4.56,0,0,0,2.16,8.66,4.46,4.46,0,0,0,.4-0.24A4.54,4.54,0,0,1,585.32,312.9Z" transform="translate(-40.18 -16.6)"/><path class="cls-51" d="M592.61,311.08a3.34,3.34,0,1,0-2,5A4.54,4.54,0,0,0,592.61,311.08Z" transform="translate(-40.18 -16.6)"/><path class="cls-52" d="M592.61,311.08a3.34,3.34,0,1,0-2,5A4.54,4.54,0,0,0,592.61,311.08Z" transform="translate(-40.18 -16.6)"/><path class="cls-2" d="M630.89,324.18l1.31,4.7a51.3,51.3,0,0,0,37.1-56q-0.5-1.14-1.05-2.24A51.3,51.3,0,0,1,630.89,324.18Z" transform="translate(-40.18 -16.6)"/><path class="cls-2" d="M650.31,343.6l1.31,4.7a51.3,51.3,0,0,0,37.1-56q-0.5-1.14-1.05-2.24A51.3,51.3,0,0,1,650.31,343.6Z" transform="translate(-40.18 -16.6)"/><path class="cls-2" d="M444.93,186.39l-0.11-3.25A34.18,34.18,0,0,0,412,213.55c0.1,0.54.21,1.08,0.33,1.62A34.19,34.19,0,0,1,444.93,186.39Z" transform="translate(-40.18 -16.6)"/><path class="cls-2" d="M435.41,170.76l-0.11-3.25a34.18,34.18,0,0,0-32.84,30.41c0.1,0.54.21,1.08,0.33,1.62A34.19,34.19,0,0,1,435.41,170.76Z" transform="translate(-40.18 -16.6)"/><polygon class="cls-10" points="481.75 0 501.99 68.06 534.39 75.23 481.75 0"/><polygon class="cls-53" points="519.67 165.15 499.43 97.09 467.03 89.92 519.67 165.15"/><polygon class="cls-53" points="467.03 89.92 501.99 68.06 534.39 75.23 467.03 89.92"/><polygon class="cls-10" points="534.39 75.23 499.43 97.09 467.03 89.92 534.39 75.23"/><polygon class="cls-54" points="481.75 0 501.99 68.06 534.39 75.23 481.75 0"/><polygon class="cls-55" points="534.39 75.23 499.43 97.09 467.03 89.92 534.39 75.23"/><polygon class="cls-10" points="632.6 26.64 598.79 89.08 616.63 117.06 632.6 26.64"/><polygon class="cls-53" points="542.64 170.23 576.45 107.79 558.61 79.81 542.64 170.23"/><polygon class="cls-53" points="558.61 79.81 598.79 89.08 616.63 117.06 558.61 79.81"/><polygon class="cls-10" points="616.63 117.06 576.45 107.79 558.61 79.81 616.63 117.06"/><polygon class="cls-56" points="632.6 26.64 598.79 89.08 616.63 117.06 632.6 26.64"/><polygon class="cls-57" points="616.63 117.06 576.45 107.79 558.61 79.81 616.63 117.06"/><polygon class="cls-10" points="728.13 136.81 660.08 157.06 652.9 189.46 728.13 136.81"/><polygon class="cls-53" points="562.99 174.74 631.04 154.49 638.22 122.09 562.99 174.74"/><polygon class="cls-53" points="638.22 122.09 660.08 157.06 652.9 189.46 638.22 122.09"/><polygon class="cls-10" points="652.9 189.46 631.04 154.49 638.22 122.09 652.9 189.46"/><polygon class="cls-58" points="728.13 136.81 660.08 157.06 652.9 189.46 728.13 136.81"/><polygon class="cls-59" points="652.9 189.46 631.04 154.49 638.22 122.09 652.9 189.46"/><polygon class="cls-10" points="372.58 466.76 374.24 430.39 359.75 421.46 372.58 466.76"/><polygon class="cls-53" points="382.02 380.39 380.37 416.76 394.85 425.69 382.02 380.39"/><polygon class="cls-53" points="394.85 425.69 374.24 430.39 359.75 421.46 394.85 425.69"/><polygon class="cls-10" points="359.75 421.46 380.37 416.76 394.85 425.69 359.75 421.46"/><polygon class="cls-60" points="372.58 466.76 374.24 430.39 359.75 421.46 372.58 466.76"/><polygon class="cls-61" points="359.75 421.46 380.37 416.76 394.85 425.69 359.75 421.46"/><polygon class="cls-10" points="304.01 428.46 330.89 403.91 326.97 387.36 304.01 428.46"/><polygon class="cls-53" points="371.75 374.06 344.87 398.61 348.8 415.17 371.75 374.06"/><polygon class="cls-53" points="348.8 415.17 330.89 403.91 326.97 387.36 348.8 415.17"/><polygon class="cls-10" points="326.97 387.36 344.87 398.61 348.8 415.17 326.97 387.36"/><polygon class="cls-62" points="304.01 428.46 330.89 403.91 326.97 387.36 304.01 428.46"/><polygon class="cls-63" points="326.97 387.36 344.87 398.61 348.8 415.17 326.97 387.36"/><polygon class="cls-10" points="276.29 359.02 312.66 360.67 321.58 346.19 276.29 359.02"/><polygon class="cls-53" points="362.65 368.45 326.29 366.8 317.36 381.29 362.65 368.45"/><polygon class="cls-53" points="317.36 381.29 312.66 360.67 321.58 346.19 317.36 381.29"/><polygon class="cls-10" points="321.58 346.19 326.29 366.8 317.36 381.29 321.58 346.19"/><polygon class="cls-64" points="276.29 359.02 312.66 360.67 321.58 346.19 276.29 359.02"/><polygon class="cls-65" points="321.58 346.19 326.29 366.8 317.36 381.29 321.58 346.19"/></svg>